<svg id="Layer_1" data-name="Layer 1" xmlns="http://www.w3.org/2000/svg" xmlns:xlink="http://www.w3.org/1999/xlink" viewBox="0 0 348 359.5"><defs><style>.cls-1,.cls-4,.cls-6,.cls-7{fill:none;}.cls-2{clip-path:url(#clip-path);}.cls-3{fill:transparent;}.cls-4{stroke:#ff9200;stroke-dasharray:16 8 2 8;}.cls-4,.cls-6,.cls-7{stroke-linecap:round;stroke-linejoin:round;}.cls-4,.cls-6{stroke-width:2px;}.cls-5{font-size:16px;font-family:SourceCodePro-Regular, Source Code Pro;}.cls-6{stroke:#901b90;}.cls-7{stroke:#000;stroke-dasharray:1 4;}</style><clipPath id="clip-path"><rect class="cls-1" width="348" height="359.5"/></clipPath></defs><title>LayoutChild</title><g class="cls-2"><rect class="cls-3" width="348" height="359.5"/><path class="cls-3" d="M-1081-798H1765V1213H-1081Zm0,0"/><path class="cls-4" d="M1,1H347V358.5H1ZM1,1"/></g><text class="cls-5" transform="translate(121.2 21.99)">LayoutChild</text><path class="cls-6" d="M12.5,56H338V197.5H12.5Zm0,0"/><text class="cls-5" transform="translate(17.5 76.99)">styleMap</text><path class="cls-7" d="M48.5,95H302v27.5H48.5Zm0,0"/><text class="cls-5" transform="translate(53.5 114.75)">background-color: blue</text><path class="cls-7" d="M48.5,122.5H302V150H48.5Zm0,0"/><text class="cls-5" transform="translate(53.5 142.25)">color: black</text><path class="cls-7" d="M48.5,150H302v27.5H48.5Zm0,0"/><text class="cls-5" transform="translate(53.5 169.75)">transform: scale(1.618)</text><path class="cls-6" d="M18.5,240H334v71.5H18.5Zm0,0"/><text class="cls-5" transform="translate(23.5 281.75)">layoutNextFragment</text></svg>
