<?xml version="1.0" encoding="utf-8"?>
<!-- Generator: Adobe Illustrator 22.1.0, SVG Export Plug-In . SVG Version: 6.00 Build 0)  -->
<svg version="1.1" id="Layer_1" xmlns="http://www.w3.org/2000/svg" xmlns:xlink="http://www.w3.org/1999/xlink" x="0px" y="0px"
	 viewBox="0 0 1366 396" style="enable-background:new 0 0 1366 396;" xml:space="preserve">
<style type="text/css">
	.st0{fill:#8CC63F;}
	.st1{fill:#207B50;}
</style>
<g id="Background">
	<g>
		<path class="st0" d="M2.6,108.3l22-11c17.8-8.9,38.6-9.9,57.3-2.8l124.4,47.6c22.1,8.4,46.5,8.1,68.3-0.9l102.1-42.3
			c24.6-10.2,51.9-12.3,77.7-5.9l105.1,25.9c26.5,6.5,54.5,0.1,75.5-17.2L747.5,9.2c7-5.8,17.1-5.7,24,0.2l88.8,75.5
			c16.4,13.9,38.3,19.8,59.4,15.6c47-9.4,79.7-33.2,125.9-28.2c40.3,4.4,115.4,34.4,154.6,51c16.4,6.9,34.9,6.7,51.1-0.7l116.3-53.3
			v323H1.6L2.6,108.3z"/>
		<g>
			<g>
				<g>
					<g>
						<path class="st1" d="M3.9,108.3c-0.2-1.8-0.6-0.8-0.5,4.2l0.6,3.6L3.9,108.3z"/>
						<path class="st1" d="M2.6,142.1c0.3,5.9,0.8,12.7,1.5,8.9c-0.6-5.9-0.3-7.3-1.1-13.6c-0.1-5,0.2-8.8,0.5-7.9
							c-0.2-1.8,0.2-7.8-0.2-10.5c-0.5,6.5-0.6,14.8-0.2,23.5C2.9,144.3,2.7,142.5,2.6,142.1z"/>
						<path class="st1" d="M242.6,393.2l-3.2-0.1C240.3,393.2,241.4,393.2,242.6,393.2z"/>
						<path class="st1" d="M546.9,393.6c-2.3,0-3.3,0.1-3.4,0.1C545.7,393.7,547.4,393.6,546.9,393.6z"/>
						<path class="st1" d="M598.9,394.3c-1.1,0-2.1,0-3.1,0C597,394.3,598.1,394.4,598.9,394.3z"/>
						<path class="st1" d="M242.6,393.2l8.1,0.2C251.3,393.2,246.5,393.3,242.6,393.2z"/>
						<path class="st1" d="M3.9,209.8c0-1.7-0.1-3.1-0.2-4.4c0,1.4,0,2.8,0.1,4.1C3.9,209.6,3.9,209.7,3.9,209.8z"/>
						<path class="st1" d="M108.4,393.8h-2.5c-0.7,0.1-1.4,0.2-2.1,0.3L108.4,393.8z"/>
						<path class="st1" d="M5.5,393.9c2.3,0,3.1-0.5,4-0.8c-0.7,0.1-1.4,0.2-2.3,0.3c-0.4,0-0.9,0-1.3,0.1c-0.5,0-1.1,0-1.6,0
							c0,0.1,0,0.1,0.3,0.2C4.8,393.7,5.1,393.8,5.5,393.9z"/>
						<path class="st1" d="M1.6,232.9L1.5,230C1.5,230.8,1.6,232,1.6,232.9z"/>
						<path class="st1" d="M182.1,393.9c0.2,0.1,0.5,0.2,0.9,0.2C183.1,394,182.7,393.9,182.1,393.9z"/>
						<path class="st1" d="M114.3,109.8C114.4,109.7,114.3,109.7,114.3,109.8C113.8,109.5,113.6,109.5,114.3,109.8z"/>
						<path class="st1" d="M2.5,108.2l1.5-0.8c0.1-0.2,0.2-0.3,0.2-0.4L2.5,108.2z"/>
						<path class="st1" d="M694,395c-0.2,0-0.2,0-0.4,0C691,395.1,692.5,395.1,694,395z"/>
						<path class="st1" d="M1369.9,193c-0.5,9.9-0.6-16.1-1.2-1.2C1368.9,190.4,1369.6,205.3,1369.9,193z"/>
						<path class="st1" d="M3.9,212.5c0,1.4,0,2.8,0,4.2C3.9,214.8,3.9,213.5,3.9,212.5z"/>
						<path class="st1" d="M1368.7,191.8L1368.7,191.8l-0.1,1.5C1368.7,192.7,1368.7,192.3,1368.7,191.8z"/>
						<path class="st1" d="M913.1,394.7c-0.4-0.1-1.3-0.2-2.2-0.2C910.9,394.5,911.4,394.6,913.1,394.7z"/>
						<path class="st1" d="M749.8,393.9l4,0.1C752.3,393.9,751,393.9,749.8,393.9z"/>
						<path class="st1" d="M997.8,393.9c2.2,0,2.9,0.1,5.9,0c-0.3,0-0.6,0-0.9-0.1C1001.8,394,1000.3,394,997.8,393.9z"/>
						<path class="st1" d="M1086,393.9c-0.5,0-1.1-0.1-1.6-0.1c-0.9,0-1.9,0-2.8,0L1086,393.9z"/>
						<path class="st1" d="M368.5,104.9c-1.8,0.6-3,0.9-4,1.1C365.9,105.9,354,111,368.5,104.9z"/>
						<path class="st1" d="M3.6,209.9c0.1,0.5,0.2,1.3,0.2,2.6c0-1,0-2,0-2.9C3.8,209.3,3.7,209.3,3.6,209.9z"/>
						<path class="st1" d="M1001.4,389.5l14,0.1C1011.5,389.5,1006.4,389.5,1001.4,389.5z"/>
						<path class="st1" d="M923.5,102l-3.2,0.8C921.6,102.5,922.7,102.2,923.5,102z"/>
						<path class="st1" d="M1057,389.5c2.5,0.2,5.2,0.3,7.9,0.4c0.6,0,1.2-0.1,1.6-0.1L1057,389.5z"/>
						<path class="st1" d="M364.5,106L364.5,106L364.5,106z"/>
						<path class="st1" d="M279.7,142.6c12.3-5.1,5.5-3.1,8-4.5c14.6-6.3,7-2.3,12.2-4c9.1-4,15.9-7.5,22.8-10.3
							c0.6-0.1,1.9-0.6,0.4,0.2c9.5-4.6,28.9-12,39.9-17.3c0.9-0.3,1.3-0.4,1.5-0.4c-2,0.4-2.4,0.2-2.1-0.2
							c5.5-2.3,10.1-4.7,12.4-5.1c-3.4,1.4-3.6,1.7-5.1,2.5l5.7-2.6c5.5-1.5-7.8,3.5-7.6,4c2.8-1.2,5.7-2.5,8.6-3.8s5.8-2.5,8.8-3.6
							c5.8-2.1,11.5-3.6,16.1-4.4c0.5,0.1-0.6,0.4-2.3,0.8c-0.8,0.2-1.9,0.4-2.9,0.7s-2.1,0.6-3.1,0.8c-2,0.5-3.6,1.1-4,1.2
							c-0.4,0.2,0.4,0,3.4-0.7c-4.6,1.2-9.2,2.5-13.6,4.3c10.5-3-8.1,3.1,1.6,0.5c4.4-1.7,7.8-2.7,10.8-3.6c3-0.8,5.5-1.5,8.1-2.1
							c5.1-1.1,10.2-2.2,19.6-2.6c4.2-0.6-1.4-0.6,2.8-1c6.7-0.3,11.3,0,14.8,0.5c3.5,0.4,5.8,1,8,1.5c4.3,1.1,7.4,2.2,17.2,4.2
							c5.1,0.8,7.3,0.4,20.9,4.3l-5-0.6c17.9,4.5,10.5,1.4,29.2,6.6c-3.4-0.5-14.2-3.2-11.5-2.5c12,3.6,8.7,1.7,18.1,4l1.8,1.1
							c9.6,2.3,19.6,4.6,30,7c2.6,0.6,5.2,1.2,7.8,1.8c1.3,0.3,2.6,0.6,3.9,0.9c1.3,0.3,2.6,0.6,4,0.9c1.4,0.3,2.7,0.6,4.1,0.8
							c1.4,0.2,2.7,0.4,4.1,0.6c2.8,0.3,5.5,0.5,8.3,0.6c-1.2,0.2-5.1,0.2,0.1,0.6c14.1,0.3,29.2-2.8,42.6-9.5
							c3.3-1.7,6.6-3.5,9.7-5.6l2.3-1.5c0.8-0.5,1.5-1.1,2.2-1.6c0.7-0.6,1.5-1.1,2.2-1.7c0.7-0.6,1.4-1.1,2.1-1.7
							c5.5-4.4,10.9-8.7,16.1-12.9l7.4-6.9c1.8-1.5,3.5-2.6,1.6-0.9c8.1-6.4,0.2-0.6,3.9-4c4.5-3.8,6.2-4.7,3.4-2.2
							c13.8-12,39.4-33.8,54.6-45.5l-2.8,2.5c11.7-9.3,12.3-11.7,23.3-20l-2,1.8c1.6-1.3,3.2-2.6,4.7-3.8c1.5-1.1,3.1-2,4.9-2.6
							c3.6-1.2,7.5-1.2,11.1,0.1c1.8,0.6,3.4,1.5,4.9,2.7c0.4,0.3,0.8,0.6,1.2,0.9l1.2,1l2.4,2c3.1,2.7,6.3,5.3,9.3,7.9
							c12.3,10.5,23.8,20.3,32.9,28.7c4.1,2.4,24.2,21.1,26.6,21.6c6.9,6.2,9.3,8.5,12.4,11.4c0.8,0.7,1.6,1.5,2.6,2.3
							c1,0.9,2.1,1.8,3.5,3c2.8,2.2,6.7,5,12.7,8c3.2,1.6,5.9,2.4,8.7,3.1c1.4,0.4,2.9,0.6,4.5,1c1.7,0.3,3.5,0.7,5.7,1l0.1,0.6
							c2,0.3,4,0.4,6,0.5c2,0,4,0.1,6-0.1c2.1,0.3,4.3,0.4,6.4,0.5l4.2-0.6l4.1-0.8c-1.6,0.3-3.4,0.5-4.7,0.6s-2.1,0-1.9-0.1
							c3.2-0.4,6.8-1.1,10.2-1.9c1.7-0.4,3.4-0.7,5.1-1.1c1.7-0.4,3.3-0.8,4.8-1.1c3-0.7,5.7-1.4,7.6-1.8c1.9-0.5,3.1-0.7,3.2-0.6
							c9.5-3.1,18.9-6.7,28.2-10.1c-0.5,0.5-5.2,2.2-8.9,3.6c14.8-5.8,2.9-0.4,16.5-5.7c-1.9,0.5,0.9-0.7,1.2-0.9
							c3.5-1,9.2-2.7,15.5-4.4c1.6-0.5,3.2-0.8,4.8-1.2s3.3-0.8,4.9-1.2c3.3-0.6,6.5-1.4,9.5-1.7l-2.2,0.7c10.7-1.7,22.2-2,33.8-0.6
							c11.7,1.5,23.7,4.4,35.5,7.7c-4.2-1.4-5.8-1.9-5.5-2.1c0.4-0.1,2.7,0.2,6.2,1.2l2.6,1.4c4.6,0.9-7.2-2.3,2.2-0.1
							c4.4,1.3,5.9,2,5.5,2.1c-0.3,0.1-2.4-0.3-4.9-1c3.6,1,7.2,2.1,10.8,3.1c0.6,0.4-2-0.3-2.7-0.3c2.3,0.5,6.8,2.1,11.6,3.9
							c4.8,1.7,9.8,3.6,13.1,4.3l0.5,0.4c11.7,4.2,20.1,7.3,28,10.2c7.9,3,15.2,5.8,24.6,9.6c0.6-0.4,7.9,2.7,13.6,4.6
							c3.4,1.5,6.9,3,10.5,4.6c3.7,1.6,7.7,2.9,11.8,3.9c8.3,1.9,17.4,2.2,26.6,0.3c3.2-0.7,5-1.3,6-1.7s1.2-0.5,1.2-0.6
							s-0.2-0.1-0.1-0.2c0.1-0.1,0.6-0.3,1.9-0.9c0.3,0,1.6-0.3,3.2-0.9c1.6-0.6,3.5-1.4,5.1-2.1c3.2-1.3,5.2-2.2,1-0.1
							c19.5-9,25-11.5,49.5-23.2c-2.8,1-5.8,2.3-4.3,1.5c4.5-2.1,10.3-4.5,9.8-4l-1.2,0.6c8.9-4.3,18.7-8.8,28.8-13.2
							c5-2.2,10.1-4.4,15.1-6.6c2.5-1.1,5-2.2,7.4-3.2c0.6-0.3,1.2-0.5,1.8-0.8l0.8-0.4l0.2-0.1c0.3-0.1,0.5-0.2,0.8-0.3
							c0,0.3,0,0.6-0.1,0.9v0.1v0.3v1c0,0.7,0,1.4,0,2.1c0,2.7,0,5.4,0,8c0,5.2,0.1,10,0.3,14.3l-0.1-1.4l0.6,25.2
							c-0.1,11.6-0.4-7-0.7,1.6c0.9,27.2-0.1,43,0.4,65.4c-1.5,17.3,0.1,61.6-0.9,85l0.4-1.4c0.3,6.1-0.2,7.3-0.3,11.8
							c0.3-0.6,0.3-6.6,0.5-2.8c0.1,17.6,0.1,35.7,0,53.9c-0.1,9.1-0.1,18.3-0.2,27.4c0,4.6-0.1,9.2-0.1,13.8l-0.1,6.9v3.4v0.2v0.1
							v0.1v0.2h-0.4h-3l-6.2-0.1c-4.1,0-8.3-0.1-12.4-0.1c-8.3-0.1-16.5-0.1-24.7-0.2c-19.2-0.1-10.9,1.8-35.1,1l6.9-0.7
							c-38.8,0.8-79.3,0-117.3,0.6c2.3-0.2,2.3-0.4,6-0.3c-4-0.2-11.4-0.2-17.9-0.1c-3.2,0.1-6.2,0.1-8.4,0.2
							c-2.2,0.1-3.6,0.2-3.6,0.3c-5.9,0-1.4-0.4-5-0.6c-8-0.3-20.2,0.6-24.5,0.1c-0.7-0.1,2.3-0.2,3.7-0.2
							c-5.2,0.2-24.4-0.1-19.4,0.5c-14.3-0.3-27.3,0.2-38.6-0.1c-7.4,0.6-24.4-0.3-26.8,0.6c1-0.9-25-0.7-34-0.3
							c3-0.3-7.8-0.3-4.3-0.7c-10.3,0-19.7,0.2-17.9,0.6c-18.9-1.1-38.1,0.9-48.8-0.5c-30.6,0.5-58.8,0.8-86.3,1
							c1-0.9,30.4-0.1,29.2-1c-26.1,0.4-41.1,1.1-67,0.9c-6.7-0.1,3.8-0.4,6.1-0.5c-26,0.4-50.4-0.1-73.5,0.4
							c0.1-0.1,2.6-0.2,4.9-0.2c-4.6,0-10.6-0.1-10.1,0.3l4.5-0.1c7.3,0.6-18.1,1.2-19,1.6c7.8-1.2-22.9-0.3-10.6-1.8
							c-3,0.1-6.8,0.3-6.1,0.5c-4.5-0.1-5.9-0.2-1.4-0.6c-16.4,0.2-10.5,0.7-25.4,0.6c0.1-0.2,3-0.3,4.6-0.5
							c-7.5,0.4-15,0.8-27.6,0.6c0.8-0.1-0.7-0.3,3-0.3c-21.5,0.1-36.7,1-60.3,0.7c7-0.9-8-0.3-9.3-1l-12.7,0.2l5.1,0.4
							c-11.1,0-20.9,0.5-30.5,0.3l8.3-0.3l-20.8,0.1l11.8,0.3c-11.2,0.4,1.2,0.9-13.6,0.7c3-0.1-11.1,0-16.9-0.4l0,0
							c-5.5,0.2-11.2,0.5-19.4,0.3c-2.1-0.2,1.7-0.8,0.3-1c-5.4,0.6-26,0.2-32.9,0.8c2.3-0.2,2.4-0.5,1.7-0.6l-4.6,0.5
							c-5.1-0.2-5.9-0.2-5.1-0.6c-15.5-0.1,4.9,0.9-13.5,0.5c1.4,0,0.8-0.1,3.8-0.2c-18.5-0.2-35.7,0.3-52.6,0.1
							c-5-0.8,14.8-0.2,9.1-0.8c-24.5,0.1-50.7,0.9-74.3,0.7l4.4,0.1c-3.3,1.1-17.6-0.5-29.6,0c2.9-0.1,3.8-0.6,3.1-0.5
							c-16.2-0.2-33.1,0.3-57.7,0.6l3-0.3c-9.6-0.2-25.2-0.1-35.5-0.3c-3.1,0.3-9,0.2-5.4,0.6c-31.8-1.6-60.7,0.8-88.9-0.5
							c3.4,0,8-0.2,5.4-0.2l-24.1,0.3c1.9,0.5,3.2,0.3,8.2,0.6c-3,0.3-9.8,0.5-15.8,0.5c10.8-0.3-0.1-0.7-4.8-1
							c0.8,0.1-0.8,0.3-0.4,0.4c-12.6-0.8-2.1,0.9-19.3,0.4l0.9-0.2c-6.4,0.1-12.3,0.4-19.3,0.4c-2.9-0.5,6.8-0.2,7.3-0.7
							c-9.7,0-19.2,1-28,0.5c4.1-0.1,10.1-0.2,14.2-0.3c-9.6-0.6-10.7-0.5-17.8-0.6h0.7l-16.5-0.3l4.2,0.2c-3,0.3-6.1,0.5-9.2,0.6
							s-6.6,0.1-9.2,0.1c0-1.5,0-3,0-4.6c0-1.8,0-3.6,0-5.4c0-3.7-0.1-7.6-0.3-11.7c0.8,15.9,0.5,2.6,1.1,3.9
							c0.2-4.2,0.4-10.5,0.6-8.7c-0.5-7.7,0.4-12.9-0.2-23.9c0.2-0.5,0-8.3,0.5-6.5c-0.1-10.1-0.3,2.4-0.6,1.5
							c-0.6-15.5,0.9-36.5,0.1-58.8c-0.3-19.3-1-22.8-1.2-40.7c0.3-6,0.7,4.9,0.7,4.9c0.3-9.7,0.3-17.1,0.1-26.2
							c0.2,1.9,0.3-0.1,0.5-2.8c0-7.4-0.7-4.9-0.4-14.6c0.2,1.7,0.6,3.8,0.8,7.4c-0.2-8.7-0.4-17.2-0.6-26.2
							c0.3-2.4,0.5,5.4,0.7,8.6c-0.1-10.1-0.2-26.1-0.7-29.3L2.5,164c0-3.7,0.5-1.9,0.6,0.8c0.4,8.6-0.2,12.5-0.4,13l-0.1-6.4
							c-1.2,6.6,0.1,25.7,0,38.5l-0.8-5.4l0.6,13.2c-0.2,2.8-0.7,4.7-0.8-1.6c-0.4,9.2,0.3,8.2-0.2,16.1c-0.1,0.9-0.1,0.5-0.1-0.3
							l0.2,9c-0.2-1.8-0.6,1.5-0.5-4c-0.5,16.2,0.5,26.1-0.1,32.2v-1.4c0.2,22.5,0.6,2.2,1.3,19L0.7,298l0.6,2.2
							c0,2.3-0.1,6.9-0.3,6c0.4,8.6,0.3-1.5,0.6,3.5c-0.6,11.1,0.2,30.7-0.8,33.2c0.4,4,0.4-10.7,0.7,1.2
							c-1.1,3.4,0.1,13.8-0.4,23.9c-0.5-3.1-0.2-12.8-0.7-2.6c0.4,2.8,0.4,7,0.3,11.7c-0.1,2.3-0.2,4.7-0.2,7.1
							c0,1.2-0.1,2.4-0.1,3.5c0,1.6,0,3.1-0.1,4.5c1.4,0,2.6,0,3.9,0c0.3-0.2,1.5-0.3,3.5-0.4s4.8-0.1,8-0.1c6.4,0,14.6,0,21.8-0.1
							c-0.9,0.2,27.1,0.4,40.5,0.7l-0.4,0.1c2.6-0.7,16.4-0.6,26.5-0.7c-0.4,0.4-2.2,0.6-7.7,0.8h9.5c2.2-0.2,5.2-0.4,11.3-0.4
							l-2.4,0.5c12.6,0,25.4-0.6,41.6-0.3c0.9-0.5-12.9-1.4,4.2-1.8c0.6,0.3,1.3,0.8-3.2,0.9c1.5,0,5.2-0.2,8.2-0.1l-6.8,0.5
							c7.4,0.2,3.9-0.4,9.8-0.3c-0.1,0.4,4.4,0.3,3.5,0.6c-1.5,0-5.1-0.2-7.4,0c6.7,0.1,14.7,0.3,17.4,0.6c-0.6-0.2,0-0.5,4.9-0.6
							c12.6,0,4.3,0.5,11.7,0.7c3.1-0.3,11.1,0,11.3-0.6c3.7,0,4.4,0.3,5.8,0.4c6.5-0.3,30.5-0.1,23.1-0.7h-1.7c0.3,0,0.7,0,1.1,0
							c-0.1,0,0,0-0.1,0h0.1c21.4-0.6,44.4,0.3,65.6,0.1v0.2c12.7-0.2,28.2-0.1,37.2-0.6c3.7,0,8.8,0.4,7.2,0.6
							c9.7-0.1,10.8-0.4,24.7,0c-9.7,0.3,3.4,0.3-10,0.3c12.6,0.2,15.4,0.5,28.9-0.1c-4.6,0.5,9.5,0.6,15.4,0.5l-8.8-0.4
							c6.7-0.1,12.6,0,18.6,0l-3.2,0.7c25.7,0.8,46.4-1.4,66,0c6.8-0.5-14-0.3-7.9-0.9c11.8,0.1,24.2,1,27.9,1
							c16.2,0.4,15.1-1,32.1-0.7c-2.2-0.2-4.2-0.9,8.5-1.1c11.8,0.1,14.6,1,7.1,1.2c-2.8,0-4.2-0.1-4.1-0.1
							c-3.8,0.1-8.8,0.2-4.2,0.4l1.5-0.2c5.9,0.2,22.2,0.2,18.3,0.6c9-0.2,3.8-0.4-2.8-0.5c15.2,0.3,23.7,0,39.4,0.2
							c-2.5-0.1-4.8-0.4-2.3-0.4c22.9,0.3,10.1-0.5,25.6-0.6c8.8,0.4-3.2,0.9,12.5,0.6c9.6,0.2,2,0.6-1.8,0.8
							c14.3-0.5,26.6,0.3,34.8,0.4l-7.5,0.2c4.5-0.1,8.2-0.1,11.9-0.1l-4.3-0.5c4.4,0.1,8.1,0.1,8.1,0.3c4.5-0.3-3.5-0.8,5.5-1.2
							c5.9,0.2,17.9-0.3,19.9,0.4c-18.5-0.2,2,0.6-13.6,0.7c3-0.1,6.7-0.1,11.1,0c0.7,0.1-0.6,0.1-1.8,0.2
							c17.7,0.6,8.1-0.7,26.5-0.7c-2.3,0.4,4.2,0.7,7.2,0.6c-7.4,0-3.5-0.6,3.2-0.9c11.8,0.3,12.8-0.2,18.9-0.2l-7-0.1
							c2.4-0.4,8.3-0.3,16.5-0.4c0.7,0.3-7.4,0.2-4.5,0.3c9.1-0.6,20.6,0.6,33.2,0.2c5.9,0.2,0.6,0.7,5.7,0.8
							c14.2-0.5,15.4,0.5,30.3,0.1c-4.3-0.5-5.1-0.4,5.5-0.8l-24.6,0.3l15.8-0.7c-7.4,0-15.6,0.3-20.1,0.2c7.5-0.4,6.7-0.3,3.2-0.7
							c10.1,0.7,20.1-0.4,31.8,0.1l-0.4,1.2c17.6,0.5,31.3-0.6,54.2-0.3l-7.4-0.2c3.1-0.5,14.1-0.1,21.5-0.3
							c-0.7,0.4,3.9,0.5,7.1,0.8c-0.4-0.3,16.8,0,18.8-0.8l10.2,0.5c18.5,0.2,21.1-1.1,38.9-1c-5.4,0.4,2.7,0.7-9.2,1
							c5.9,0,11.3,0.1,11.4-0.2c3.5,0.2,16.5-0.5,21.9-0.2c2.5-0.2,3.3-0.6,10-0.6c0.7,0.1,0,0.2,0,0.2c0-0.2,10.4-0.3,4.6-0.7
							c18.3,1.2,51.1-0.1,67,1c12.9-0.1,28.5-0.3,40.3-0.3c-0.8,0.1,0,0.2-2.3,0.2c16.2,0.4,10-1.1,28.4-0.7
							c9.4,0.6-9.8,0.3-3.9,0.6c2.6,1.3,22.3-0.2,34.7,0.6l-3,0.1c9.5,0.4,23.2-0.5,38.7-0.4c0,0-0.8,0.1-0.1,0.2
							c10.6-0.7,30.7-0.9,45.6-1.1c-4.6,0.5-6.8,0.3-3.9,0.8c6.7-0.1-2-0.8,11.4-1c4.3,0.3,14,0.5,15.2,1.1h-12.6
							c6.4,0.7,16.3,0,22.9,0.1l-0.8,0.3c19.3-0.1,19.6-0.9,40.3-0.8l-2.1-0.2c11.3-0.8,9.5,0.4,20.8-0.1l3.4,0.8
							c1.1,0,2.4-0.1,4.1-0.1c0.8,0,1.8,0,2.8-0.1c1.4,0,2.9,0,4.6-0.1c-0.1-4.2-0.2-9.6-0.4-15.3c-0.1-5.2-0.2-10.6-0.3-15.4
							c0.3,3.4,0.5,8.4,0.6,13.7c0.1,2.7,0.2,5.4,0.2,8.1c0,1.3,0.1,2.7,0.1,3.9c0,1.9,0.1,3.7,0.1,5.4c-2.1,0-3.8,0.1-5.4,0.1
							c1.5,0,3.4,0,5.5,0c0-2.7,0-5.7,0-8.9c0-2.5,0-5.1-0.1-7.6c-0.1-4.9-0.2-9.1-0.3-10.8c0.1,3,0.3,6.8,0.1,9.7
							c-0.6-9.1-0.9-21.1-0.9-35.8c1.5,2.6,0.4-38.5,1.6-49.2c-0.6-26.1,0.2-51.8,0.2-82.3c-1.2,10.8,0-8.9-1.3-7
							c-0.1-7.1-0.1-9.8,0-10.4l0.7-21.5c0.4-5.1,0.3,6.7,0.5,6.1c0.1-15.5,0.5-6.5,0.8-16.8c-0.4,2.1-0.6-5.4-0.5-14.2l-0.6,12.5
							c-0.7-21.7,1-18.8,0.4-40.6l0.4,6.9c-0.1-5.6-0.1-16-0.2-26.3c0-5.2-0.1-10.3-0.2-14.9c-0.1-2.3-0.1-4.4-0.2-6.3
							c-0.1-2.5-0.2-4.7-0.3-6.6c0.1-1.6,0.2-3.7,0.3-4.4l0,0c-0.1,0-0.1,0,0-0.1s0.1,0,0.1,0.1s0,0.2,0,0.4c0,0.7,0.1,2,0.1,4.2
							c0-1.6,0-3.2,0-5c-4.2,1.9-8.4,3.9-12.8,5.9c-3.1,1.4-6.2,2.9-9.4,4.4c-6.3,3-12.6,6-18.8,8.9c-12.3,5.9-24,11.3-33.3,15.3
							l1.7-1.1c-4.5,2.2-7.7,4.1-13.5,6.5c0.2-0.2,1.7-1.1-0.4-0.2c-2.4,1.2-11.9,6-18,8.6l5-2.7c-6,2.6-11.2,5-16.1,7.3
							c-2.4,1.1-4.7,2.3-6.9,3.2c-1.1,0.5-2.2,0.9-3.3,1.3c-1.1,0.4-2.2,0.8-3.3,1.1c-4.4,1.4-8.8,2.2-13.5,2.6
							c-4.7,0.3-9.6,0.2-14.8-0.8c0.1-0.2-1.1-0.7-3.1-1.3c-1.9-0.7-4.6-1.5-7.4-2.8c-1.4-0.6-3-1.3-4.5-2c-1.6-0.7-3.1-1.4-4.7-2.1
							c-3.1-1.3-6.1-2.6-8.4-3.6h0.4c-14.1-5.8-26.2-10.4-38.2-14.7c-12-4.2-23.7-8.2-37.2-12.5c-8.2-3.2-22.3-7.9-38.1-11.9
							c-2-0.5-4-0.9-6-1.4c-1-0.2-2-0.5-3-0.7l-3.1-0.6c-2.1-0.4-4.1-0.8-6.2-1.2c-2.1-0.3-4.1-0.6-6.2-0.9
							c-8.3-0.9-16.4-1.3-23.5-0.8c2.2-0.1,2,0.1,0.7,0.4c-1.3,0.3-3.9,0.5-6.4,1c-6.8,0.4-18,4-17.2,3l2.3-0.5
							c-1.3,0.1-3.1,0.4-5.2,0.8c-2.1,0.4-4.6,1.1-7.2,1.8c-2.6,0.7-5.3,1.6-8.1,2.5c-2.7,0.9-5.4,1.8-7.9,2.7l-1.3,1.6
							c-6.7,1.9-14.3,4.5-22.2,7.1s-16.1,5.1-24.1,7.2c-4,0.9-7.9,1.9-11.6,2.5c-0.9,0.2-1.8,0.2-2.7,0.3s-1.8,0.2-2.7,0.2
							s-1.8,0.1-2.6,0.1c-0.9,0-1.7,0-2.5,0c-6.6-0.1-12-1.2-15.4-2.5c-6.4-1.2-13.8-4.4-19.4-7.6l0.6-0.3c-3.8-2.3-6.8-4.8-9.7-7.2
							c-2.9-2.5-5.6-4.8-8.5-7.3c-5.7-4.9-11.8-10.1-20.6-17.4l3.8,2.7c-9.8-8.4-13.5-9.3-22.6-17l-2.2-3
							c-8.6-7.3-17.1-14.8-25.7-22.2c-2.1-1.8-4.3-3.7-6.4-5.5l-3.2-2.7l-1.6-1.4c-0.6-0.5-1-0.9-1.7-1.4c-5-4-11.9-5.4-17.9-3.8
							c0.2-0.1,0.4-0.3,1.2-0.5c0.7-0.2,1.9-0.5,4-0.4c-1.5,0-3.4,0-5.4,0.5s-4.2,1.3-6.3,2.6l-0.8,0.5l-0.8,0.6l-0.8,0.6l-0.7,0.5
							c-0.9,0.7-1.7,1.4-2.6,2.1c-1.7,1.4-3.5,2.8-5.1,4.2c-6.5,5.4-11.6,9.7-9.7,8.9c-0.7-0.4-18,14.7-27.2,22.7l1.1-1.6
							c-7.5,7.1-7.6,7.4-18.6,16.7c-2.7,2.1-2.6,1.5,1-1.2c-8.9,7-6.5,6-17.3,14.5l3.7-3.5c-9,7.4-8.2,6.9-12.9,11.3
							c-5.5,4.8-17.2,13.9-18.8,14.6c-0.5,0.6-1.9,2-3.9,3.8c-2,1.7-4.5,3.8-7.4,5.6c-0.9,0.4,1.1-1.1,2.1-1.9
							c-7.9,5.4-14.4,8.5-20.3,10.9c-5.9,2.3-11.5,3.8-18,4.4c-0.3-0.1-1.2-0.1-2.2,0c7.6-0.8,14.2-2.6,18.8-4.2
							c2.3-0.8,4-1.5,5.2-2c1.1-0.5,1.6-0.7,1.4-0.6c-0.1-0.1-0.8,0.1-1.7,0.4c-1,0.3-2.1,0.6-3,0.9c-1.8,0.5-2.4,0.5,2-1.5
							c-4.4,2.1-10.6,4.3-17.4,5.7c-6.8,1.4-14,1.8-19.9,1.2c-0.6-0.1-1.1-0.2-1.6-0.3l1.2,0.1c-1.4-0.2-2.7-0.3-3.9-0.4
							c-1.2-0.2-2.4-0.3-3.6-0.4c-1.9-0.3-3.4-0.7-4.9-1.1c-1.5-0.3-3-0.7-4.8-1.2c-1.3-0.8-13.9-3.6-19.9-5.2
							c0.4,0.7-7.5-1.4-0.2,0.9c-1-0.3,1.2,0.2,5.2,1.2c0.9,0.2,2,0.5,2.6,0.6c-0.1,0-0.3,0-0.4-0.1c4,1,9.2,2.2,15.1,3.7
							c-4.9-0.9-9.9-1.9-16.5-3.8c-3.2-0.4-6.7-0.9-8.7-1.2c-8.1-2.8-24-7.1-26.1-8.2c-18.6-4.2-43.6-10.6-55.5-12.3
							c-2.7-0.6-4.2-0.9-5.3-1.2c-1.1-0.3-1.8-0.6-2.8-0.8c3.1,0.4,6.8,1.1,8.5,1.4c-5.4-1.1-13.4-2.4-20.5-2.7s-13.1,0.1-14.4,0.5
							c-3.4,0.1-4.7,0.2-4.9,0.1c-0.2-0.1,0.6-0.2,1.2-0.3s1.1-0.2,0.3-0.1c-0.4,0-1.2,0.1-2.4,0.2c-0.6,0.1-1.4,0.1-2.2,0.2
							c-0.9,0.1-1.9,0.3-3.1,0.4l2.5-0.6c-9.3,0.9-17.7,2.8-25.3,5.5c-1,0.3-1.9,0.7-2.8,1c-0.9,0.4-1.9,0.8-2.8,1.1
							c-1.9,0.7-3.6,1.5-5.4,2.3c-3.5,1.6-7.1,3.1-10.6,4.7c-14.2,6.3-28.8,12.8-48,19.9c2.7-1,4-1.5,4.6-1.6
							c-10.8,4.3-21.8,8.8-32.8,13.4c-2.7,1.1-5.5,2.3-8.3,3.4l-4.1,1.7c-1.4,0.5-2.7,1.1-4.1,1.6c-5.6,2-11.3,3.4-17.2,4.3
							c-11.7,1.8-23.7,1.2-35.1-1.7c-5.7-1.4-11.1-3.5-16.5-5.7s-10.8-4.3-16.1-6.5c-12.1-4.9-13.6-4.9-21.2-7.5l-2.4-1.6l-13-4.2
							c-18.3-6.4-30.8-13.4-54-21.2l2.8,1.5c-4.1-1.6-10.6-4.1-16-6s-9.8-2.8-9-2.9c-0.4-0.1-1.2-0.1-2.2-0.2
							c-0.5-0.1-1.1-0.1-1.8-0.3c-0.7-0.1-1.5-0.2-2.3-0.4l-0.2-0.3c-3.6-0.3-7.3-0.5-11-0.2c-3.6,0.2-7.3,0.6-10.8,1.4
							c-4.2,0.7-6.1,1.2-7,1.3s-0.9,0-1.1-0.1c-0.2-0.1-0.6-0.2-2.5,0.4c-0.9,0.3-2.2,0.6-4,1.3c-0.9,0.3-1.9,0.7-3,1.3
							c-1.1,0.5-2.4,1.1-3.8,1.8C13.2,98.8-1.4,107,1.7,105.7c3.3-1.6,8.5-4,8.9-3.9l-7.4,3.9c-0.9,1.5-6.2,5.2,12.3-3.3l6.2-3.4
							l3.1-1.7l3.1-1.6c1.4-0.4,2.9-0.9,4.3-1.2c-3.7,1.3-7.1,3-10.7,4.8c3.2-1.3,5.5-2.5,7.8-3.5c1.1-0.5,2.2-1,3.2-1.4
							c1.1-0.4,2.1-0.9,3.2-1.3c0.6,0,1.3-0.2,2.3-0.3c1-0.2,2.1-0.3,3.4-0.6c4.3-1.2,8.8-2,13.4-2.3c0.8,0.2-0.7,0.4-1.3,0.6
							c-0.3,0.1-0.3,0.2,0.2,0.2c0.6,0.1,1.8,0,4.1,0.2c1.6-0.1,2-0.1,1.9-0.2c-0.1-0.1-0.7-0.3-1.2-0.3c-0.5-0.1-0.9-0.2-0.5-0.3
							c0.2,0,0.6-0.1,1.3-0.1s1.6,0.1,3,0.1c3.3,0.6,4.4,1,5.7,1.3c1.3,0.3,2.7,0.6,6.5,1.4c1,0.6-0.6,0.1-3.6-0.4
							c0.8,0.2,1.8,0.3,2.7,0.6c0.9,0.3,1.9,0.5,2.9,0.8c2,0.6,4,1.3,6.1,2.1c4,1.5,7.6,2.8,9.4,3.2c6.4,3,22.5,8.5,21.5,9
							c2.2,0.6,11.9,3.8,18,6.1c-11.5-3.3,22.8,8.8,19.5,8.7c8.6,2.3,29.9,11,44.7,16.1c-0.8-0.2-2.5-0.7-3.8-1.3
							c4.1,1.6,6.7,2.7,9,3.7c1.1,0.5,2.2,0.9,3.2,1.4c1.1,0.5,2.3,0.9,3.6,1.5c0.2,0,0.5,0,1,0.1s1.2,0.2,2,0.4
							c0.8,0.2,1.7,0.4,2.7,0.6s2.1,0.4,3.2,0.6c4.5,0.9,9.8,1.5,13.6,1.6c5.4,0.8,3.8,0.8,1.1,0.9c-2.6,0-6.2-0.2-4.5,0.4
							c-0.1-0.2,1-0.2,2.7-0.1c0.9,0.1,1.9,0.1,2.9,0.1c1.1,0,2.2,0.1,3.3,0c4.4,0,8.4-0.4,6.5-0.6c2.1,0.1,3.6,0,4.8-0.1
							c1.1,0,1.9-0.1,2.6-0.1c1.3-0.1,2.1-0.1,4.3-0.1c0.3-0.3,1-0.6,1.9-0.8c0.4-0.1,1-0.2,1.5-0.3c0.6-0.1,1.2-0.3,1.8-0.4
							c1.3-0.3,2.8-0.6,4.3-1.1c0.8-0.2,1.6-0.5,2.4-0.7c0.8-0.3,1.6-0.6,2.4-1c0.7-0.2,1.4-0.4,2-0.6s1.1-0.3,1.5-0.5
							c0.9-0.3,1.6-0.5,2.1-0.6c1.1-0.3,1.5-0.4,1.9-0.5c0.9-0.2,1.9-0.6,7.9-3.2C290.3,137.8,279.7,142.6,279.7,142.6z
							 M577.4,122.9L577.4,122.9c-2.7,0-5.1-0.3-6.5-0.4C572.2,122.6,574.1,122.8,577.4,122.9z M603.8,119.7
							c-3.1,0.8-7.1,1.8-11.3,2.3c-1-0.1,0-0.4,2.7-0.8C593.7,121.6,599.9,120.7,603.8,119.7z M549.3,114c4,0.9,5.4,1.4,5.9,1.6
							c-1.9-0.5-4.1-1-7.1-1.7c-0.1,0-0.4,0-0.5-0.1C548.1,113.8,548.5,113.8,549.3,114z"/>
						<path class="st1" d="M541.9,112.9c-0.6-0.1-0.9-0.2-1.7-0.4c0.8,0.2,1.6,0.5,2.4,0.7c0.5,0.1,1,0.1,1.5,0.2
							C543.3,113.2,542.6,113.1,541.9,112.9z"/>
						<path class="st1" d="M238.9,393.1h0.6c-0.5,0-0.9,0-1.2-0.1C238.6,393.1,238.6,393.1,238.9,393.1z"/>
						<path class="st1" d="M893.6,103.3v-0.1c-0.8-0.1-1.6-0.2-2.4-0.3C892,103,892.8,103.2,893.6,103.3z"/>
						<path class="st1" d="M94.5,391.2c-0.3,0-0.8-0.1-1.9-0.1C92.7,391.1,93.5,391.2,94.5,391.2z"/>
						<path class="st1" d="M32.1,391.1l-8.8-0.2C27.1,391,29.9,391,32.1,391.1z"/>
						<path class="st1" d="M3.2,374.9C3.1,374.3,3,374.1,3,374v0.1L3.2,374.9z"/>
						<path class="st1" d="M746.5,390.1c0.6,0,1.3,0,1.8,0C752.7,390,749.8,390,746.5,390.1z"/>
						<path class="st1" d="M519.7,391.5c2.4-0.1,4.8-0.2,7.3-0.3C522.9,391.1,519.8,391.1,519.7,391.5z"/>
						<path class="st1" d="M999.9,389.5C999.8,389.5,999.9,389.5,999.9,389.5c0.5,0,1,0,1.5,0H999.9z"/>
						<path class="st1" d="M537.5,391.2c-4-0.1-7.4-0.1-10.5,0C530.3,391.2,534.2,391.3,537.5,391.2z"/>
						<path class="st1" d="M4.1,167.1v-2.3c0,0-0.1-0.1-0.1-0.3L4.1,167.1z"/>
						<path class="st1" d="M4.1,164.5L4,161.9C4,163.1,4,164.1,4.1,164.5z"/>
						<path class="st1" d="M3.9,156.5l0.1,5.4C4,160.1,4.1,157.8,3.9,156.5z"/>
						<path class="st1" d="M3.7,230.6l0.2,0.7C3.8,230.9,3.8,230.6,3.7,230.6z"/>
						<path class="st1" d="M3.7,249.8c0.1-4.6,0.5-11.5,0.4-18l-0.2-0.5C4.2,234.3,3.3,245.5,3.7,249.8z"/>
						<path class="st1" d="M0.9,330.3l0.2-16.2c-0.2,2.8-0.5,6.5-0.6-0.8C-0.2,333.7,1,309.2,0.9,330.3z"/>
						<path class="st1" d="M0.4,380.5c-0.1-8.7-0.3,0.1-0.4-0.4C0.1,385.6,0.1,386.9,0.4,380.5z"/>
						<path class="st1" d="M351.9,393.6l-0.9,0.5C357.8,394,351.1,393.9,351.9,393.6z"/>
						<polygon class="st1" points="421.2,390.9 414.7,390.6 411.6,391.1 						"/>
						<polygon class="st1" points="462.1,394.6 459.1,394.7 470.3,394.5 						"/>
						<path class="st1" d="M1070.3,394.4l-2-0.6C1063.8,393.9,1062.8,394.6,1070.3,394.4z"/>
						<path class="st1" d="M1332.9,393.8c2.9,0.3,10.2,0.5,14.8,0.2C1341.8,393.9,1335.9,393.7,1332.9,393.8z"/>
						<polygon class="st1" points="961,86 965.9,84 956.5,87.4 						"/>
					</g>
				</g>
			</g>
		</g>
	</g>
</g>
</svg>
