<svg id="Layer_1" xmlns="http://www.w3.org/2000/svg" viewBox="0 0 1363.4 7.6">
  <path class="hill--stroke" d="M-1.9-3.7c-.1-.1-.2.2-.4 1 0 1.1.1 1.9.3 2.5.1.3.2.5.3.8.1.3.2.6.2.8-.1-.9-.2-1.5-.3-2.4-.1-.8-.1-1.8-.1-2.7zM-2-18.1c-.1-8.5-.3.1-.4-.3.2 5.4.2 6.7.4.3zM.6-24.4v.1l.2.8c-.1-.6-.2-.8-.2-.9z"/>
  <path class="hill--stroke" d="M573 5.8h-3c1.1 0 2.3.1 3 0zM90.3 5.4c-.5.1-.9.1-1.3.2l4.4-.3h-1.1c-.4 0-.8.1-1.2.1h-.8zM232.5 4.9c.6-.2-3.6-.1-7.4-.2l7.4.2zM522.2 5.1c-2.3 0-3.2.1-3.3.1 2.1 0 3.8-.1 3.3-.1zM166.4 5.6c0-.1-.4-.2-.8-.2.1.1.4.2.8.2zM665.2 6.5h-.5c-.9.1-.4.1.5 0zM880.2 6.2c-.3-.1-.8-.1-1.3-.2h-.3c.3.1.8.2 1.6.2zM963.1 5.4c1.5.1 2.6.1 3.5 0h-3.5zM967.6 5.4c-.3 0-.6.1-1 .1h2.3-.3-.1c-.3-.1-.6-.1-.9-.1zM720.6 5.4l3.9.1c-1.5-.1-2.8-.1-3.9-.1zM1045 5.3l4.3.1c-.5 0-1.1-.1-1.6-.1h-2.7zM729.6 5.3c-.6 0-1.1 0-1.7.1.7-.1 1.3-.1 1.7-.1zM725.9 5.4c.7 0 1.4-.1 2-.1-1.8.1-3.7 0-2 .1z"/>
  <path class="hill--stroke" d="M-.2 4.6h11.3c4.3 0 8.9 0 13.1-.1-.9.2 26.5.4 39.6.7l-.4.1c2.5-.7 16.1-.6 25.9-.7-.4.4-2.2.6-7.5.8h8.5c.2 0 .5-.1.7-.1h1.3c2.1-.2 4.9-.3 9.9-.3l-2.3.5c12.3 0 24.8-.6 40.7-.3.7-.4-6.5-1-3.5-1.4H-.2v.8zM145.2 3.8c-.1.2-.9.4-3.5.5 1.4 0 5.1-.2 8-.1l-6.7.5c7.2.2 3.8-.4 9.5-.3-.1.4 4.3.3 3.4.6-1.5 0-5-.2-7.2 0 6.5.1 14.4.3 17 .6-.2-.1-.2-.1-.2-.2h.1c.3-.2 1.6-.3 4.9-.4 12.3 0 4.2.5 11.4.7 3-.3 10.8 0 11.1-.6 3.6 0 4.3.3 5.7.4 6.4-.3 29.8-.1 22.6-.7h-1.6 1c1.4 0 2.9-.1 4.4-.1h-.5c-1.2 0-2.2 0-3.1-.1h-.5c-.3 0-.3 0-.6-.1.2.1.7.1 1.1.1l3.1.1h.5c19.6-.4 40.4.4 59.8.2v.2c12.4-.2 27.6-.1 36.4-.6 3.7 0 8.6.4 7.1.6 9.5-.1 10.5-.4 24.2 0-9.5.3 3.3.3-9.8.3 12.3.2 15.1.5 28.3-.1-4.5.5 9.3.6 15.1.5l-8.6-.4c6.6-.1 12.3 0 18.2 0l-3.2.7c25.2.8 45.4-1.4 64.5 0 6.7-.5-13.7-.3-7.7-.9 11.6.1 23.6 1 27.3 1 15.9.4 14.8-1 31.4-.7-2.1-.2-4.1-.9 8.3-1.1 11.6.1 14.2 1 6.9 1.2-2.8 0-4.1-.1-4-.1-3.7.1-8.7.2-4.1.4l1.5-.2c5.7.2 21.7.2 17.9.6 7.7-.2 4.8-.3-.3-.5h-2.4 2.4c13.5.2 21.7 0 36.1.2-2.4-.1-4.7-.4-2.3-.4 22.4.3 9.9-.5 25.1-.6 8.6.4-3.1.9 12.2.6 9.3.2 2 .6-1.7.8 13.9-.5 26 .3 34 .4l-7.3.2c4.4-.1 8-.1 11.6-.1l-4.2-.5c4.3.1 8 .1 7.9.3 4.4-.3-3.4-.8 5.4-1.2 5.7.2 17.5-.3 19.5.4-15.7-.2-2.7.4-8.9.6h4.3-.8c1 0 2 0 3 .1.6.1-.6.1-1.8.2 17.3.6 7.9-.7 25.9-.7-2.3.4 4.2.7 7.1.6-7.2 0-3.5-.6 3.2-.9 11.5.3 12.5-.2 18.5-.2l-6.9-.1c2.3-.4 8.1-.3 16.1-.4.2.1-.1.1-.7.2 8.2-.2 18 .7 28.8.3 5.7.2.6.7 5.6.8 13.9-.5 15.1.5 29.7.1-4.2-.5-4.9-.4 5.3-.8L775 6l15.4-.7c-7.2 0-15.3.3-19.6.2 7.3-.4 6.6-.3 3.1-.7 9.9.7 19.7-.4 31.1.1l-.3 1.2c17.2.5 30.6-.6 53-.3l-7.2-.2c3-.5 13.8-.1 21.1-.3-.7.4 3.9.5 7 .8-.4-.1-.6-.1-.6-.1h.9c2.2-.2 16.3 0 18.1-.7l10 .5c18.1.2 20.6-1.1 38-1-5.2.4 2.7.7-9 1 5.8 0 11 .1 11.1-.2 3.2.2 14.8-.4 20.5-.2.1 0 .3 0 .4-.1.2.1.4.1.6.1 2.3-.2 3.2-.6 9.7-.6.4.1.3.1.2.1 1.5-.2 9.5-.3 4.3-.6 17.9 1.2 49.9-.1 65.5 1 12.7-.1 27.9-.3 39.4-.3-.7.1 0 .2-2.2.2 15.9.4 9.7-1.1 27.8-.7 9.2.6-9.6.3-3.8.6 2.5 1.3 21.8-.2 33.9.6l-2.9.1c9.3.4 22.6-.5 37.8-.4 0 0-.7.1-.1.2 10.4-.7 30-.9 44.6-1.1-4.5.5-6.6.3-3.9.8 6.5-.1-1.9-.8 11.1-1 4.2.3 13.7.5 14.9 1.1h-12.3c6.3.7 15.9 0 22.4.1l-.8.3c18.9-.1 19.1-.9 39.4-.8l-2.1-.2c11.1-.8 9.3.4 20.3-.1l3.3.8c7.3-.2 25.6-.8 38.7-.9-7.4.6-22.8.9-32.3 1.2 7.2 0 24.6-.1 28.4-.4-2.9.1-6.6.3-9.5.1 3.4-.2 7.2-.4 11.4-.6 2.1-.1 4.3-.1 6.6-.2 1.2 0 2.3 0 3.5-.1h.8v-.8H145.2z"/>
  <path class="hill--stroke" d="M978.5 5c-.1 0-.2 0-.2.1 0-.1.1-.1.2-.1zM661.7 6.5c-1.6 0-3 0-4.4.1 2 0 3.4 0 4.4-.1zM534.2 5.8h-2.4 2.4zM693.6 2.7c-.3 0-.4.1-.5.1.2 0 .3-.1.5-.1z"/>
  <path class="hill--stroke" d="M1362.7.8c-28.9-.3-58.1-.5-86.7-.8-18.8-.1-10.7 1.8-34.4 1l6.7-.7c-37.9.8-77.6 0-114.7.6 2.2-.2 2.3-.4 5.9-.3-3.9-.2-11.2-.2-17.5-.1-3.1.1-6 .1-8.2.2-2.1.1-3.5.2-3.5.3-5.8 0-1.3-.4-4.9-.6-7.9-.3-19.7.6-23.9.1-.4-.1.3-.1 1.2-.1-6.9.1-20.8-.1-16.5.4-13.9-.3-26.7.2-37.8-.1-7.2.6-23.9-.3-26.2.6 1-.9-24.4-.7-33.2-.3 3-.3-7.7-.3-4.2-.7-10.1 0-19.3.2-17.5.6-18.5-1.1-37.2.9-47.7-.5-29.9.5-57.5.8-84.4 1 1-.9 29.7-.1 28.6-1-25.5.4-40.2 1.1-65.5.9-6.5-.1 3.7-.4 5.9-.5-25.5.4-49.2-.1-71.9.4.1-.1 2.5-.2 4.8-.2-4.5 0-10.4-.1-9.9.3l4.4-.1c6.6.6-14.5 1.1-18 1.5-.1 0-.3.1-.5.1.1 0 .2-.1.5-.1 5.7-1.1-22.6-.3-10.8-1.7-2.9.1-6.6.3-6 .5-4.4-.1-5.7-.2-1.3-.6-16 .2-10.3.7-24.8.7.1-.2 3-.3 4.5-.5-7.3.4-14.7.8-27 .6.6-.1-.4-.3 1.9-.3-20.4.1-35.2 1-57.8.7 6.8-.9-7.8-.3-9.1-1l-12.4.2 5 .4c-10.9 0-20.5.5-29.8.3l8.1-.3-20.4.1 11.5.3c-11 .4 1.2.9-13.3.7.9 0 .1 0-1.6-.1h-7.6 1.1c-3.1 0-6.3-.1-8.4-.3-5.4.2-10.9.5-18.9.3-2.1-.2 1.7-.8.3-1-5.3.6-25.5.2-32.2.8 2.2-.2 2.4-.5 1.6-.6l-4.5.5c-5-.2-5.8-.2-5-.6-15.1-.1 4.8.9-13.2.5 1.4 0 .7-.1 3.7-.2-11.2-.1-21.8 0-32.2.1l4.2.2-9.4.2 2.4-.4h-16.5c-4.9-.8 14.5-.2 8.9-.8-23.9.1-49.5.9-72.7.7l4.3.1c-3.2 1.1-17.2-.5-28.9 0 2.9-.1 3.8-.6 3-.5-15.9-.2-32.4.3-56.4.6l3-.3c-9.3-.2-24.6-.1-34.7-.3-3 .3-8.8.2-5.3.6-31.1-1.6-59.4.8-87-.5 3.3 0 7.9-.2 5.2-.2l-23.5.3c1.9.5 3.1.3 8 .6-3 .3-9.6.5-15.4.5 10.6-.3-.1-.7-4.7-1 .8.1-.8.3-.4.4-12.3-.8-2.1.9-18.8.4l.9-.2c-6.3.1-12.1.4-18.8.4-2.8-.5 6.7-.2 7.1-.7-9.5 0-18.8 1-27.4.5 4-.1 9.8-.2 13.9-.3-9.2-.6-10.5-.5-17-.6l-15.6.4 4.1.2c-1.4.2-2.7.3-4.1.4-.6 0-1.2.1-1.8.1-.6 0-1.1.1-1.7.1 0-.5 0-.9-.1-1.4v2.1H137c1.1-.2 3.4-.3 7.7-.4.2.1.5.3.4.4h1217.5v-3zM12 2.4h-1.8H12c2.9.1 5 .1 6.8.2L12 2.4zm65.9.2c1.1 0 1.6.1 1.9.1-.9 0-1.7-.1-1.9-.1zm417.6.4c.2-.4 3.2-.4 7.1-.3-2.4.1-4.7.2-7.1.3zm223.7-1.4h-1.8c3.1-.1 6-.1 1.8 0zM966.6 1h-1.5 1.5c4.9 0 9.8 0 13.7.1L966.6 1zm62 .4c-2.7-.1-5.3-.2-7.7-.4l9.3.3c-.4 0-1 .1-1.6.1zM630.1 1.4h1.1-1.1zM18.6 1.9h.7-.7z"/>
  <path class="hill--stroke" d="M1082.7.4c1 0 1.8 0 2.5-.1-.7 0-1.7 0-2.5.1zM90.3 5.4h.8c.4 0 .8-.1 1.2-.1H91c-.2 0-.5.1-.7.1zM165.5 5.4zM225.1 4.7h-.5.5zM224.6 4.7l-3.1-.1c.9.1 1.9.1 3.1.1zM967.6 5.4h1c-.2 0-.3 0-.6-.1-.1 0-.3 0-.4.1zM878.6 6.1h.3-.9c0-.1.2-.1.6 0zM665.6 6.5h-.9 1.3-.4zM980.3 1.1c-3.9-.1-8.8-.1-13.7-.1l13.7.1zM1028.6 1.4c.6 0 1.2-.1 1.6-.1l-9.3-.3c2.4.2 5 .3 7.7.4zM1290.7 5.3c2.8.3 10 .5 14.5.2-5.8-.1-11.5-.3-14.5-.2zM331.5 5.1l-.9.5c6.6-.1.2-.2.9-.5zM436.4 6.2l10.9-.2-8.1.1zM1034 5.9l-2-.6c-4.4.1-5.4.8 2 .6zM392.9 2.1l-.7.1h2.8l-2.1-.1zM513 2.7c-3.5-.1-6.4-.1-9.2 0 2.5 0 4.9.1 6.5.1.9-.1 1.8-.1 2.7-.1zM221 4.6h.5c-.4 0-.9 0-1.1-.1.3.1.3.1.6.1z"/>
  <path class="hill--stroke" d="M510.3 2.7c-1.6 0-4 0-6.5-.1h-1.1c2.3.1 5 .2 7.6.1zM399.2 2.4l-4.2-.2h-2.8l-2.4.4 9.4-.2zM12 2.4h-1.8H12zM495.5 3c2.4-.1 4.7-.2 7.1-.3-3.9-.1-6.9-.1-7.1.3zM79.8 2.7c-.3 0-.8-.1-1.9-.1.2 0 1 .1 1.9.1zM18.8 2.6c-1.8-.1-3.9-.1-6.8-.2l6.8.2zM717.4 1.6h1.8c4.2-.1 1.3-.1-1.8 0z"/>
</svg>
