<svg id="Layer_1" xmlns="http://www.w3.org/2000/svg" viewBox="0 0 208 317">
  <style>
    .st0{fill:#fff}.st1,.st2,.st3,.st4{fill:none;stroke:#751a1b;stroke-width:3;stroke-miterlimit:10}.st2,.st3,.st4{fill:#fff}.st3,.st4{fill:#fbb98d}.st4{fill:#fff;stroke-linecap:round}.st5{fill:#751a1b}.st6{fill:none;stroke:#751a1b;stroke-width:3;stroke-linecap:round;stroke-miterlimit:10}
  </style>
  <path class="st0" d="M139 248.5l1.7 2.9 3 2.2-.2 3 1.6 2.3 2.6 1.3.2 3.6h3.5l2.3 1.1 2 2.3 2.6 1.3 2.9.6 3 .8 3-1 3.2-.2 1.6-3.4 3.3-.5-.7-4.7 2.7-1.3 3.9-1.2-.5-3.4-1.4-3.1 3-2.6-1.6-2.8v-2.9l-2.3-2.2-.2-3.1-3.6-.6-1.4-2.2-.6-3.9-3-.8-2.9-.5-3 1.3-2.5-3-3.1-.4-2.4 2.5-3.3-.5-1.7 2.8-3.4.3.3 4.2-2.9 1.2-3 1.7.6 3.4-2.4 2.4z"/>
  <path class="st1" d="M139 248.5l1.7 2.9 3 2.2-.2 3 1.6 2.3 2.6 1.3.2 3.6h3.5l2.3 1.1 2 2.3 2.6 1.3 2.9.6 3 .8 3-1 3.2-.2 1.6-3.4 3.3-.5-.7-4.7 2.7-1.3 3.9-1.2-.5-3.4-1.4-3.1 3-2.6-1.6-2.8v-2.9l-2.3-2.2-.2-3.1-3.6-.6-1.4-2.2-.6-3.9-3-.8-2.9-.5-3 1.3-2.5-3-3.1-.4-2.4 2.5-3.3-.5-1.7 2.8-3.4.3.3 4.2-2.9 1.2-3 1.7.6 3.4-2.4 2.4z"/>
  <path class="st0" d="M52.4 244.5c-11 24 2.2 40 15.5 50 14.2 10 28.4 14 39.8 14 11.3 0 25.6-4 39.8-14 13.3-10 26.5-26 15.5-50-4.3-12-10.9-23.5-15-33.9-4.4-10.4-6.4-19.8-8.4-27.7-2.3-15.7-11-25.5-31.8-25.5s-29.5 9.7-31.9 25.5c-1.9 7.9-3.9 17.2-8.3 27.7-4.3 10.4-10.8 21.9-15.2 33.9z"/>
  <path class="st1" d="M52.4 244.5c-11 24 2.2 40 15.5 50 14.2 10 28.4 14 39.8 14 11.3 0 25.6-4 39.8-14 13.3-10 26.5-26 15.5-50-4.3-12-10.9-23.5-15-33.9-4.4-10.4-6.4-19.8-8.4-27.7-2.3-15.7-11-25.5-31.8-25.5s-29.5 9.7-31.9 25.5c-1.9 7.9-3.9 17.2-8.3 27.7-4.3 10.4-10.8 21.9-15.2 33.9z"/>
  <path class="st2" d="M44.1 55.9c9.9 28.3 28 47.7 40.4 43.3S99 68.4 89.1 40.1 68.9 14.9 56.5 19.2s-22.3 8.4-12.4 36.7z"/>
  <ellipse transform="rotate(-19.317 66.56 47.9)" class="st3" cx="66.6" cy="47.9" rx="16.3" ry="42.4"/>
  <path class="st4" d="M81.3 23.9c-5.9-9.6-20-16.6-33.1-18.4-16-2.3-32 1-41 41-6 26.5-8.6 86 5 104 9.7 12.8 25.4-77.6 44-87 16-8.1 24.1-16.2 26.9-23.7"/>
  <path class="st2" d="M163.6 53.9c-9.9 28.3-28 47.7-40.4 43.3s-14.5-30.8-4.5-59.1c9.9-28.3 20.2-25.3 32.6-20.9s22.2 8.4 12.3 36.7z"/>
  <ellipse transform="rotate(-70.683 141.116 45.9)" class="st3" cx="141.1" cy="45.9" rx="42.4" ry="16.3"/>
  <path class="st0" d="M109.2 206.9c-52.4 0-79-18.6-79-55.3 0-20.3 8-42.4 21.4-59.1 15.1-18.8 35.5-29.1 57.6-29.1s42.6 10.3 57.6 29.1c13.4 16.7 21.4 38.7 21.4 59.1 0 36.7-26.6 55.3-79 55.3z"/>
  <path class="st5" d="M109.2 65c21.6 0 41.7 10.1 56.5 28.5 13.2 16.4 21 38.1 21 58.1 0 18.6-6.7 32.1-20.3 41.1-12.9 8.5-32.1 12.7-57.2 12.7s-44.3-4.3-57.2-12.7c-13.7-9-20.3-22.4-20.3-41.1 0-20 7.9-41.7 21-58.1C67.5 75.1 87.5 65 109.2 65m0-3c-49.5 0-80.5 49.2-80.5 89.7s31 56.8 80.5 56.8 80.5-16.4 80.5-56.8-31-89.7-80.5-89.7z"/>
  <g>
    <circle class="st5" cx="131.2" cy="136.5" r="11.5"/>
    <circle class="st0" cx="127.7" cy="134" r="3"/>
  </g>
  <g>
    <circle class="st5" cx="68.2" cy="138.5" r="11.5"/>
    <circle class="st0" cx="64.7" cy="136" r="3"/>
  </g>
  <g>
    <path class="st5" d="M86.7 172c0 3.3 10.5 6 10.5 6s10.5-2.7 10.5-6-4.7-6-10.5-6-10.5 2.7-10.5 6z"/>
    <path class="st6" d="M97.2 177.5c0 2.8-6 13-19 5M98.2 177.5c0 2.8 6 13 19 5"/>
  </g>
  <g>
    <path class="st0" d="M156.7 309.6c-1.5 0-3.2-.3-5-.8-4.8-1.3-7.7-3.6-9.2-7-2-4.4-1.7-10.9.7-19.5 5.6-20 19.3-41.1 26.6-41.1.3 0 .6 0 .9.1 3.3.9 5.6 7.6 5.9 17.8.4 9.9-1.1 21.9-3.7 31.5-5 17-11.6 19-16.2 19z"/>
    <path class="st5" d="M169.6 242.7c.2 0 .3 0 .5.1 2.1.6 4.5 5.9 4.8 16.4.4 9.7-1.1 21.6-3.7 31-4.5 16.1-10.5 17.9-14.6 17.9-1.4 0-2.9-.2-4.6-.7-7-1.9-12.7-6.3-7.5-24.7 2.5-9 7.1-19.2 12.2-27.3 6-9.4 10.7-12.7 12.9-12.7m0-3c-9.1 0-22.8 23.7-28 42.2-5.4 19.5.6 25.9 9.6 28.4 1.8.5 3.7.8 5.4.8 6.9 0 13.2-4.7 17.5-20.1 5.4-19.5 5.8-48.6-3.2-51.2-.4-.1-.8-.1-1.3-.1z"/>
    <path class="st2" d="M137.2 304c0-7.5 9.2-18.5 20.5-18.5s20.5 11 20.5 18.5-9.2 6.5-20.5 6.5-20.5 1-20.5-6.5z"/>
    <path class="st2" d="M149.2 305.5c0 5.5 4.4 5 8.5 5s8.5.5 8.5-5-4.4-19-8.5-19-8.5 13.5-8.5 19z"/>
    <g>
      <path class="st0" d="M56.7 309.6c-4.6 0-11.3-2-16.1-19-2.7-9.5-4.1-21.6-3.7-31.5.4-10.2 2.6-16.9 5.9-17.8.3-.1.6-.1.9-.1 7.3 0 21 21.1 26.6 41.1 2.4 8.6 2.6 15.2.7 19.5-1.6 3.5-4.5 5.7-9.2 7-1.9.6-3.6.8-5.1.8z"/>
      <path class="st5" d="M43.7 242.7c2.2 0 7 3.3 12.9 12.8 5.1 8.1 9.7 18.3 12.2 27.3 5.2 18.4-.6 22.8-7.5 24.7-1.7.5-3.2.7-4.6.7-4.1 0-10.1-1.9-14.6-17.9-2.6-9.4-4-21.3-3.7-31 .4-10.5 2.7-15.8 4.8-16.4.2-.2.4-.2.5-.2m0-3c-.4 0-.9.1-1.3.2-9 2.5-8.7 31.7-3.2 51.2 4.3 15.5 10.6 20.1 17.5 20.1 1.8 0 3.6-.3 5.4-.8 9-2.5 15-9 9.6-28.4-5.1-18.7-18.9-42.3-28-42.3z"/>
      <path class="st2" d="M76.2 304c0-7.5-9.2-18.5-20.5-18.5s-20.5 11-20.5 18.5 9.2 6.5 20.5 6.5 20.5 1 20.5-6.5z"/>
      <path class="st2" d="M64.2 305.5c0 5.5-4.4 5-8.5 5s-8.5.5-8.5-5 4.4-19 8.5-19 8.5 13.5 8.5 19z"/>
    </g>
    <g>
      <path class="st2" d="M119.6 248.5c-.9 4.9-1.5 10.3-1.5 16 0 22.6-.6 41 9.6 41s20.9-18.4 20.9-41c0-13.1-.6-24.8-3.1-32.3"/>
      <path class="st2" d="M108.2 308c0-7.5 9.2-18.5 20.5-18.5s20.5 11 20.5 18.5-9.2 6.5-20.5 6.5-20.5 1-20.5-6.5z"/>
      <path class="st2" d="M120.2 309.5c0 5.5 4.4 5 8.5 5s8.5.5 8.5-5-4.4-19-8.5-19c-4.2 0-8.5 13.5-8.5 19z"/>
      <g>
        <path class="st2" d="M93.7 248.5c.9 4.9 1.5 10.3 1.5 16 0 22.6.6 41-9.6 41s-20.9-18.4-20.9-41c0-13.1.6-24.8 3.1-32.3"/>
        <path class="st2" d="M105.2 308c0-7.5-9.2-18.5-20.5-18.5s-20.5 11-20.5 18.5 9.2 6.5 20.5 6.5 20.5 1 20.5-6.5z"/>
        <path class="st2" d="M93.2 309.5c0 5.5-4.4 5-8.5 5s-8.5.5-8.5-5 4.4-19 8.5-19 8.5 13.5 8.5 19z"/>
      </g>
    </g>
  </g>
  <path class="st4" d="M126.4 21.9c5.9-9.6 20-16.6 33.1-18.4 16-2.3 32 1 41 41 6 26.5 8.6 86-5 104-9.7 12.8-25.4-77.6-44-87-16-8.1-24.1-16.2-26.9-23.7"/>
</svg>
