<?xml version="1.0" encoding="utf-8"?>
<!-- Generator: Adobe Illustrator 22.1.0, SVG Export Plug-In . SVG Version: 6.00 Build 0)  -->
<svg version="1.1" id="Layer_1" xmlns="http://www.w3.org/2000/svg" xmlns:xlink="http://www.w3.org/1999/xlink" x="0px" y="0px"
	 viewBox="0 0 1366 380" style="enable-background:new 0 0 1366 380;" xml:space="preserve">
<style type="text/css">
	.st0{fill:url(#SVGID_1_);}
	.st1{fill:#207B50;}
</style>
<g id="Foreground">
	<g>
		<linearGradient id="SVGID_1_" gradientUnits="userSpaceOnUse" x1="682.1" y1="374.8198" x2="682.1" y2="4.063">
			<stop  offset="0" style="stop-color:#FFFFFF"/>
			<stop  offset="1" style="stop-color:#000000"/>
		</linearGradient>
		<path class="st0" d="M-0.9,86.8C148,128.1,434.7,53,568.7,12c43.9-13.4,91.4-7.9,136.3,2l278,61.4c58,12.8,118.1,13.1,176.3,0.8
			l205.8-43.4v342H-0.9V86.8z"/>
		<g>
			<g>
				<g>
					<g>
						<path class="st1" d="M0.4,86.8C0.2,85-0.2,86-0.1,90.9l0.7,3.5L0.4,86.8z"/>
						<path class="st1" d="M-0.8,119.8c0.3,5.8,0.9,12.4,1.5,8.7c-0.6-5.7-0.4-7.1-1.1-13.3c-0.1-4.9,0.2-8.6,0.5-7.8
							c-0.2-1.7,0.1-7.6-0.3-10.3c-0.5,6.4-0.5,14.5-0.1,23C-0.5,122-0.7,120.3-0.8,119.8z"/>
						<path class="st1" d="M224.4,375.7l-3.1-0.1C222.2,375.7,223.2,375.7,224.4,375.7z"/>
						<path class="st1" d="M522,376.1c-2.3,0-3.2,0.1-3.3,0.1C520.8,376.2,522.5,376.1,522,376.1z"/>
						<path class="st1" d="M572.8,376.8c-1.1,0-2,0-3,0C570.9,376.8,572.1,376.9,572.8,376.8z"/>
						<path class="st1" d="M224.4,375.7l7.9,0.2C232.9,375.7,228.3,375.8,224.4,375.7z"/>
						<path class="st1" d="M0.8,186.1c0-1.7-0.1-3.1-0.2-4.3c0,1.4,0,2.7,0.1,4.1C0.7,185.9,0.8,186,0.8,186.1z"/>
						<path class="st1" d="M93.2,376.3h-2.4c-0.7,0.1-1.4,0.2-2,0.3L93.2,376.3z"/>
						<path class="st1" d="M-2.5,368.3c0,1.1,0.1,1.9,0.3,2.5c0.1,0.3,0.2,0.5,0.3,0.8c0.1,0.3,0.2,0.6,0.2,0.8
							c-0.1-0.9-0.2-1.5-0.3-2.4c-0.1-0.8-0.1-1.8-0.1-2.7C-2.2,367.2-2.3,367.5-2.5,368.3z"/>
						<path class="st1" d="M-1.5,208.6l-0.1-2.8C-1.5,206.5-1.5,207.8-1.5,208.6z"/>
						<path class="st1" d="M165.3,376.4c0.2,0.1,0.5,0.2,0.9,0.2C166.2,376.5,165.8,376.4,165.3,376.4z"/>
						<path class="st1" d="M114.8,101.4C114.9,101.3,114.8,101.3,114.8,101.4C114.3,101.3,114.1,101.4,114.8,101.4z"/>
						<path class="st1" d="M-0.9,86.7l1.6,0.4C0.9,87,1.1,87,1.1,86.9L-0.9,86.7z"/>
						<path class="st1" d="M665.8,377.5c-0.2,0-0.2,0-0.4,0C662.9,377.6,664.3,377.6,665.8,377.5z"/>
						<path class="st1" d="M1367.4,220.6c-0.5,9.7-0.6-15.7-1.2-1.2C1366.4,218,1367.1,232.6,1367.4,220.6z"/>
						<path class="st1" d="M0.7,188.7c0,1.4,0,2.7,0,4.1C0.8,190.9,0.8,189.7,0.7,188.7z"/>
						<path class="st1" d="M1366.2,219.4L1366.2,219.4l-0.1,1.5C1366.2,220.3,1366.2,219.9,1366.2,219.4z"/>
						<path class="st1" d="M880,377.2c-0.4-0.1-1.3-0.2-2.2-0.2C877.9,377,878.4,377.1,880,377.2z"/>
						<path class="st1" d="M720.4,376.4l3.9,0.1C722.8,376.4,721.5,376.4,720.4,376.4z"/>
						<path class="st1" d="M962.9,376.4c2.1,0,2.9,0.1,5.8,0c-0.3,0-0.5,0-0.9-0.1C966.7,376.5,965.3,376.5,962.9,376.4z"/>
						<path class="st1" d="M1049.1,376.4c-0.5,0-1.1-0.1-1.6-0.1c-0.9,0-1.9,0-2.7,0L1049.1,376.4z"/>
						<path class="st1" d="M374.6,65.7c-1.9,0.3-3.1,0.3-4,0.4C372,66.2,359.7,69,374.6,65.7z"/>
						<path class="st1" d="M0.5,186.1c0.1,0.5,0.2,1.2,0.2,2.6c0-1,0-1.9,0-2.9C0.6,185.6,0.5,185.5,0.5,186.1z"/>
						<path class="st1" d="M966.4,372l13.7,0.1C976.2,372,971.3,372,966.4,372z"/>
						<path class="st1" d="M977.6,76.5l-3.1-0.6C975.7,76.2,976.8,76.4,977.6,76.5z"/>
						<path class="st1" d="M1020.7,372c2.4,0.2,5,0.3,7.7,0.4c0.6,0,1.2-0.1,1.6-0.1L1020.7,372z"/>
						<path class="st1" d="M370.6,66.1L370.6,66.1L370.6,66.1z"/>
						<path class="st1" d="M282.2,84.7c12.9-2.2,5.9-1.7,8.6-2.6c15.3-3,7.2-0.8,12.5-1.3c2.4-0.5,4.6-1,6.8-1.4
							c2.1-0.5,4.1-1,6.1-1.5c3.9-0.9,7.5-1.8,11-2.5c0.6,0,2-0.2,0.4,0.3c5-1.3,12.5-2.8,20.2-4.4s15.6-3.4,21.3-5
							c0.9-0.1,1.3-0.2,1.6-0.2c-2,0.1-2.3-0.3-2-0.6c5.7-1.3,10.5-2.8,12.8-2.8c-3.5,0.8-3.8,1-5.4,1.5l5.9-1.5
							c5.5-0.5-8.1,2.1-8,2.6c5.8-1.4,12.1-3,18-4.5s11.5-2.9,16-3.9c2,0.2-20.8,5.1-8.8,2.9c-4.6,1-9.2,2-13.9,2.9
							c10.8-1.3-8.4,1.8,1.5,0.8c18.3-4,20.3-5,38.4-9.2c4-1.4-1.5-0.2,2.5-1.6c12.8-3.5,17.9-4.4,22.2-5.1c4.3-0.7,7.7-1.2,17-4.1
							c4.8-1.7,6.4-3,19.9-6.2l-4.4,2c17.5-4.7,9.7-3.7,28.1-8.3c-3.2,1.2-13.6,4-11,3.4c12-2.7,8.3-2.7,17.3-5.3l2.1,0.1
							c9.2-2.7,18.9-5.6,28.8-8.7c4.9-1.6,10-3.1,15-4.7c2.5-0.8,5.1-1.6,7.6-2.4c2.5-0.7,5-1.5,7.6-2.1c-0.6,0.2-1.7,0.6-2.1,0.9
							c-0.4,0.2-0.1,0.2,2.4-0.3c12.8-3.3,27-5.1,41.1-5.4c14.1-0.2,28.1,0.9,40.8,2.6c3.3,0.2,6.5,0.5,9.8,0.7
							c2.3,0.3,4.2,0.9,1.7,0.6c9.9,1.8,0.6-0.3,5.4,0.2c5.7,0.9,7.4,1.6,3.8,1.2c2.2,0.3,4.6,0.7,7.2,1.1c2.6,0.5,5.4,0.9,8.3,1.5
							c5.8,1.1,12,2.4,18.3,3.7c12.5,2.6,25.2,5.4,34.3,7.8l-3.6-0.6c14.2,3.4,16.4,2.4,29.5,5.8l-2.6-0.5
							c30.9,7.1,65.3,14.1,88.8,20.2c4.7,0.2,30.6,7.1,32.8,6.4c17.6,4.5,12.5,3.6,37.3,9.4c6.6,1.5,10.1,1.5,18.3,3.2l0.1,0.6
							l11.3,1.8l5.8,2l7.8,1.5c-3.1-0.7-6.5-1.7-6-1.8c6.1,1.2,13.4,3,19.3,4.3c5.9,1.5,10.3,2.4,10.4,2.6
							c9.7,1.6,19.4,2.8,29.1,3.7c-0.7,0.2-5.6-0.3-9.4-0.7c7.8,0.7,8.5,0.9,9,1.1s0.9,0.4,8.1,0.8c-1.9-0.3,1.1-0.3,1.4-0.4
							c1.8,0.3,4.1,0.5,6.8,0.7c2.7,0.2,5.8,0.5,9,0.6s6.6,0.4,10,0.4c3.3,0,6.6,0.1,9.6,0.1c-0.8,0.2-1.5,0.3-2.3,0.4
							c10.9,0.1,22.4-0.2,34.2-1.2c11.8-1,23.9-2.4,36-4.3c-4.3,0.6-6.1,0.6-5.8,0.3c0.1-0.1,0.8-0.3,1.8-0.6c1-0.2,2.5-0.5,4.2-0.8
							l2.9,0.2c4.5-1.2-7.4,1,1.9-1.1c4.5-0.7,6-0.9,5.8-0.6s-2.2,0.9-4.8,1.4c3.6-0.6,7.2-1.5,10.9-2.3c0.7,0.1-1.9,0.7-2.5,1
							c4.4-1.2,18.8-3.2,25.1-5.3l0.6,0.1c23.8-5,34.5-7.5,53.9-11.6c0.3-0.6,7.9-2.1,13.5-3.8c14.3-2.8,30.2-5.7,47.3-9.4
							c12-2.8,3.4-1.2,8.8-2.7c1,0.3,18.1-3.3,9.3-1.1c10.3-2.2,16.9-3.6,24.1-5.2c3.6-0.8,7.4-1.7,11.9-2.7
							c2.3-0.5,4.7-1.1,7.4-1.7c1.3-0.3,2.7-0.6,4.2-1c0.4-0.1,0.7-0.2,1.1-0.3c0.2,0,0.3-0.1,0.5-0.1c0.3-0.1,0.6-0.2,1-0.2
							c-0.2,0-0.5,0-0.8,0c-0.2,0-0.3,0-0.4,0s-0.2,0-0.2,0c-0.1,0-0.3,0-0.4,0.1c-1,0.1-1.4,0.1-0.5-0.1c0.6-0.1,1.2-0.3,1.8-0.4
							c0.5-0.1,0.9-0.2,1.3-0.2c0,1-0.1,1.7-0.2,2.3c-0.1,1-0.2,1.5-0.2,1.3l-0.1-1.3c0.8,29.9-1.5,68.9-0.4,92.7l-0.1-1.3l0.6,24.7
							c-0.1,11.3-0.4-6.8-0.7,1.6c0.9,26.6-0.1,42,0.4,64c-1.5,17,0.1,60.2-0.9,83.1l0.4-1.3c0.3,5.9-0.2,7.2-0.3,11.5
							c0.3-0.6,0.3-6.4,0.5-2.7c0.1,10.7,0.1,21.6,0.1,32.6c0,5.5,0,11-0.1,16.5c0,2.8,0,5.5,0,8.3v4.2v1.2v0.5
							c-28.9-0.3-58.1-0.5-86.7-0.8c-18.8-0.1-10.7,1.8-34.4,1l6.7-0.7c-37.9,0.8-77.6,0-114.7,0.6c2.2-0.2,2.3-0.4,5.9-0.3
							c-3.9-0.2-11.2-0.2-17.5-0.1c-3.1,0.1-6,0.1-8.2,0.2c-2.1,0.1-3.5,0.2-3.5,0.3c-5.8,0-1.3-0.4-4.9-0.6
							c-7.9-0.3-19.7,0.6-23.9,0.1c-0.7-0.1,2.2-0.2,3.7-0.2c-5.1,0.2-23.9-0.1-19,0.5c-13.9-0.3-26.7,0.2-37.8-0.1
							c-7.2,0.6-23.9-0.3-26.2,0.6c1-0.9-24.4-0.7-33.2-0.3c3-0.3-7.7-0.3-4.2-0.7c-10.1,0-19.3,0.2-17.5,0.6
							c-18.5-1.1-37.2,0.9-47.7-0.5c-29.9,0.5-57.5,0.8-84.4,1c1-0.9,29.7-0.1,28.6-1c-25.5,0.4-40.2,1.1-65.5,0.9
							c-6.5-0.1,3.7-0.4,5.9-0.5c-25.5,0.4-49.2-0.1-71.9,0.4c0.1-0.1,2.5-0.2,4.8-0.2c-4.5,0-10.4-0.1-9.9,0.3l4.4-0.1
							c7.1,0.6-17.7,1.2-18.5,1.6c7.6-1.2-22.4-0.3-10.3-1.8c-2.9,0.1-6.6,0.3-6,0.5c-4.4-0.1-5.7-0.2-1.3-0.6
							c-16,0.2-10.3,0.7-24.8,0.7c0.1-0.2,3-0.3,4.5-0.5c-7.3,0.4-14.7,0.8-27,0.6c0.7-0.1-0.7-0.3,3-0.3c-21,0.1-35.9,1-58.9,0.7
							c6.8-0.9-7.8-0.3-9.1-1l-12.4,0.2l5,0.4c-10.9,0-20.5,0.5-29.8,0.3l8.1-0.3l-20.4,0.1l11.5,0.3c-11,0.4,1.2,0.9-13.3,0.7
							c2.9-0.1-10.9,0-16.5-0.4l0,0c-5.4,0.2-10.9,0.5-18.9,0.3c-2.1-0.2,1.7-0.8,0.3-1c-5.3,0.6-25.5,0.2-32.2,0.8
							c2.2-0.2,2.4-0.5,1.6-0.6l-4.5,0.5c-5-0.2-5.8-0.2-5-0.6c-15.1-0.1,4.8,0.9-13.2,0.5c1.4,0,0.7-0.1,3.7-0.2
							c-18.1-0.2-34.9,0.3-51.5,0.1c-4.9-0.8,14.5-0.2,8.9-0.8c-23.9,0.1-49.5,0.9-72.7,0.7l4.3,0.1c-3.2,1.1-17.2-0.5-28.9,0
							c2.9-0.1,3.8-0.6,3-0.5c-15.9-0.2-32.4,0.3-56.4,0.6l3-0.3c-9.3-0.2-24.6-0.1-34.7-0.3c-3,0.3-8.8,0.2-5.3,0.6
							c-31.1-1.6-59.4,0.8-87-0.5c3.3,0,7.9-0.2,5.2-0.2l-23.5,0.3c1.9,0.5,3.1,0.3,8,0.6c-3,0.3-9.6,0.5-15.4,0.5
							c10.6-0.3-0.1-0.7-4.7-1c0.8,0.1-0.8,0.3-0.4,0.4c-12.3-0.8-2.1,0.9-18.8,0.4l0.9-0.2c-6.3,0.1-12.1,0.4-18.8,0.4
							c-2.8-0.5,6.7-0.2,7.1-0.7c-9.5,0-18.8,1-27.4,0.5c4-0.1,9.8-0.2,13.9-0.3c-9.4-0.6-10.5-0.5-17.4-0.6h0.7l-15.9,0.4l4.1,0.2
							c-1.4,0.2-2.7,0.3-4.1,0.4c-0.6,0-1.2,0.1-1.8,0.1s-1.1,0.1-1.7,0.1c0-0.5,0-0.9-0.1-1.4c0-0.5,0-1,0-1.5c0-1.2,0-2.4,0-3.7
							c0-2.5,0-5,0-7.7c0-5.3-0.1-10.9-0.4-17.1c0.9,15.6,0.5,2.6,1.1,3.8c0.2-4.1,0.4-10.3,0.5-8.5c-0.5-7.6,0.4-12.6-0.3-23.3
							c0.2-0.5,0-8.1,0.5-6.4c-0.2-9.8-0.3,2.3-0.6,1.5c-0.7-15.2,0.8-35.7-0.1-57.5c-0.4-18.8-1-22.3-1.4-39.8
							c0.3-5.9,0.7,4.8,0.7,4.8c0.3-9.5,0.2-16.7,0-25.6c0.2,1.8,0.3-0.1,0.5-2.8c-0.1-7.2-0.7-4.8-0.4-14.3
							c0.2,1.6,0.6,3.7,0.8,7.2c-0.2-8.5-0.5-16.9-0.7-25.6c0.3-2.3,0.5,5.3,0.7,8.4C0.3,154.7,0.2,139-0.3,136l-0.1,6.2
							c0-3.6,0.5-1.8,0.6,0.8c0.4,8.5-0.2,12.2-0.4,12.7l-0.1-6.3c-1.1,6.4,0.2,25.1,0.1,37.7l-0.8-5.2l0.6,12.9
							c-0.2,2.7-0.7,4.6-0.8-1.6c-0.4,9,0.3,8-0.2,15.7c-0.1,0.9-0.1,0.5-0.1-0.3l0.2,8.8c-0.2-1.7-0.6,1.5-0.5-3.9
							c-0.5,15.8,0.6,25.5,0,31.5l-0.1-1.3c0.3,22,0.6,2.1,1.3,18.6l-1.3,11l0.6,2.2c0,2.3-0.1,6.7-0.3,5.9c0.4,8.4,0.3-1.4,0.7,3.5
							c-0.6,10.9,0.3,30.1-0.7,32.5c0.5,3.9,0.4-10.4,0.7,1.2c-1,3.3,0.2,13.5-0.3,23.4c-0.5-3.1-0.3-12.5-0.7-2.5
							c0.9,6-0.2,19.4,0,27.8c0.1,0.1,0.2,0.9,0.3,2.2c0,0.7,0.1,1.4,0.1,2.4c0,1.1,0,2.4,0,3.7c3.5,0,7.8,0,12.4,0
							c4.3,0,8.9,0,13.1-0.1c-0.9,0.2,26.5,0.4,39.6,0.7l-0.4,0.1c2.5-0.7,16.1-0.6,25.9-0.7c-0.4,0.4-2.2,0.6-7.5,0.8h9.3
							c2.2-0.2,5.1-0.4,11.1-0.4l-2.3,0.5c12.3,0,24.8-0.6,40.7-0.3c0.9-0.5-12.6-1.4,4.2-1.8c0.6,0.3,1.2,0.8-3.1,0.9
							c1.4,0,5.1-0.2,8-0.1l-6.7,0.5c7.2,0.2,3.8-0.4,9.5-0.3c-0.1,0.4,4.3,0.3,3.4,0.6c-1.5,0-5-0.2-7.2,0c6.5,0.1,14.4,0.3,17,0.6
							c-0.6-0.2,0-0.5,4.8-0.6c12.3,0,4.2,0.5,11.4,0.7c3-0.3,10.8,0,11.1-0.6c3.6,0,4.3,0.3,5.7,0.4c6.4-0.3,29.8-0.1,22.6-0.7
							h-1.6c0.3,0,0.7,0,1,0c-0.1,0,0,0-0.1,0h0.1c20.9-0.6,43.4,0.3,64.2,0.1v0.2c12.4-0.2,27.6-0.1,36.4-0.6
							c3.7,0,8.6,0.4,7.1,0.6c9.5-0.1,10.5-0.4,24.2,0c-9.5,0.3,3.3,0.3-9.8,0.3c12.3,0.2,15.1,0.5,28.3-0.1
							c-4.5,0.5,9.3,0.6,15.1,0.5l-8.6-0.4c6.6-0.1,12.3,0,18.2,0l-3.2,0.7c25.2,0.8,45.4-1.4,64.5,0c6.7-0.5-13.7-0.3-7.7-0.9
							c11.6,0.1,23.6,1,27.3,1c15.9,0.4,14.8-1,31.4-0.7c-2.1-0.2-4.1-0.9,8.3-1.1c11.6,0.1,14.2,1,6.9,1.2c-2.8,0-4.1-0.1-4-0.1
							c-3.7,0.1-8.7,0.2-4.1,0.4l1.5-0.2c5.7,0.2,21.7,0.2,17.9,0.6c8.8-0.2,3.7-0.4-2.7-0.5c14.9,0.3,23.2,0,38.5,0.2
							c-2.4-0.1-4.7-0.4-2.3-0.4c22.4,0.3,9.9-0.5,25.1-0.6c8.6,0.4-3.1,0.9,12.2,0.6c9.3,0.2,2,0.6-1.7,0.8c13.9-0.5,26,0.3,34,0.4
							l-7.3,0.2c4.4-0.1,8-0.1,11.6-0.1l-4.2-0.5c4.3,0.1,8,0.1,7.9,0.3c4.4-0.3-3.4-0.8,5.4-1.2c5.7,0.2,17.5-0.3,19.5,0.4
							c-18.1-0.2,2,0.6-13.3,0.7c3-0.1,6.5-0.1,10.9,0c0.6,0.1-0.6,0.1-1.8,0.2c17.3,0.6,7.9-0.7,25.9-0.7c-2.3,0.4,4.2,0.7,7.1,0.6
							c-7.2,0-3.5-0.6,3.2-0.9c11.5,0.3,12.5-0.2,18.5-0.2l-6.9-0.1c2.3-0.4,8.1-0.3,16.1-0.4c0.7,0.3-7.3,0.2-4.4,0.3
							c8.9-0.6,20.1,0.6,32.5,0.2c5.7,0.2,0.6,0.7,5.6,0.8c13.9-0.5,15.1,0.5,29.7,0.1c-4.2-0.5-4.9-0.4,5.3-0.8l-24,0.3l15.4-0.7
							c-7.2,0-15.3,0.3-19.6,0.2c7.3-0.4,6.6-0.3,3.1-0.7c9.9,0.7,19.7-0.4,31.1,0.1l-0.3,1.2c17.2,0.5,30.6-0.6,53-0.3l-7.2-0.2
							c3-0.5,13.8-0.1,21.1-0.3c-0.7,0.4,3.9,0.5,7,0.8c-0.4-0.3,16.4,0,18.4-0.8l10,0.5c18.1,0.2,20.6-1.1,38-1
							c-5.2,0.4,2.7,0.7-9,1c5.8,0,11,0.1,11.1-0.2c3.4,0.2,16.1-0.5,21.4-0.2c2.4-0.2,3.2-0.6,9.8-0.6c0.7,0.1,0,0.2,0,0.2
							c0-0.2,10.2-0.3,4.5-0.7c17.9,1.2,49.9-0.1,65.5,1c12.7-0.1,27.9-0.3,39.4-0.3c-0.7,0.1,0,0.2-2.2,0.2
							c15.9,0.4,9.7-1.1,27.8-0.7c9.2,0.6-9.6,0.3-3.8,0.6c2.5,1.3,21.8-0.2,33.9,0.6l-2.9,0.1c9.3,0.4,22.6-0.5,37.8-0.4
							c0,0-0.7,0.1-0.1,0.2c10.4-0.7,30-0.9,44.6-1.1c-4.5,0.5-6.6,0.3-3.9,0.8c6.5-0.1-1.9-0.8,11.1-1c4.2,0.3,13.7,0.5,14.9,1.1
							h-12.3c6.3,0.7,15.9,0,22.4,0.1l-0.8,0.3c18.9-0.1,19.1-0.9,39.4-0.8l-2.1-0.2c11.1-0.8,9.3,0.4,20.3-0.1l3.3,0.8
							c7.3-0.2,25.6-0.8,38.7-0.9c-7.4,0.6-22.8,0.9-32.3,1.2c7.2,0,24.6-0.1,28.4-0.4c-2.9,0.1-6.6,0.3-9.5,0.1
							c3.4-0.2,7.2-0.4,11.4-0.6c2.1-0.1,4.3-0.1,6.6-0.2c1.2,0,2.3,0,3.5-0.1c1.4,0,2.9,0,4.4,0c0-3.3,0-6.8,0-10.4
							c1.5,2.6,0.4-37.6,1.6-48.1c-0.6-25.5,0.2-50.7,0.2-80.5c-1.2,10.6,0-8.7-1.3-6.9c-0.1-6.9-0.1-9.6,0-10.2l0.7-21
							c0.4-5,0.3,6.6,0.5,6c0.1-15.2,0.5-6.4,0.8-16.4c-0.4,2.1-0.6-5.3-0.5-13.9l-0.6,12.2c-0.7-21.2,1-18.3,0.4-39.7l0.4,6.8
							c-0.2-11,0-40.5-1-51.2c0.1-1.9,0.5-4.5,0.6,0.3c0.1-11.3-0.1-23.7-0.3-35.7c-0.1-6-0.2-12-0.2-17.7c0-2.8,0-5.6-0.1-8.3
							c0-3.5,0-7,0-10.2c-2.4,0.5-4.8,1-7.1,1.4c-1.5,0.3-3,0.6-4.4,0.8l1.9-0.7c-4.8,1.1-8.2,2.3-14.3,3.3c0.3-0.2,1.9-0.7-0.4-0.2
							c-2.5,0.6-12.6,3.2-19,4.4l5.4-1.5c-25.1,4.9-38.2,8.9-59.2,13.5c-0.1-0.9-19.9,3-29.7,4.9l0.3-0.2
							c-29.2,6-49.4,11.2-76.3,17.2c-4.2,0.7-9.9,1.6-16.4,2.8c-3.3,0.5-6.8,1.1-10.4,1.7c-3.7,0.5-7.5,1-11.4,1.6
							c-15.6,2-32.6,3.1-46.2,3c4.2,0.1-0.7,0.7-5.5,0.8c-6.4-0.1-17.8,0.3-16.7-0.5l2.3,0.1c-2.4-0.5-6.9-0.8-12.1-1.2
							c-2.6-0.2-5.3-0.4-8.1-0.6c-2.8-0.2-5.5-0.5-8.1-0.7l-1.8,0.9c-13.3-2.1-30.8-4.6-46.6-8c-15.9-3.3-30.2-6.3-37.3-8.6
							c-6.4-1.2-14.4-2.9-20.7-4l0.5-0.5c-17.7-4-26.5-6.1-48.4-10.8l4.5,0.6c-12.3-2.8-15.9-1.8-27.3-4.3l-3.2-1.6
							C830.1,39.6,808.4,34,787,30.1c0.4,0,1.1-0.1,4.6,0.6c-10.1-2.3-39.1-9.2-35.6-7.3c-0.1-0.8-22.2-5-33.9-7.2l1.9-0.1
							c-10-1.5-10.3-1.4-24.1-4.1c-3.2-0.8-2.8-1,1.5,0c-5.4-1.3-7.6-1.6-10-1.9c-2.4-0.4-5.2-0.7-11.8-2l5,0.5
							c-5.6-1.1-8.2-1.4-10.2-1.6s-3.3-0.3-6.5-0.5c-1.8-0.2-4-0.5-6.4-0.8s-4.9-0.6-7.2-0.9c-4.7-0.5-8.7-1.1-9.6-1.4
							c-1.6,0.2-7.8,0.2-14.6,0c-0.9-0.2,1.6-0.3,2.8-0.3c-4.8-0.3-9-0.2-12.8-0.1c-1.9,0.1-3.7,0.2-5.4,0.3
							c-1.7,0.1-3.4,0.2-4.9,0.4c-6.4,0.6-11.9,1.4-18.5,2.2C591,5.8,590.1,5.8,589,6c15.1-2.7,27.4-2.8,26.2-2.8
							c0-0.2-3.1-0.3-5-0.3c-0.9,0-1.6,0-1.3-0.2c0.2-0.1,1.3-0.4,3.7-0.7c-0.6,0.1-1.3,0.1-1.9,0.2c-0.7,0.1-1.4,0.2-2.1,0.3
							c-1.4,0.2-2.9,0.4-4.5,0.6s-3.2,0.5-4.9,0.7c-1.7,0.3-3.4,0.6-5.1,0.8c-1.7,0.3-3.4,0.7-5.2,1c-1.7,0.4-3.5,0.6-5.1,1.1
							c-1.7,0.4-3.3,0.8-4.9,1.1c-0.8,0.2-1.6,0.4-2.4,0.5c-0.8,0.2-1.5,0.4-2.2,0.6c-0.6,0.1-1.1,0.2-1.6,0.3l1.2-0.4
							c-2.7,0.7-5.1,1.4-7.3,2.2c-3.7,1-6,1.7-9.5,2.7c-1.5,0-13.5,3.8-19.4,5.5c0.6,0.4-7,2.5,0.3,0.9c-0.9,0.2,1.1-0.4,5-1.5
							c0.9-0.3,1.9-0.6,2.5-0.8c-0.1,0-0.2,0.1-0.4,0.2c3.8-1.2,8.8-2.7,14.5-4.4c-4.5,1.7-9.3,3.3-15.8,4.9
							c-2.9,1.2-6.1,2.5-7.9,3.3c-8.2,1.6-23.8,5.6-26.1,5.7c-17.8,5.4-42.2,11.7-53.3,15.7c-5.1,1.4-6,1.2-7.9,1.6
							c2.9-0.9,6.5-1.8,8-2.3c-10.2,2.9-30.4,7.8-32.7,9.1c-13,2.8,7.1-2.4-10.7,2l2.4-0.8c-17.7,3.7-31.8,7.3-46.5,11
							c-14.7,3.6-29.9,7.3-49.7,10.3c2.7-0.4,4.1-0.7,4.7-0.6c-44.8,8.1-92.4,16.9-137.3,20.2c-6.4,0.5-9.9,0.9-12.8,1.3
							c-2.9,0.4-5.2,0.8-9,1.2l-2.8-0.4c-4.4,0.5-8.8,1.1-13.3,1.6c-4.7,0.4-9.1,0.5-13.4,0.7c-1.1,0-2.2,0-3.2,0.1h-3.2
							c-2.2,0-4.3,0-6.5-0.1c-4.4-0.1-9,0-13.9-0.1c-2.5,0-5,0-7.8,0c-2.7,0-5.5,0.1-8.5,0.1l3.1,0.5c-4.3-0.2-11.1-0.3-16.6-0.5
							c-5.5-0.3-9.8-0.6-9.1-0.8c-0.9,0-2.8,0.2-6.2-0.2l-0.2-0.3c-1.8,0-3.5-0.2-5.3-0.3l-5.3-0.4l-5.3-0.4l-2.6-0.2l-2.6-0.3
							c-8.1-1.3-7.4-1.5-7.7-1.8c-0.1-0.2-0.5-0.4-2.3-0.7c-0.9-0.2-2.2-0.4-3.9-0.7c-1.8-0.4-4-0.8-6.9-1.4
							c-2.2-0.4-4.8-0.8-7.5-1.2c-2.7-0.6-5.4-1.1-7.7-1.6c-4.7-0.9-7.9-1.4-6.3-0.9c3.5,0.9,8.8,2.4,9,2.7l-7.9-1.8
							c-0.8,0.3-2.8,0.2-2.2,0.9c0.6,0.6,3.8,1.8,13.5,4.5c4.6,0.8,9.2,1.4,13.9,2.1l2.2,0.6l2.2,0.5c-1.9-0.2-3.9-0.6-5.8-1
							l-5.8-1.1c3.2,0.8,5.9,1.4,8.4,1.8s4.7,0.5,7.1,0.7c1.1,0.4,3,0.8,5.7,1.3c4.6,0.4,9.2,0.5,13.7,0.7c1.6,0.5-6.2,0.1,3,1.2
							c6.4,0.2-6.1-1.4,4.5-0.7c6.6,0.8,4.7,1.1,12.5,1.2c1.1,0.3-0.6,0.4-3.7,0.3c7,0.3,18.5,0.7,22.1,0.3
							c3.5,0.4,9.4,0.3,14.3,0.4c4.9,0,8.9,0.1,8.6,0.5c2.2-0.3,12.3-1,18.7-1.2c-2.9,0.4-2.9,0.5-1.2,0.5s4.9-0.2,8.4-0.3
							c3.5-0.2,7.3-0.3,10.1-0.4c2.7-0.1,4.4-0.1,3.6,0.3c2.1-0.4,5.2-0.7,8.7-1.1c3.6-0.3,7.7-0.6,12-1.1c4.3-0.4,8.8-0.9,13.2-1.3
							c4.4-0.5,8.6-1,12.4-1.6c-0.8,0.2-2.5,0.5-3.8,0.6c8.6-0.9,11.1-0.8,16.6-1.3c0.5-0.5,4.1-1.1,8.4-1.9
							c2.2-0.4,4.5-0.8,6.8-1.1c2.3-0.4,4.4-0.8,6.2-1.2c10.6-0.7-6.2,1.8-2.8,2.1c-0.6-0.6,18.1-3.2,14.5-3.2
							c8.1-0.7,6.9-0.8,11.1-0.8c1.2-1.2,7.4-1.3,13.9-3c11.6-1.5,3.1,0.4,15.7-2C293.4,82.5,282.2,84.7,282.2,84.7z M578.1,11
							L578.1,11c-2.5,0.6-4.6,1.3-6,1.7C573.4,12.4,575.1,11.8,578.1,11z M603.2,6.7c-1.5,0.1-3.3,0.4-5.1,0.6
							c-1.8,0.3-3.8,0.4-5.8,0.8c-0.9,0,0-0.4,2.5-0.8C593.4,7.7,599.4,7,603.2,6.7z M549.7,15.3c3.9-1.2,5.2-1.5,5.8-1.6
							c-1.8,0.6-4,1.2-6.8,2.1c-0.1,0-0.3,0.2-0.4,0.2C548.5,15.8,548.9,15.5,549.7,15.3z"/>
						<path class="st1" d="M542.9,18c-0.6,0.2-0.9,0.3-1.6,0.5c0.8-0.2,1.6-0.4,2.4-0.6c0.5-0.2,0.9-0.4,1.3-0.6
							C544.3,17.6,543.5,17.8,542.9,18z"/>
						<path class="st1" d="M220.8,375.6h0.5c-0.4,0-0.9,0-1.1-0.1C220.5,375.6,220.5,375.6,220.8,375.6z"/>
						<polygon class="st1" points="949.6,70.6 949.6,70.5 947.4,70.1 						"/>
						<path class="st1" d="M79.6,373.7c-0.3,0-0.8-0.1-1.9-0.1C77.9,373.6,78.7,373.7,79.6,373.7z"/>
						<path class="st1" d="M18.6,373.6l-8.6-0.2C13.8,373.5,16.5,373.5,18.6,373.6z"/>
						<path class="st1" d="M0.6,347.5c-0.1-0.6-0.2-0.8-0.2-0.9v0.1L0.6,347.5z"/>
						<path class="st1" d="M717.2,372.6c0.6,0,1.3,0,1.8,0C723.2,372.5,720.3,372.5,717.2,372.6z"/>
						<path class="st1" d="M495.3,374c2.4-0.1,4.7-0.2,7.1-0.3C498.5,373.6,495.5,373.6,495.3,374z"/>
						<path class="st1" d="M964.9,372C964.8,372,964.9,372,964.9,372c0.5,0,1,0,1.5,0H964.9z"/>
						<path class="st1" d="M512.8,373.7c-3.9-0.1-7.2-0.1-10.3,0C505.7,373.7,509.5,373.8,512.8,373.7z"/>
						<path class="st1" d="M0.9,144.3V142c0,0-0.1-0.1-0.1-0.3L0.9,144.3z"/>
						<path class="st1" d="M0.8,141.7l-0.1-2.5C0.7,140.4,0.7,141.4,0.8,141.7z"/>
						<path class="st1" d="M0.6,134l0.1,5.3C0.7,137.4,0.7,135.2,0.6,134z"/>
						<path class="st1" d="M0.6,206.3l0.2,0.7C0.8,206.7,0.7,206.4,0.6,206.3z"/>
						<path class="st1" d="M0.7,225.2c0-4.5,0.4-11.3,0.3-17.6L0.8,207C1.1,210,0.3,220.9,0.7,225.2z"/>
						<path class="st1" d="M-1.9,303.9l0.2-15.8c-0.2,2.8-0.5,6.4-0.6-0.8C-2.9,307.2-1.8,283.2-1.9,303.9z"/>
						<path class="st1" d="M-2.2,352.9c-0.1-8.5-0.3,0.1-0.4-0.3C-2.4,358-2.4,359.3-2.2,352.9z"/>
						<path class="st1" d="M331.3,376.1l-0.9,0.5C337,376.5,330.6,376.4,331.3,376.1z"/>
						<polygon class="st1" points="399,373.4 392.7,373.1 389.6,373.6 						"/>
						<polygon class="st1" points="439,377.1 436.2,377.2 447.1,377 						"/>
						<path class="st1" d="M1033.8,376.9l-2-0.6C1027.4,376.4,1026.4,377.1,1033.8,376.9z"/>
						<path class="st1" d="M1290.5,376.3c2.8,0.3,10,0.5,14.5,0.2C1299.2,376.4,1293.5,376.2,1290.5,376.3z"/>
						<path class="st1" d="M1017.3,78.9l5.1,0.4c-3.2-0.3-6.4-0.7-9.6-1.1C1014.3,78.5,1015.8,78.7,1017.3,78.9z"/>
					</g>
				</g>
			</g>
		</g>
	</g>
</g>
</svg>
