<svg id="Layer_1" xmlns="http://www.w3.org/2000/svg" viewBox="0 0 1366 380">
  <style>
    .hills--stroke{fill:#207b50}
    .hills--fill{fill:#8cc63f}
  </style>
  <g id="Foreground">
    <path d="M-.9 86.8C148 128.1 434.7 53 568.7 12c43.9-13.4 91.4-7.9 136.3 2l278 61.4c58 12.8 118.1 13.1 176.3.8l205.8-43.4v342H-.9v-288z" class="hills--fill"/>
    <path class="hills--stroke" d="M.4 86.8C.2 85-.2 86-.1 90.9l.7 3.5-.2-7.6zM-.8 119.8c.3 5.8.9 12.4 1.5 8.7-.6-5.7-.4-7.1-1.1-13.3-.1-4.9.2-8.6.5-7.8-.2-1.7.1-7.6-.3-10.3-.5 6.4-.5 14.5-.1 23-.2 1.9-.4.2-.5-.3zM224.4 375.7l-3.1-.1c.9.1 1.9.1 3.1.1zM522 376.1c-2.3 0-3.2.1-3.3.1 2.1 0 3.8-.1 3.3-.1zM572.8 376.8h-3c1.1 0 2.3.1 3 0zM224.4 375.7l7.9.2c.6-.2-4-.1-7.9-.2zM.8 186.1c0-1.7-.1-3.1-.2-4.3 0 1.4 0 2.7.1 4.1 0 0 .1.1.1.2zM93.2 376.3h-2.4c-.7.1-1.4.2-2 .3l4.4-.3zM-2.5 368.3c0 1.1.1 1.9.3 2.5.1.3.2.5.3.8.1.3.2.6.2.8-.1-.9-.2-1.5-.3-2.4-.1-.8-.1-1.8-.1-2.7-.1-.1-.2.2-.4 1zM-1.5 208.6l-.1-2.8c.1.7.1 2 .1 2.8zM165.3 376.4c.2.1.5.2.9.2 0-.1-.4-.2-.9-.2zM114.8 101.4c.1-.1 0-.1 0 0-.5-.1-.7 0 0 0z"/>
    <path class="hills--stroke" d="M-.9 86.7l1.6.4c.2-.1.4-.1.4-.2l-2-.2zM665.8 377.5h-.4c-2.5.1-1.1.1.4 0zM1367.4 220.6c-.5 9.7-.6-15.7-1.2-1.2.2-1.4.9 13.2 1.2 1.2zM.7 188.7v4.1c.1-1.9.1-3.1 0-4.1zM1366.2 219.4l-.1 1.5c.1-.6.1-1 .1-1.5zM880 377.2c-.4-.1-1.3-.2-2.2-.2.1 0 .6.1 2.2.2zM720.4 376.4l3.9.1c-1.5-.1-2.8-.1-3.9-.1zM962.9 376.4c2.1 0 2.9.1 5.8 0-.3 0-.5 0-.9-.1-1.1.2-2.5.2-4.9.1zM1049.1 376.4c-.5 0-1.1-.1-1.6-.1h-2.7l4.3.1zM374.6 65.7c-1.9.3-3.1.3-4 .4 1.4.1-10.9 2.9 4-.4zM.5 186.1c.1.5.2 1.2.2 2.6v-2.9c-.1-.2-.2-.3-.2.3zM966.4 372l13.7.1c-3.9-.1-8.8-.1-13.7-.1zM977.6 76.5l-3.1-.6c1.2.3 2.3.5 3.1.6zM1020.7 372c2.4.2 5 .3 7.7.4.6 0 1.2-.1 1.6-.1l-9.3-.3zM370.6 66.1z"/>
    <path class="hills--stroke" d="M282.2 84.7c12.9-2.2 5.9-1.7 8.6-2.6 15.3-3 7.2-.8 12.5-1.3 2.4-.5 4.6-1 6.8-1.4 2.1-.5 4.1-1 6.1-1.5 3.9-.9 7.5-1.8 11-2.5.6 0 2-.2.4.3 5-1.3 12.5-2.8 20.2-4.4s15.6-3.4 21.3-5c.9-.1 1.3-.2 1.6-.2-2 .1-2.3-.3-2-.6 5.7-1.3 10.5-2.8 12.8-2.8-3.5.8-3.8 1-5.4 1.5l5.9-1.5c5.5-.5-8.1 2.1-8 2.6 5.8-1.4 12.1-3 18-4.5s11.5-2.9 16-3.9c2 .2-20.8 5.1-8.8 2.9-4.6 1-9.2 2-13.9 2.9 10.8-1.3-8.4 1.8 1.5.8 18.3-4 20.3-5 38.4-9.2 4-1.4-1.5-.2 2.5-1.6 12.8-3.5 17.9-4.4 22.2-5.1 4.3-.7 7.7-1.2 17-4.1 4.8-1.7 6.4-3 19.9-6.2l-4.4 2c17.5-4.7 9.7-3.7 28.1-8.3-3.2 1.2-13.6 4-11 3.4 12-2.7 8.3-2.7 17.3-5.3l2.1.1c9.2-2.7 18.9-5.6 28.8-8.7 4.9-1.6 10-3.1 15-4.7 2.5-.8 5.1-1.6 7.6-2.4 2.5-.7 5-1.5 7.6-2.1-.6.2-1.7.6-2.1.9-.4.2-.1.2 2.4-.3 12.8-3.3 27-5.1 41.1-5.4 14.1-.2 28.1.9 40.8 2.6 3.3.2 6.5.5 9.8.7 2.3.3 4.2.9 1.7.6 9.9 1.8.6-.3 5.4.2 5.7.9 7.4 1.6 3.8 1.2 2.2.3 4.6.7 7.2 1.1 2.6.5 5.4.9 8.3 1.5 5.8 1.1 12 2.4 18.3 3.7 12.5 2.6 25.2 5.4 34.3 7.8l-3.6-.6c14.2 3.4 16.4 2.4 29.5 5.8l-2.6-.5c30.9 7.1 65.3 14.1 88.8 20.2 4.7.2 30.6 7.1 32.8 6.4 17.6 4.5 12.5 3.6 37.3 9.4 6.6 1.5 10.1 1.5 18.3 3.2l.1.6 11.3 1.8 5.8 2 7.8 1.5c-3.1-.7-6.5-1.7-6-1.8 6.1 1.2 13.4 3 19.3 4.3 5.9 1.5 10.3 2.4 10.4 2.6 9.7 1.6 19.4 2.8 29.1 3.7-.7.2-5.6-.3-9.4-.7 7.8.7 8.5.9 9 1.1s.9.4 8.1.8c-1.9-.3 1.1-.3 1.4-.4 1.8.3 4.1.5 6.8.7 2.7.2 5.8.5 9 .6s6.6.4 10 .4c3.3 0 6.6.1 9.6.1-.8.2-1.5.3-2.3.4 10.9.1 22.4-.2 34.2-1.2 11.8-1 23.9-2.4 36-4.3-4.3.6-6.1.6-5.8.3.1-.1.8-.3 1.8-.6 1-.2 2.5-.5 4.2-.8l2.9.2c4.5-1.2-7.4 1 1.9-1.1 4.5-.7 6-.9 5.8-.6s-2.2.9-4.8 1.4c3.6-.6 7.2-1.5 10.9-2.3.7.1-1.9.7-2.5 1 4.4-1.2 18.8-3.2 25.1-5.3l.6.1c23.8-5 34.5-7.5 53.9-11.6.3-.6 7.9-2.1 13.5-3.8 14.3-2.8 30.2-5.7 47.3-9.4 12-2.8 3.4-1.2 8.8-2.7 1 .3 18.1-3.3 9.3-1.1 10.3-2.2 16.9-3.6 24.1-5.2 3.6-.8 7.4-1.7 11.9-2.7 2.3-.5 4.7-1.1 7.4-1.7 1.3-.3 2.7-.6 4.2-1 .4-.1.7-.2 1.1-.3.2 0 .3-.1.5-.1.3-.1.6-.2 1-.2H1361.3c-.1 0-.3 0-.4.1-1 .1-1.4.1-.5-.1.6-.1 1.2-.3 1.8-.4.5-.1.9-.2 1.3-.2 0 1-.1 1.7-.2 2.3-.1 1-.2 1.5-.2 1.3l-.1-1.3c.8 29.9-1.5 68.9-.4 92.7l-.1-1.3.6 24.7c-.1 11.3-.4-6.8-.7 1.6.9 26.6-.1 42 .4 64-1.5 17 .1 60.2-.9 83.1l.4-1.3c.3 5.9-.2 7.2-.3 11.5.3-.6.3-6.4.5-2.7.1 10.7.1 21.6.1 32.6 0 5.5 0 11-.1 16.5v14.2c-28.9-.3-58.1-.5-86.7-.8-18.8-.1-10.7 1.8-34.4 1l6.7-.7c-37.9.8-77.6 0-114.7.6 2.2-.2 2.3-.4 5.9-.3-3.9-.2-11.2-.2-17.5-.1-3.1.1-6 .1-8.2.2-2.1.1-3.5.2-3.5.3-5.8 0-1.3-.4-4.9-.6-7.9-.3-19.7.6-23.9.1-.7-.1 2.2-.2 3.7-.2-5.1.2-23.9-.1-19 .5-13.9-.3-26.7.2-37.8-.1-7.2.6-23.9-.3-26.2.6 1-.9-24.4-.7-33.2-.3 3-.3-7.7-.3-4.2-.7-10.1 0-19.3.2-17.5.6-18.5-1.1-37.2.9-47.7-.5-29.9.5-57.5.8-84.4 1 1-.9 29.7-.1 28.6-1-25.5.4-40.2 1.1-65.5.9-6.5-.1 3.7-.4 5.9-.5-25.5.4-49.2-.1-71.9.4.1-.1 2.5-.2 4.8-.2-4.5 0-10.4-.1-9.9.3l4.4-.1c7.1.6-17.7 1.2-18.5 1.6 7.6-1.2-22.4-.3-10.3-1.8-2.9.1-6.6.3-6 .5-4.4-.1-5.7-.2-1.3-.6-16 .2-10.3.7-24.8.7.1-.2 3-.3 4.5-.5-7.3.4-14.7.8-27 .6.7-.1-.7-.3 3-.3-21 .1-35.9 1-58.9.7 6.8-.9-7.8-.3-9.1-1l-12.4.2 5 .4c-10.9 0-20.5.5-29.8.3l8.1-.3-20.4.1 11.5.3c-11 .4 1.2.9-13.3.7 2.9-.1-10.9 0-16.5-.4-5.4.2-10.9.5-18.9.3-2.1-.2 1.7-.8.3-1-5.3.6-25.5.2-32.2.8 2.2-.2 2.4-.5 1.6-.6l-4.5.5c-5-.2-5.8-.2-5-.6-15.1-.1 4.8.9-13.2.5 1.4 0 .7-.1 3.7-.2-18.1-.2-34.9.3-51.5.1-4.9-.8 14.5-.2 8.9-.8-23.9.1-49.5.9-72.7.7l4.3.1c-3.2 1.1-17.2-.5-28.9 0 2.9-.1 3.8-.6 3-.5-15.9-.2-32.4.3-56.4.6l3-.3c-9.3-.2-24.6-.1-34.7-.3-3 .3-8.8.2-5.3.6-31.1-1.6-59.4.8-87-.5 3.3 0 7.9-.2 5.2-.2l-23.5.3c1.9.5 3.1.3 8 .6-3 .3-9.6.5-15.4.5 10.6-.3-.1-.7-4.7-1 .8.1-.8.3-.4.4-12.3-.8-2.1.9-18.8.4l.9-.2c-6.3.1-12.1.4-18.8.4-2.8-.5 6.7-.2 7.1-.7-9.5 0-18.8 1-27.4.5 4-.1 9.8-.2 13.9-.3-9.4-.6-10.5-.5-17.4-.6h.7l-15.9.4 4.1.2c-1.4.2-2.7.3-4.1.4-.6 0-1.2.1-1.8.1s-1.1.1-1.7.1c0-.5 0-.9-.1-1.4v-1.5-3.7-7.7c0-5.3-.1-10.9-.4-17.1.9 15.6.5 2.6 1.1 3.8.2-4.1.4-10.3.5-8.5-.5-7.6.4-12.6-.3-23.3.2-.5 0-8.1.5-6.4-.2-9.8-.3 2.3-.6 1.5-.7-15.2.8-35.7-.1-57.5-.4-18.8-1-22.3-1.4-39.8.3-5.9.7 4.8.7 4.8.3-9.5.2-16.7 0-25.6.2 1.8.3-.1.5-2.8-.1-7.2-.7-4.8-.4-14.3.2 1.6.6 3.7.8 7.2-.2-8.5-.5-16.9-.7-25.6.3-2.3.5 5.3.7 8.4C.3 154.7.2 139-.3 136l-.1 6.2c0-3.6.5-1.8.6.8.4 8.5-.2 12.2-.4 12.7l-.1-6.3c-1.1 6.4.2 25.1.1 37.7l-.8-5.2.6 12.9c-.2 2.7-.7 4.6-.8-1.6-.4 9 .3 8-.2 15.7-.1.9-.1.5-.1-.3l.2 8.8c-.2-1.7-.6 1.5-.5-3.9-.5 15.8.6 25.5 0 31.5l-.1-1.3c.3 22 .6 2.1 1.3 18.6l-1.3 11 .6 2.2c0 2.3-.1 6.7-.3 5.9.4 8.4.3-1.4.7 3.5-.6 10.9.3 30.1-.7 32.5.5 3.9.4-10.4.7 1.2-1 3.3.2 13.5-.3 23.4-.5-3.1-.3-12.5-.7-2.5.9 6-.2 19.4 0 27.8.1.1.2.9.3 2.2 0 .7.1 1.4.1 2.4v3.7h12.4c4.3 0 8.9 0 13.1-.1-.9.2 26.5.4 39.6.7l-.4.1c2.5-.7 16.1-.6 25.9-.7-.4.4-2.2.6-7.5.8h9.3c2.2-.2 5.1-.4 11.1-.4l-2.3.5c12.3 0 24.8-.6 40.7-.3.9-.5-12.6-1.4 4.2-1.8.6.3 1.2.8-3.1.9 1.4 0 5.1-.2 8-.1l-6.7.5c7.2.2 3.8-.4 9.5-.3-.1.4 4.3.3 3.4.6-1.5 0-5-.2-7.2 0 6.5.1 14.4.3 17 .6-.6-.2 0-.5 4.8-.6 12.3 0 4.2.5 11.4.7 3-.3 10.8 0 11.1-.6 3.6 0 4.3.3 5.7.4 6.4-.3 29.8-.1 22.6-.7h-1.6 1-.1.1c20.9-.6 43.4.3 64.2.1v.2c12.4-.2 27.6-.1 36.4-.6 3.7 0 8.6.4 7.1.6 9.5-.1 10.5-.4 24.2 0-9.5.3 3.3.3-9.8.3 12.3.2 15.1.5 28.3-.1-4.5.5 9.3.6 15.1.5l-8.6-.4c6.6-.1 12.3 0 18.2 0l-3.2.7c25.2.8 45.4-1.4 64.5 0 6.7-.5-13.7-.3-7.7-.9 11.6.1 23.6 1 27.3 1 15.9.4 14.8-1 31.4-.7-2.1-.2-4.1-.9 8.3-1.1 11.6.1 14.2 1 6.9 1.2-2.8 0-4.1-.1-4-.1-3.7.1-8.7.2-4.1.4l1.5-.2c5.7.2 21.7.2 17.9.6 8.8-.2 3.7-.4-2.7-.5 14.9.3 23.2 0 38.5.2-2.4-.1-4.7-.4-2.3-.4 22.4.3 9.9-.5 25.1-.6 8.6.4-3.1.9 12.2.6 9.3.2 2 .6-1.7.8 13.9-.5 26 .3 34 .4l-7.3.2c4.4-.1 8-.1 11.6-.1l-4.2-.5c4.3.1 8 .1 7.9.3 4.4-.3-3.4-.8 5.4-1.2 5.7.2 17.5-.3 19.5.4-18.1-.2 2 .6-13.3.7 3-.1 6.5-.1 10.9 0 .6.1-.6.1-1.8.2 17.3.6 7.9-.7 25.9-.7-2.3.4 4.2.7 7.1.6-7.2 0-3.5-.6 3.2-.9 11.5.3 12.5-.2 18.5-.2l-6.9-.1c2.3-.4 8.1-.3 16.1-.4.7.3-7.3.2-4.4.3 8.9-.6 20.1.6 32.5.2 5.7.2.6.7 5.6.8 13.9-.5 15.1.5 29.7.1-4.2-.5-4.9-.4 5.3-.8l-24 .3 15.4-.7c-7.2 0-15.3.3-19.6.2 7.3-.4 6.6-.3 3.1-.7 9.9.7 19.7-.4 31.1.1l-.3 1.2c17.2.5 30.6-.6 53-.3l-7.2-.2c3-.5 13.8-.1 21.1-.3-.7.4 3.9.5 7 .8-.4-.3 16.4 0 18.4-.8l10 .5c18.1.2 20.6-1.1 38-1-5.2.4 2.7.7-9 1 5.8 0 11 .1 11.1-.2 3.4.2 16.1-.5 21.4-.2 2.4-.2 3.2-.6 9.8-.6.7.1 0 .2 0 .2 0-.2 10.2-.3 4.5-.7 17.9 1.2 49.9-.1 65.5 1 12.7-.1 27.9-.3 39.4-.3-.7.1 0 .2-2.2.2 15.9.4 9.7-1.1 27.8-.7 9.2.6-9.6.3-3.8.6 2.5 1.3 21.8-.2 33.9.6l-2.9.1c9.3.4 22.6-.5 37.8-.4 0 0-.7.1-.1.2 10.4-.7 30-.9 44.6-1.1-4.5.5-6.6.3-3.9.8 6.5-.1-1.9-.8 11.1-1 4.2.3 13.7.5 14.9 1.1h-12.3c6.3.7 15.9 0 22.4.1l-.8.3c18.9-.1 19.1-.9 39.4-.8l-2.1-.2c11.1-.8 9.3.4 20.3-.1l3.3.8c7.3-.2 25.6-.8 38.7-.9-7.4.6-22.8.9-32.3 1.2 7.2 0 24.6-.1 28.4-.4-2.9.1-6.6.3-9.5.1 3.4-.2 7.2-.4 11.4-.6 2.1-.1 4.3-.1 6.6-.2 1.2 0 2.3 0 3.5-.1h4.4v-10.4c1.5 2.6.4-37.6 1.6-48.1-.6-25.5.2-50.7.2-80.5-1.2 10.6 0-8.7-1.3-6.9-.1-6.9-.1-9.6 0-10.2l.7-21c.4-5 .3 6.6.5 6 .1-15.2.5-6.4.8-16.4-.4 2.1-.6-5.3-.5-13.9l-.6 12.2c-.7-21.2 1-18.3.4-39.7l.4 6.8c-.2-11 0-40.5-1-51.2.1-1.9.5-4.5.6.3.1-11.3-.1-23.7-.3-35.7-.1-6-.2-12-.2-17.7 0-2.8 0-5.6-.1-8.3V30.7c-2.4.5-4.8 1-7.1 1.4-1.5.3-3 .6-4.4.8l1.9-.7c-4.8 1.1-8.2 2.3-14.3 3.3.3-.2 1.9-.7-.4-.2-2.5.6-12.6 3.2-19 4.4l5.4-1.5c-25.1 4.9-38.2 8.9-59.2 13.5-.1-.9-19.9 3-29.7 4.9l.3-.2c-29.2 6-49.4 11.2-76.3 17.2-4.2.7-9.9 1.6-16.4 2.8-3.3.5-6.8 1.1-10.4 1.7-3.7.5-7.5 1-11.4 1.6-15.6 2-32.6 3.1-46.2 3 4.2.1-.7.7-5.5.8-6.4-.1-17.8.3-16.7-.5l2.3.1c-2.4-.5-6.9-.8-12.1-1.2-2.6-.2-5.3-.4-8.1-.6-2.8-.2-5.5-.5-8.1-.7l-1.8.9c-13.3-2.1-30.8-4.6-46.6-8-15.9-3.3-30.2-6.3-37.3-8.6-6.4-1.2-14.4-2.9-20.7-4l.5-.5c-17.7-4-26.5-6.1-48.4-10.8l4.5.6c-12.3-2.8-15.9-1.8-27.3-4.3l-3.2-1.6C830.1 39.6 808.4 34 787 30.1c.4 0 1.1-.1 4.6.6-10.1-2.3-39.1-9.2-35.6-7.3-.1-.8-22.2-5-33.9-7.2l1.9-.1c-10-1.5-10.3-1.4-24.1-4.1-3.2-.8-2.8-1 1.5 0-5.4-1.3-7.6-1.6-10-1.9-2.4-.4-5.2-.7-11.8-2l5 .5c-5.6-1.1-8.2-1.4-10.2-1.6s-3.3-.3-6.5-.5c-1.8-.2-4-.5-6.4-.8s-4.9-.6-7.2-.9c-4.7-.5-8.7-1.1-9.6-1.4-1.6.2-7.8.2-14.6 0-.9-.2 1.6-.3 2.8-.3-4.8-.3-9-.2-12.8-.1-1.9.1-3.7.2-5.4.3-1.7.1-3.4.2-4.9.4-6.4.6-11.9 1.4-18.5 2.2-.3-.1-1.2-.1-2.3.1 15.1-2.7 27.4-2.8 26.2-2.8 0-.2-3.1-.3-5-.3-.9 0-1.6 0-1.3-.2.2-.1 1.3-.4 3.7-.7-.6.1-1.3.1-1.9.2l-2.1.3c-1.4.2-2.9.4-4.5.6s-3.2.5-4.9.7c-1.7.3-3.4.6-5.1.8-1.7.3-3.4.7-5.2 1-1.7.4-3.5.6-5.1 1.1-1.7.4-3.3.8-4.9 1.1-.8.2-1.6.4-2.4.5-.8.2-1.5.4-2.2.6-.6.1-1.1.2-1.6.3l1.2-.4c-2.7.7-5.1 1.4-7.3 2.2-3.7 1-6 1.7-9.5 2.7-1.5 0-13.5 3.8-19.4 5.5.6.4-7 2.5.3.9-.9.2 1.1-.4 5-1.5.9-.3 1.9-.6 2.5-.8-.1 0-.2.1-.4.2 3.8-1.2 8.8-2.7 14.5-4.4-4.5 1.7-9.3 3.3-15.8 4.9-2.9 1.2-6.1 2.5-7.9 3.3-8.2 1.6-23.8 5.6-26.1 5.7-17.8 5.4-42.2 11.7-53.3 15.7-5.1 1.4-6 1.2-7.9 1.6 2.9-.9 6.5-1.8 8-2.3-10.2 2.9-30.4 7.8-32.7 9.1-13 2.8 7.1-2.4-10.7 2l2.4-.8c-17.7 3.7-31.8 7.3-46.5 11-14.7 3.6-29.9 7.3-49.7 10.3 2.7-.4 4.1-.7 4.7-.6-44.8 8.1-92.4 16.9-137.3 20.2-6.4.5-9.9.9-12.8 1.3-2.9.4-5.2.8-9 1.2l-2.8-.4c-4.4.5-8.8 1.1-13.3 1.6-4.7.4-9.1.5-13.4.7-1.1 0-2.2 0-3.2.1h-3.2c-2.2 0-4.3 0-6.5-.1-4.4-.1-9 0-13.9-.1h-7.8c-2.7 0-5.5.1-8.5.1l3.1.5c-4.3-.2-11.1-.3-16.6-.5-5.5-.3-9.8-.6-9.1-.8-.9 0-2.8.2-6.2-.2l-.2-.3c-1.8 0-3.5-.2-5.3-.3l-5.3-.4-5.3-.4-2.6-.2-2.6-.3c-8.1-1.3-7.4-1.5-7.7-1.8-.1-.2-.5-.4-2.3-.7-.9-.2-2.2-.4-3.9-.7-1.8-.4-4-.8-6.9-1.4-2.2-.4-4.8-.8-7.5-1.2-2.7-.6-5.4-1.1-7.7-1.6-4.7-.9-7.9-1.4-6.3-.9 3.5.9 8.8 2.4 9 2.7l-7.9-1.8c-.8.3-2.8.2-2.2.9.6.6 3.8 1.8 13.5 4.5 4.6.8 9.2 1.4 13.9 2.1l2.2.6 2.2.5c-1.9-.2-3.9-.6-5.8-1l-5.8-1.1c3.2.8 5.9 1.4 8.4 1.8s4.7.5 7.1.7c1.1.4 3 .8 5.7 1.3 4.6.4 9.2.5 13.7.7 1.6.5-6.2.1 3 1.2 6.4.2-6.1-1.4 4.5-.7 6.6.8 4.7 1.1 12.5 1.2 1.1.3-.6.4-3.7.3 7 .3 18.5.7 22.1.3 3.5.4 9.4.3 14.3.4 4.9 0 8.9.1 8.6.5 2.2-.3 12.3-1 18.7-1.2-2.9.4-2.9.5-1.2.5s4.9-.2 8.4-.3c3.5-.2 7.3-.3 10.1-.4 2.7-.1 4.4-.1 3.6.3 2.1-.4 5.2-.7 8.7-1.1 3.6-.3 7.7-.6 12-1.1 4.3-.4 8.8-.9 13.2-1.3 4.4-.5 8.6-1 12.4-1.6-.8.2-2.5.5-3.8.6 8.6-.9 11.1-.8 16.6-1.3.5-.5 4.1-1.1 8.4-1.9 2.2-.4 4.5-.8 6.8-1.1 2.3-.4 4.4-.8 6.2-1.2 10.6-.7-6.2 1.8-2.8 2.1-.6-.6 18.1-3.2 14.5-3.2 8.1-.7 6.9-.8 11.1-.8 1.2-1.2 7.4-1.3 13.9-3 11.6-1.5 3.1.4 15.7-2 5.6-1.5-5.6.7-5.6.7zM578.1 11c-2.5.6-4.6 1.3-6 1.7 1.3-.3 3-.9 6-1.7zm25.1-4.3c-1.5.1-3.3.4-5.1.6-1.8.3-3.8.4-5.8.8-.9 0 0-.4 2.5-.8-1.4.4 4.6-.3 8.4-.6zm-53.5 8.6c3.9-1.2 5.2-1.5 5.8-1.6-1.8.6-4 1.2-6.8 2.1-.1 0-.3.2-.4.2.2-.2.6-.5 1.4-.7z"/>
    <path class="hills--stroke" d="M542.9 18c-.6.2-.9.3-1.6.5l2.4-.6c.5-.2.9-.4 1.3-.6-.7.3-1.5.5-2.1.7zM220.8 375.6h.5c-.4 0-.9 0-1.1-.1.3.1.3.1.6.1zM949.6 70.6v-.1l-2.2-.4zM79.6 373.7c-.3 0-.8-.1-1.9-.1.2 0 1 .1 1.9.1zM18.6 373.6l-8.6-.2c3.8.1 6.5.1 8.6.2zM.6 347.5c-.1-.6-.2-.8-.2-.9v.1l.2.8zM717.2 372.6h1.8c4.2-.1 1.3-.1-1.8 0zM495.3 374c2.4-.1 4.7-.2 7.1-.3-3.9-.1-6.9-.1-7.1.3zM964.9 372c-.1 0 0 0 0 0h1.5-1.5zM512.8 373.7c-3.9-.1-7.2-.1-10.3 0 3.2 0 7 .1 10.3 0zM.9 144.3V142s-.1-.1-.1-.3l.1 2.6zM.8 141.7l-.1-2.5c0 1.2 0 2.2.1 2.5zM.6 134l.1 5.3c0-1.9 0-4.1-.1-5.3zM.6 206.3l.2.7c0-.3-.1-.6-.2-.7zM.7 225.2c0-4.5.4-11.3.3-17.6l-.2-.6c.3 3-.5 13.9-.1 18.2zM-1.9 303.9l.2-15.8c-.2 2.8-.5 6.4-.6-.8-.6 19.9.5-4.1.4 16.6zM-2.2 352.9c-.1-8.5-.3.1-.4-.3.2 5.4.2 6.7.4.3zM331.3 376.1l-.9.5c6.6-.1.2-.2.9-.5zM399 373.4l-6.3-.3-3.1.5zM439 377.1l-2.8.1 10.9-.2zM1033.8 376.9l-2-.6c-4.4.1-5.4.8 2 .6zM1290.5 376.3c2.8.3 10 .5 14.5.2-5.8-.1-11.5-.3-14.5-.2zM1017.3 78.9l5.1.4c-3.2-.3-6.4-.7-9.6-1.1 1.5.3 3 .5 4.5.7z"/>
  </g>
</svg>
