<?xml version="1.0" encoding="utf-8"?>
<!-- Generator: Adobe Illustrator 22.1.0, SVG Export Plug-In . SVG Version: 6.00 Build 0)  -->
<svg version="1.1" xmlns="http://www.w3.org/2000/svg" xmlns:xlink="http://www.w3.org/1999/xlink" x="0px" y="0px"
	 viewBox="0 0 1366 647" style="enable-background:new 0 0 1366 647;" xml:space="preserve">
<style type="text/css">
	.st0{fill:#FFFF00;}
	.st1{fill:#FCF03D;}
	.st2{fill:#8CC63F;}
	.st3{fill:#207B50;}
</style>
<g id="Sun">
	<g>
		<circle class="st0" cx="191" cy="119" r="102"/>
		<g>
			<g>
				<g>
					<g>
						<path class="st1" d="M291.7,119c0.2,0.3,0.6,0.1,0.5-0.8l-0.7-0.6L291.7,119z"/>
						<path class="st1" d="M292.7,112.8c-0.4-1.1-1.1-2.3-1.6-1.5c0.7,1,0.5,1.3,1.3,2.4c0.1,0.9-0.2,1.6-0.4,1.5
							c0.2,0.3-0.1,1.4,0.3,1.9c0.5-1.2,0.5-2.8-0.1-4.3C292.4,112.4,292.6,112.7,292.7,112.8z"/>
						<path class="st1" d="M250.7,35.2l0.4,0.4C251,35.4,250.8,35.3,250.7,35.2z"/>
						<path class="st1" d="M197.8,16c0.4,0,0.6,0,0.6-0.1C198.1,15.9,197.8,15.9,197.8,16z"/>
						<path class="st1" d="M188.1,15.1c0.2,0,0.4,0,0.6,0C188.5,15,188.2,15,188.1,15.1z"/>
						<path class="st1" d="M250.7,35.2l-1.1-1.1C249.3,34.2,250.1,34.7,250.7,35.2z"/>
						<path class="st1" d="M289.6,100.6c0.1,0.3,0.2,0.5,0.3,0.8c-0.1-0.2-0.1-0.5-0.2-0.7C289.7,100.7,289.6,100.6,289.6,100.6z"/>
						<path class="st1" d="M269.5,51.7l0.3,0.3c0.1,0.1,0.3,0.1,0.5,0.1L269.5,51.7z"/>
						<path class="st1" d="M280.8,67.3c-0.2-0.4-0.8-0.2-1.1-0.3c0.3,0.1,0.6,0.3,0.8,0.6C280.6,67.7,280.7,67.6,280.8,67.3z"/>
						<path class="st1" d="M291,96l0.2,0.5C291.1,96.4,291,96.2,291,96z"/>
						<path class="st1" d="M259.9,41.7c0-0.1,0-0.2,0-0.3C259.9,41.5,259.9,41.6,259.9,41.7z"/>
						<path class="st1" d="M288,140.3C288.1,140.4,288.1,140.4,288,140.3C288.1,140.2,288.1,140.2,288,140.3z"/>
						<path class="st1" d="M293.1,119l0,0.3c0.1,0,0.2,0.1,0.3,0.1L293.1,119z"/>
						<path class="st1" d="M170.1,16.3C170.2,16.3,170.2,16.3,170.1,16.3C170.7,16.2,170.4,16.2,170.1,16.3z"/>
						<path class="st1" d="M89,141.1c0.1-1.9,1.3,2.8,1.2,0C90.1,141.3,88.8,138.7,89,141.1z"/>
						<path class="st1" d="M289.6,100.1c-0.1-0.2-0.1-0.5-0.1-0.8C289.5,99.7,289.5,100,289.6,100.1z"/>
						<path class="st1" d="M90.3,141L90.3,141l0-0.3C90.3,140.9,90.3,140.9,90.3,141z"/>
						<path class="st1" d="M132.2,32.7c0.1,0,0.3,0,0.5,0C132.7,32.6,132.6,32.6,132.2,32.7z"/>
						<path class="st1" d="M160.2,20.1l-0.7,0.2C159.8,20.2,160,20.1,160.2,20.1z"/>
						<path class="st1" d="M120.3,43.3c-0.3,0.3-0.5,0.3-0.8,0.7c0.1,0,0.1,0,0.2-0.1C119.7,43.8,119.9,43.6,120.3,43.3z"/>
						<path class="st1" d="M109.1,55.6c0.1,0,0.2-0.1,0.3-0.2c0.1-0.1,0.2-0.3,0.3-0.4L109.1,55.6z"/>
						<path class="st1" d="M267,183.4c0.3-0.2,0.6-0.2,0.9-0.2C267.4,183.1,268.8,181.2,267,183.4z"/>
						<path class="st1" d="M289.9,100.6c-0.2-0.1-0.2-0.2-0.3-0.4c0,0.2,0.1,0.4,0.1,0.5C289.8,100.7,289.9,100.7,289.9,100.6z"/>
						<path class="st1" d="M122.8,47l-1.9,1.7C121.5,48.2,122.2,47.6,122.8,47z"/>
						<path class="st1" d="M163.4,214.8l0.6,0.1C163.8,214.8,163.6,214.8,163.4,214.8z"/>
						<path class="st1" d="M115.9,54.2c-0.4,0.2-0.8,0.5-1.2,0.8c0,0.1-0.1,0.2-0.1,0.3L115.9,54.2z"/>
						<path class="st1" d="M267.9,183.2C267.9,183.2,267.9,183.2,267.9,183.2C267.9,183.2,267.9,183.2,267.9,183.2z"/>
						<path class="st1" d="M276.3,168.8c-1.2,2.1,0.1,1.3,0.2,2c-1.4,2.5-1.2,0.8-2,1.5c-0.4,0.8-0.6,1.6-0.9,2.3
							c-0.3,0.7-0.5,1.4-0.9,1.9c-0.2,0-0.3,0.2-0.3-0.1c-0.6,1.9-3.3,4.5-4.2,6.7c-0.2,0.1-0.3,0.1-0.3,0.1c0.5,0,0.8,0.2,1,0.4
							c-0.7,0.8-1,1.8-1.6,1.8c0.5-0.5,0.3-0.7,0.4-1l-0.6,1c-1.2,0.3,0.8-1.3,0.5-1.7c-0.6,0.9-1.3,2-1.9,2.9
							c-0.7,0.9-1.4,1.8-2,2.3c-0.7-0.2,2.6-3,0.6-1.8c0.7-0.6,1.3-1.2,2-1.8c-2.1,0.8,1.1-1.2-1-0.5c-1.2,1.3-1.8,1.9-2.4,2.7
							c-0.6,0.7-1.2,1.5-2.5,2.6c-0.3,0.8,0.6,0.2,0.3,1c-0.8,1-1.4,1.6-2,1.9c-0.6,0.4-1,0.5-1.5,0.6c-0.9,0.2-1.6,0.4-2.7,1.9
							c-0.4,0.9-0.2,1.8-2.5,3.1l0.2-1.1c-2.7,2-0.9,2-4,3.7c0.3-0.6,2-1.7,1.5-1.5c-2.2,0.8-1.1,1.3-2.5,2.3l-0.7-0.4
							c-2.9,2-6,4.5-9.5,6.4c0.1-0.3,0.6-0.8-0.3-0.5c-2.1,1.3-4.6,2.4-7,3.4c-2.5,0.9-5,1.7-7.3,2.2l-1.6,1.1
							c-0.4,0.1-0.8,0-0.4-0.3c-1.9,0.3,0,0.4-0.8,0.8c-1,0.3-1.4,0.1-0.8-0.3c-3,1.5-8.9,3.3-12.5,3.2l0.6-0.3
							c-2.7,0.2-2.9,1.6-5.4,1.4l0.5-0.2c-5.9,0.4-12.4,1-16.9-0.2c-0.4,0.4-1.9,0.2-3.3,0c-1.4-0.1-2.7-0.4-3,0.2
							c-1.6-0.5-2.2-0.8-2.9-1c-0.7-0.3-1.6-0.6-3.9-1.2c-1.2-0.3-2,0.3-3.5,0.1l0.1-0.6l-2.2,0.2c-0.3-0.3-0.6-0.7-0.9-1l-1.4-0.2
							c0.5,0.2,1.1,0.6,1,0.8c-1.1-0.2-2.5-0.7-3.5-1.1c-1-0.5-1.7-1-1.7-1.2l-2.6-0.6c-0.9-0.2-1.7-0.5-2.6-0.7
							c0.2-0.2,1.1,0.1,1.8,0.2c-2.9-0.5-0.2-0.8-2.9-1.2c0.3,0.3-0.3,0.3-0.4,0.4c-0.6-0.4-1.5-0.9-2.6-1.4c-1.1-0.5-2.3-1-3.3-1.4
							l0.6-0.2c-1.7-1-3.7-1.8-5.6-2.9c-1-0.5-1.9-1-2.9-1.6c-0.9-0.6-1.9-1.2-2.8-1.8c1.2,1,0.5,1.5-0.6,0.8l-0.1-0.8
							c-0.9-0.1,1,1-0.7,0.4c-1.3-1-0.5-1.3,0.4-0.9l-1.8-1c0-0.2,0.5,0,0.7-0.2c-0.9-0.2-2.5-2.5-3.8-2.7l0-0.2
							c-0.9-0.7-1.6-1.3-2.3-1.8c-0.7-0.5-1.3-1-1.9-1.5c-0.6-0.5-1.2-0.9-1.8-1.4c-0.6-0.5-1.2-1.1-1.9-1.7
							c-0.4,0.4-1.4-0.7-2.5-1.2c-0.9-1-1.7-2.2-2.7-3.3c-0.9-1.2-1.8-2.4-2.9-3.6c-1.7-1.6-0.8-0.2-1.7-0.8c0.3-0.5-1.7-3-0.4-1.9
							c-1.3-1.5-2-2.5-2.8-3.6c-0.4-0.5-0.9-1.1-1.4-1.8c-0.5-0.7-1.1-1.5-1.9-2.5c0.1,0.6,0.4,1.1,0,1c-0.6-0.7-0.9-1.8-0.6-1.9
							l0.2,0.2c-1.8-2.2-3.1-5.1-4.1-8c-0.6-1.4-1-2.9-1.5-4.1c-0.3-0.6-0.5-1.2-0.8-1.8c-0.3-0.6-0.6-1.1-0.9-1.5l0.1,0.2
							c-0.7-1.4-1.5-2.7-2.1-4.1c-0.6-2,0.8,1.1,0.6-0.5c-0.6-1.1-1-2.1-1.4-3.1c-0.3-1-0.6-1.9-0.8-2.8c-0.5-1.8-0.7-3.5-1.5-5.4
							c0.1-0.4,0.1-0.9,0.1-1.4c0-0.5,0-1.1-0.1-1.7c-0.1-1.2-0.5-2.6-0.7-4.1c-0.2-1.4-0.5-2.9-0.6-4.3c-0.1-1.4-0.1-2.7,0-3.7
							l-0.3,0.3c-0.4-1.1,0.1-1.3,0.2-2.1c-0.3,0.1-0.3,1.2-0.5,0.5c-0.4-4.6-0.2-9.4,0.5-14.2c0.7-4.8,1.7-9.5,3-14
							c0.4-1.7,0.1-2.2-0.1-2.9c-0.2-0.7-0.3-1.5,0.8-3.4l0.3,1.4c0.1-0.9,0.3-1.7,0.6-2.6c0.2-0.9,0.5-1.7,0.7-2.6
							c0.5-1.7,1.3-3.3,1.9-5c0.7-1.6,1.5-3.2,2.2-4.8c0.8-1.6,1.5-3.2,2.2-4.8c-0.1,0.4,0.1,0.5-0.2,1.1c1.1-1,2.7-4.6,2.3-4.9
							c0.6-0.9,0.4,0,1-0.5c1-1.1,1.4-3.4,2.3-3.8c0.1-0.1-0.1,0.4-0.2,0.7c0.3-0.9,2.6-3.5,1.6-3.1c0.8-1,1.6-2,2.2-2.9
							c0.7-0.9,1.3-1.9,2.1-2.5c0.4-1.4,3.1-3.2,2.8-4c0.6,0.8,3.6-2.8,4.5-4.2c-0.2,0.6,1.2-0.8,1-0.1c1.3-1.3,2.5-2.5,2-2.7
							c1.7-0.7,2.8-2,3.9-3.1c1.1-1.1,2.1-2.1,3.3-2.1c4.1-3.7,8.4-6.6,12.7-9.1c0.1,0.5-1.1,1-2.2,1.8c-1.1,0.7-2.2,1.4-1.9,1.7
							c1-0.7,1.8-1.3,2.6-1.9c0.8-0.6,1.6-1.1,2.4-1.6c1.5-1.1,3.2-1.9,5.4-2.8c1.2-0.4-0.5,0.6-0.8,1c2-1.2,4.2-1.9,6.3-2.8
							c1-0.4,2.1-0.7,3.1-1.1c1-0.4,2-0.8,3-1.2c0,0.1-0.4,0.3-0.8,0.5c0.8-0.3,1.9-0.4,1.7-0.8l-0.7,0.3c-1.5-0.2,2.8-2.1,2.9-2.4
							c-1.1,1.5,4.2-0.7,2.3,1.3c0.5-0.2,1.1-0.5,1-0.8c0.8-0.1,1.1,0,0.4,0.5c1.4-0.5,1.9-0.7,2.3-0.9c0.4-0.2,0.8-0.4,2.1-0.6
							c0,0.2-0.5,0.4-0.7,0.6c1.3-0.6,2.6-1.3,4.9-1.4c-0.1,0.1,0.2,0.3-0.5,0.3c1.9-0.3,3.6-0.8,5.3-1.1c0.9-0.2,1.7-0.3,2.6-0.4
							c0.9-0.1,1.9-0.1,3,0c-1.2,0.9,1.5,0.2,1.7,1c0.8-0.1,1.5-0.2,2.3-0.2l-0.9-0.4c2,0.1,3.8-0.5,5.6-0.1c-0.5,0.1-1,0.1-1.5,0.2
							c1.3,0,2.5,0.1,3.8,0.1l-2.1-0.4c2.1-0.2-0.2-1,2.5-0.5c-0.6,0,2.1,0.1,3.1,0.8l0,0c1-0.1,2.1-0.2,3.6,0.1
							c0.4,0.3-0.4,0.8-0.2,1c1.1-0.5,4.7,0.6,6.1,0.3c-0.4,0.1-0.5,0.4-0.4,0.5l0.9-0.3c0.9,0.4,1,0.5,0.8,0.7
							c2.7,0.7-0.7-1.1,2.5,0c-0.3,0-0.2,0.1-0.7,0c3.2,1,6.4,1.4,9.3,2.7c0.6,1-2.6-0.7-1.8,0.2c4.3,1.2,9,2.4,12.8,4.5l-0.7-0.4
							c1-0.7,2.7,1.9,4.8,2.5c-0.5-0.2-0.9,0.2-0.7,0.1c1.2,0.8,2.6,1.5,4.1,2.2c1.5,0.8,3.2,1.6,5.2,2.8l-0.6-0.1
							c1.3,1.2,3.7,2.7,5.1,4c0.6,0.1,1.4,0.8,1.2,0.1c0.5,0.6,0.9,1.1,1.4,1.7c0.5,0.5,1,1,1.5,1.5c1,0.9,2.2,1.7,3.2,2.6
							c1,0.9,2.1,1.6,3.1,2.6c0.9,0.9,1.8,2,2.4,3.1c-0.4-0.4-1.2-0.9-0.9-0.5c1.1,1,2.1,2.1,3.1,3.1c0.1-0.6-0.2-0.6-0.5-1.6
							c0.6,0.2,1.6,1.1,2.3,1.9c-1.6-1.3-0.5,0.5-0.2,1.3c0-0.2,0.3-0.1,0.4-0.2c0.8,2.3,1-0.3,2.5,2.6l-0.3,0
							c0.8,0.8,1.7,1.6,2.4,2.6c-0.1,0.7-0.9-0.9-1.3-0.7c1,1.4,2.9,2.3,3.3,4c-0.5-0.6-1.1-1.5-1.7-2c0.5,1.8,0.7,1.9,1.3,3
							l-0.1-0.1c0.5,0.9,0.9,1.8,1.4,2.7c-0.1-0.3-0.2-0.5-0.3-0.7c1.2,0.6,1.8,1.6,2.4,2.6c0.3,0.5,0.6,1.1,1,1.7
							c0.3,0.6,0.8,1.2,1.3,1.7c-2.1-2.2-0.7-0.2-1.3-0.1c0.2,0.8,0.6,1.9,0.3,1.7c0.5,0.5,0.7,1.1,1,1.7c0.2,0.6,0.5,1.3,1.2,2.1
							c-0.1,0.2,0.6,1.4,0,1.3c0.9,1.6,0.1-0.5,0.4-0.5c1.8,2.3,1.8,6.4,3.9,10c0.7,1.6,1.2,2.6,1.7,3.5c0.3,0.5,0.5,0.9,0.8,1.4
							c0.2,0.5,0.5,1.2,0.8,1.9c-0.1,1.2-0.9-0.7-0.9-0.7c0.1,1.8,0.5,3.1,1,4.7c-0.2-0.3-0.3,0.1-0.4,0.6c0.3,1.3,0.9,0.8,0.9,2.6
							c-0.3-0.3-0.7-0.6-1-1.2c0.2,0.8,0.5,1.5,0.8,2.3c0.2,0.8,0.5,1.5,0.7,2.4c-0.3,0.5-0.6-0.9-0.9-1.5c0.4,1.8,0.9,4.7,1.5,5.2
							l0.1-1.2c0.1,0.7-0.4,0.4-0.6-0.1c-0.6-1.5-0.1-2.3,0.1-2.4l0.3,1.2c0.5-0.7,0.3-1.8-0.1-3.1c-0.4-1.3-1-2.7-1.1-3.9l1,0.8
							l-1.1-2.3c0.1-0.5,0.5-1,0.8,0.1c0.1-1.8-0.6-1.4-0.5-3c0-0.2,0.1-0.1,0.2,0l-0.6-1.6c0.2,0.3,0.5-0.4,0.6,0.6
							c-0.1-1.5-0.6-2.7-1-3.6c-0.4-0.9-0.7-1.6-0.6-2.2l0.1,0.2c-1.5-3.9-0.7-0.2-2.3-3l0.7-2.5l-0.7-0.2c-0.1-0.4-0.4-1.2-0.1-1.2
							c-1-1.3-0.1,0.3-0.9-0.4c-0.1-1.1-0.7-2.4-1.2-3.5c-0.5-1.1-0.9-2.1-0.6-2.5c-0.7-0.5,0.5,2-0.7,0.1c0.3-0.5,0-1.1-0.4-1.7
							c-0.5-0.7-1.1-1.4-1.3-2.4c0.7,0.3,1.3,2,0.9,0.1c-0.7-0.3-1-1.1-1.4-2.1c-0.3-0.9-0.7-1.9-1.1-2.6c-0.3,0.1-0.8-0.6-1.4-1.6
							c-0.6-1-1.4-2.3-2.3-3.4c0.3,0-2.5-4.4-3.8-6.6l0.1,0c-0.9,0.1-2.3-2.1-3.7-3.4c0.4-0.2,0.7-0.1,1.6,0.6
							c-0.4-0.5-0.8-0.9-1.2-1.3c-0.5-0.2-0.9-0.5-1.7-1.3l0.7,0c-0.4-0.4-0.8-0.9-1.3-1.3c-0.5-0.4-0.9-0.8-1.4-1.2
							c-1-0.8-1.9-1.8-2.9-3c-0.5,0.3,0.7,2.7-1.8,0.7c0.1-0.3,0.3-0.7,1-0.2c-0.2-0.2-0.9-0.5-1.2-1l1.2,0.5
							c-0.9-1.1-0.8-0.2-1.6-1c0.3-0.3-0.4-0.8-0.1-0.9c0.2,0.2,0.6,0.8,1,1c-0.8-0.9-1.8-2.1-2-2.7c-0.1,0.2-0.4,0.4-1.1-0.2
							c-1.8-1.5-0.3-0.9-1.2-1.9c-0.6-0.2-1.6-1.3-2-0.9c-0.5-0.4-0.5-0.7-0.6-1c-0.6-0.3-1.7-1.2-2.6-1.8c-0.9-0.6-1.6-0.9-1.3-0.3
							l0.2,0.2c-0.1,0-0.1-0.1-0.2-0.1c0,0,0,0,0,0l0,0c-0.9-0.5-1.8-1-2.6-1.6c-0.8-0.6-1.7-1.2-2.5-1.8c-1.6-1.3-3.4-2.4-5.2-3.3
							l0.1-0.2c-1.1-0.5-2.3-1-3.4-1.6c-1.1-0.5-2.2-1-3-1.1c-0.6-0.3-1.3-1-1-1.1c-1.7-0.6-2-0.5-4.3-1.8c1.8,0.3-0.5-0.5,1.8,0.5
							c-2.1-1-2.5-1.5-5.1-1.9c1-0.2-1.5-1.2-2.6-1.4l1.5,0.9c-1.2-0.3-2.2-0.7-3.3-1.1l0.8-0.4c-1.1-0.6-2.2-0.9-3.3-1.1
							c-1.1-0.2-2.1-0.4-3.2-0.5c-2.1-0.2-3.9-0.5-5.6-1.4c-1.3,0.2,2.5,0.8,1.3,1.1c-2.2-0.5-4.3-1.8-5-1.9c-3-0.7-3,0.6-6.1,0
							c0.4,0.3,0.7,0.9-1.7,1c-2.2-0.3-2.6-1.2-1.2-1.3c0.5,0,0.8,0.1,0.8,0.2c0.7,0,1.7-0.1,0.8-0.4l-0.3,0.2
							c-0.5-0.2-1.6-0.3-2.4-0.4c-0.8-0.1-1.4-0.2-1-0.4c-1.7,0.2-0.7,0.4,0.5,0.5c-2.8-0.4-4.5-0.2-7.4-0.3
							c0.5,0.1,0.9,0.4,0.4,0.4c-2.2-0.1-2.6,0-2.9,0.2c-0.3,0.2-0.4,0.4-1.9,0.5c-1.7-0.2,0.5-0.9-2.4-0.4
							c-1.8-0.1-0.4-0.6,0.3-0.8c-0.7,0.2-1.3,0.3-1.9,0.3c-0.6,0.1-1.2,0.1-1.8,0.1c-1.1,0-2.1-0.1-2.9,0L177,15
							c-0.8,0.2-1.5,0.3-2.2,0.4c0.3,0.1,0.6,0.2,0.9,0.4c-0.8,0-1.5,0.2-1.6,0c-0.8,0.5,0.8,0.7-0.8,1.4c-1.1,0-3.3,0.8-3.8,0.3
							c3.5-0.5-0.5-0.6,2.4-1.2c-0.5,0.2-1.2,0.3-2.1,0.4c-0.1,0,0.1-0.2,0.3-0.2c-3.4,0.2-1.4,1-4.7,1.8c0.3-0.5-1-0.5-1.5-0.2
							c1.4-0.4,0.8,0.4-0.4,1c-2.2,0.3-2.3,0.9-3.4,1.1l1.3-0.2c-0.3,0.5-1.4,0.7-2.8,1.3c-0.2-0.2,1.3-0.6,0.7-0.6
							c-1.4,1.2-3.9,0.6-6,1.9c-1.1,0.2-0.3-0.6-1.3-0.4c-2.3,1.4-2.9,0.7-5.3,2.2c0.9,0.1,1-0.1-0.6,1.2l4.1-2.2l-2.4,1.9
							c1.3-0.6,2.5-1.5,3.4-1.7c-1.2,0.9-1.1,0.8-0.3,0.8c-2,0.1-3.3,1.9-5.4,2.4l-0.5-1.1c-1.6,0.5-2.9,1.3-4.2,2.3
							c-1.3,1-2.7,2-4.6,3c0.4-0.2,0.8-0.4,1.3-0.6c-0.3,0.7-2.2,1.5-3.3,2.4c-0.1-0.4-0.9-0.1-1.6,0.1c0.2,0.2-2.6,1.8-2.5,2.7
							c-0.6,0.2-1.3,0.4-1.9,0.7c-2.9,2-2.5,3.3-5,5.4c0.5-1-0.9-0.2,0.6-1.9c-0.8,0.7-1.7,1.3-1.5,1.6c-0.3,0.1-0.8,0.7-1.4,1.4
							c-0.5,0.7-1.1,1.3-1.6,1.5c-0.2,0.5,0,0.9-1,1.7c-0.2,0-0.1-0.1-0.1-0.1c0.1,0.1-1.2,1.6-0.1,1.1c-3.3,1.6-6.4,7-9,8.8
							c-0.7,1-1.5,2.1-2.2,3.2c-0.7,1.1-1.4,2.2-2,3.1c0-0.2-0.2-0.1,0.1-0.4c-1.9,2.4-0.1,2.2-2.2,4.9c-0.7,0.6-0.6,0.2-0.3-0.3
							c0.2-0.5,0.6-1,0.2-0.6c-0.7-0.1-1.2,0.8-1.7,2c-0.5,1.2-1.2,2.5-2,3.4l0.2-0.5c-1.2,1.4-1.6,4.1-2.8,6.7c0,0,0-0.2-0.2-0.1
							c-0.1,1-0.5,2.4-0.9,3.9c-0.4,1.5-1,3-1.3,4.4c-0.2-1,0.2-1.3-0.5-1c-0.3,1.2,0.9-0.1,0.2,2.3c-0.5,0.7-1.3,2.3-1.9,2.4
							c0.2-0.8,0.5-1.5,0.7-2.3c-0.5,0.5-0.8,1.2-0.9,2c-0.1,0.8-0.2,1.6-0.4,2.1l-0.3-0.2c-0.9,3.5-0.1,3.8-1,7.5l0.3-0.3
							c0.3,2.2-0.8,1.7-0.6,3.8l-0.9,0.5c0,0.4,0,0.8,0,1.4c0,0.6,0,1.2,0,1.9c0,1.4,0,2.9,0,4.1c-0.5-1.5-0.4-4.4-0.5-6.3
							c-0.2,1.4-0.5,4.7-0.3,5.5c0-0.6-0.1-1.3,0.1-1.8c0.4,1.8,0.5,4,0.3,6.8c-1.6-0.6-0.6,7.2-1.6,9.2c0.1,0.6,0.1,1.2,0.2,1.8
							c0.1,0.6,0.1,1.2,0.2,1.8c0.1,1.2,0.1,2.5,0.2,3.8c0.2,2.5,0.3,5.2,0.9,8c0.8-2.2,0.3,1.6,1.5,1.1c0.3,1.3,0.5,1.8,0.4,1.9
							l0.2,4.1c0,0.5-0.2,0.2-0.4-0.2c-0.2-0.4-0.3-0.9-0.4-0.8c0.6,2.9-0.2,1.3,0,3.3c0.3-0.5,0.9,0.8,1.2,2.5l-0.1-2.4
							c0.9,1.9,0.9,2.8,0.9,3.7c0,0.9,0.1,1.9,1.1,3.7l-0.8-1.1c0.9,2,2.8,7.4,4.6,8.8c0,0.4-0.1,1-0.5,0.2c2,4.7,6.1,9.6,7.8,13.1
							l-0.5-0.2c0.6,0.7,1.3,1.1,1.8,2.2c-0.1,0-0.5-0.1-0.2,0.2c0.4,0.4,1.9,1.7,2.5,2.9l-0.9-0.7c0.6,1.1,1.3,1.9,2,2.7
							c0.7,0.8,1.3,1.4,2,2c1.4,1.2,2.7,2.2,4.2,3.7c-0.6,0.6,1.8,3.6,3.1,5.1l-0.1,0c1,1,2,1.9,3,2.7c1,0.8,2,1.5,3,2.2
							c1,0.7,2,1.3,3,2c1,0.6,2.1,1.4,3.2,2c0.5,0.7,1.4,1.4,2.4,2.3c1,0.8,2.2,1.6,3.5,2.5c1.3,0.9,2.7,1.6,4,2.4
							c1.3,0.8,2.6,1.5,3.7,2.3c-0.7-0.5,0.4-0.5,1.3-0.2c1,0.8,3.4,0.9,2.8,1.6l-0.4-0.2c0.5,1.1,3,2,4.8,2.7l0.7-0.9
							c1.1,0.8,2.4,1.6,3.9,2.1c1.5,0.5,3,1,4.6,1.4c1.5,0.3,3,0.7,4.2,1c1.2,0.3,2.2,0.7,2.9,1.2c1.3,0.1,2.8,0.3,4.1,0.3l-0.2,0.5
							c1.7,0.4,3,0.7,4.4,0.8c0.7,0.1,1.4,0.2,2.3,0.3c0.4,0,0.8,0.1,1.3,0.1c0.5,0,1,0,1.5,0.1l-0.9,0.3c2.5,0.2,3.2-1.4,5.4-1.3
							l0.6,0.9c2.1,0,4.3,0.3,6.4,0.3c1.1,0,2.1,0,3.2-0.1c1.1-0.1,2.1-0.3,3.1-0.6c-0.1,0.1-0.2,0.4-0.9,0.5c2,0,7.8-0.3,6.9-1.3
							c0.2,0.8,4.4-0.6,6.5-1.4l-0.2,0.6c1.7-1.1,1.8-1.3,4.3-2.1c0.6-0.1,0.7,0.3-0.2,0.4c2.1-0.2,1.5-0.9,4-1.3l-0.8,0.6
							c2.1-0.6,1.9-0.7,2.9-1.5c1.2-0.7,4-1.2,4.4-0.8c0.2-0.4,1.1-1.2,2.4-1.6c0.2,0.1-0.2,0.4-0.4,0.5c0.9-0.2,1.6-0.5,2.3-0.8
							c0.7-0.3,1.2-0.7,1.7-1c1-0.6,2-1.2,3.2-1.5c0.1,0.1,0.3,0.2,0.5,0.1c-2.6,1.3-4.8,2.1-4.6,2c0.2,0.5,2.4-0.4,1,1
							c0.8-0.6,1.8-1.4,3-2.1c1.1-0.8,2.3-1.6,3.3-2c0.1,0,0.2,0,0.4,0l-0.2,0.2c0.5-0.2,0.9-0.5,1.3-0.7c0.7-0.3,1.1-0.5,1.7-0.8
							c0.4,0.2,2.5-1.1,3.5-1.8c-0.4-0.4,1-1.2-0.5-0.8c0.2-0.1-0.1,0.2-0.8,0.6c-0.1,0.1-0.3,0.2-0.4,0.3c0,0,0-0.1,0-0.1
							c-0.7,0.4-1.5,0.9-2.5,1.5c0.7-0.7,1.4-1.4,2.7-1.8c0.3-0.6,0.7-1.3,0.9-1.6c0.9-0.1,2-0.5,3-0.8c1-0.3,1.8-0.7,2.2-0.6
							c1.4-1.2,3.1-2.4,4.5-3.8c0.7-0.7,1.4-1.3,2-1.9c0.5-0.7,1-1.3,1.2-1.8c0.7-0.8,1.1-0.5,1.5-0.7c-0.4,0.5-0.9,0.9-1.1,1.2
							c1.4-1.5,4.4-4.1,4.2-5c2.1-1.5-0.5,1.5,1.9-1.1l-0.2,0.5c1.4-1,2.5-2.2,3.5-3.3c0.9-1.2,1.7-2.4,2.5-3.7
							c0.8-1.3,1.5-2.6,2.4-3.8c0.9-1.3,1.9-2.6,3.4-4c-0.4,0.4-0.6,0.6-0.7,0.6c0.3-0.4,0.7-0.8,1-1.3l0.9-1.4
							c0.6-0.9,1.2-1.8,1.8-2.8c1.1-2,2.2-3.9,3.2-5.9c2-4,3.6-8.1,5.7-12c1-2.3,0.6-2.7,0.8-4.2l0.7-0.3c0-0.9,0-1.8,0-2.7
							c0.1-0.9,0.4-1.7,0.7-2.5c0.3-0.8,0.6-1.5,1-2.3c0.3-0.8,0.7-1.6,0.9-2.5c0.2-0.9,0.3-2,0.3-3.1l-0.5,0.5
							c0.2-0.8,0.4-2.1,0.5-3.1c0.1-1.1,0.3-1.9,0.5-1.7c-0.1-0.2-0.4-0.6-0.1-1.2l0.3,0c0-0.7,0-1.4,0-2l-0.1-2
							c0.4-3.1,1.3,0.6,1.6-4c-0.1-1.7-0.8-4.9-1-4.2c0,0.7-0.2,1.7-0.6,1.8l-0.1-1.5c-0.9-0.3-1.8-1.4-2.6,2.3l0.5,2.6l-0.5,0.8
							c0.1-0.7,0.1-1.4,0.1-2.2c-0.4,1.2-0.1,2,0.1,2.9c-0.3,0.2-0.5,0.5-0.6,1l0.7,2.6c-0.4,0.3-0.6-1.2-1,0.5c0.3,1.2,1-1,1,0.9
							c-0.6,1.2-0.9,0.8-0.7,2.3c-0.3,0.2-0.4-0.2-0.4-0.7c0.1,0.7,0,1.5-0.1,2.3c-0.1,0.8-0.1,1.5,0.1,1.8
							c-0.4,0.6-0.5,1.7-0.7,2.6c-0.2,0.9-0.4,1.6-0.8,1.4c0.1,0.4,0.2,2.4-0.1,3.5c-0.3-1.2-0.5-0.1-0.9,1.1
							c-0.4,1.2-0.8,2.7-1.3,2.2c0.3,0.9-0.1,2.3-0.6,3.8c-0.2,0.8-0.5,1.6-0.7,2.3c-0.3,0.8-0.5,1.5-0.6,2.2c0-0.2,0-0.5,0.1-0.7
							c-0.7,1.5-1.1,1.8-1.6,2.7c0.6,0.5-0.2,2.8-0.3,4.3c-1.5,1.5-0.3-1.5-1.3-1.2c0.3,0.1,0.1,0.9-0.1,1.7c-0.2,0.8-0.4,1.4,0,1.3
							c-1.1,1.1-0.8,1-1.7,1.4c0.7,0.7-0.5,1.3-0.6,2.7c-1.5,1.6-1.1,0-2,2.2C275.6,170.8,276.3,168.8,276.3,168.8z M237.1,208.3
							C237.1,208.3,237.1,208.3,237.1,208.3c0.4-0.2,0.8-0.4,1-0.6C238,207.8,237.7,208,237.1,208.3z M232.9,210.4
							c0.5-0.2,1.2-0.5,1.9-0.8c0.2,0.1,0.2,0.4-0.3,0.6C234.6,209.9,233.6,210.2,232.9,210.4z M243.8,209.1
							c-0.6,0.5-0.9,0.5-1.1,0.4c0.3-0.2,0.7-0.4,1.2-0.7c0,0,0-0.1,0-0.1C243.9,208.8,243.9,208.9,243.8,209.1z"/>
						<path class="st1" d="M244.6,207.7c0.1-0.1,0.1-0.1,0.3-0.2c-0.2,0-0.3,0.1-0.5,0.1c-0.1,0.1-0.1,0.2-0.1,0.3
							C244.4,207.9,244.5,207.8,244.6,207.7z"/>
						<path class="st1" d="M251.2,35.6L251.2,35.6c0,0,0,0.1,0.1,0.1C251.2,35.7,251.2,35.7,251.2,35.6z"/>
						<polygon class="st1" points="168.6,215.9 168.6,216 169,216 						"/>
						<path class="st1" d="M269.2,55.3c0,0.1,0,0.2,0.1,0.4C269.3,55.6,269.3,55.4,269.2,55.3z"/>
						<path class="st1" d="M275.8,64.6l0.7,1.5C276.2,65.4,276,64.9,275.8,64.6z"/>
						<path class="st1" d="M280,72.3c0.1,0.1,0.2,0,0.3,0l0,0L280,72.3z"/>
						<path class="st1" d="M161.9,23.5c-0.1,0-0.2,0.1-0.3,0.1C160.9,23.9,161.4,23.7,161.9,23.5z"/>
						<path class="st1" d="M202.7,18.5c-0.4,0-0.9,0.1-1.4,0.1C202.1,18.8,202.6,18.9,202.7,18.5z"/>
						<path class="st1" d="M123,46.8C123,46.8,123,46.8,123,46.8c-0.1,0.1-0.1,0.1-0.2,0.2L123,46.8z"/>
						<path class="st1" d="M199.4,18.5c0.7,0.2,1.3,0.2,1.9,0.2C200.7,18.5,200,18.4,199.4,18.5z"/>
						<path class="st1" d="M290.7,108.3l0,0.4c0,0,0.1,0,0.1,0L290.7,108.3z"/>
						<path class="st1" d="M290.8,108.8l0.1,0.5C290.9,109,290.9,108.8,290.8,108.8z"/>
						<path class="st1" d="M291.1,110.2l-0.2-1C290.9,109.6,290.9,110,291.1,110.2z"/>
						<path class="st1" d="M289,96.9l-0.2-0.1C288.9,96.9,288.9,96.9,289,96.9z"/>
						<path class="st1" d="M288.2,93.5c0.2,0.8,0.1,2.1,0.5,3.3l0.2,0.1C288.4,96.3,288.7,94.2,288.2,93.5z"/>
						<path class="st1" d="M285.7,78.6c0.3,0.9,0.6,1.9,1,2.9c0-0.6,0-1.3,0.6-0.1C286.5,77.6,287.1,82.3,285.7,78.6z"/>
						<path class="st1" d="M282,70c0.8,1.4,0.3-0.2,0.4-0.1C281.7,69.1,281.5,68.9,282,70z"/>
						<path class="st1" d="M233.1,24.7l0.4-0.4C232.3,23.8,233.4,24.5,233.1,24.7z"/>
						<path class="st1" d="M220.2,22.7c0.4,0.2,0.7,0.4,1,0.6l0.7-0.3C221.4,22.9,220.8,22.8,220.2,22.7z"/>
						<polygon class="st1" points="213.8,17.2 214.3,17.3 212.2,17 						"/>
						<path class="st1" d="M110.6,52.9l0.7,0.1C111.8,52.3,111.3,51.7,110.6,52.9z"/>
						<path class="st1" d="M89.8,97.3c-0.5,0.5-0.9,1.8-0.7,2.7C89.3,98.9,89.8,97.9,89.8,97.3z"/>
						<path class="st1" d="M154.8,217l-1-0.2c0.6,0.2,1.2,0.4,1.8,0.5C155.4,217.3,155.1,217.2,154.8,217z"/>
					</g>
				</g>
			</g>
		</g>
	</g>
</g>
<g id="Background">
	<g>
		<path class="st2" d="M0,222l22-11c17.8-8.9,38.6-9.9,57.3-2.8l124.4,47.6c22.1,8.4,46.5,8.1,68.3-0.9l102.1-42.3
			c24.6-10.2,51.9-12.3,77.7-5.9l105.1,25.9c26.5,6.5,54.5,0.1,75.5-17.2l112.5-92.5c7-5.8,17.1-5.7,24,0.2l88.8,75.5
			c16.4,13.9,38.3,19.8,59.4,15.6c47-9.4,79.7-33.2,125.9-28.2c40.3,4.4,115.4,34.4,154.6,51c16.4,6.9,34.9,6.7,51.1-0.7L1365,183
			v323H-1L0,222z"/>
		<g>
			<g>
				<g>
					<g>
						<path class="st3" d="M1.3,222c-0.2-1.8-0.6-0.8-0.5,4.2l0.6,3.6L1.3,222z"/>
						<path class="st3" d="M0,255.8c0.3,5.9,0.8,12.7,1.5,8.9c-0.6-5.9-0.3-7.3-1.1-13.6c-0.1-5,0.2-8.8,0.5-7.9
							c-0.2-1.8,0.2-7.8-0.2-10.5c-0.5,6.5-0.6,14.8-0.2,23.5C0.3,258,0.1,256.2,0,255.8z"/>
						<path class="st3" d="M240,506.9l-3.2-0.1C237.7,506.9,238.8,506.9,240,506.9z"/>
						<path class="st3" d="M544.3,507.3c-2.3,0-3.3,0.1-3.4,0.1C543.1,507.4,544.8,507.3,544.3,507.3z"/>
						<path class="st3" d="M596.3,508c-1.1,0-2.1,0-3.1,0C594.4,508,595.5,508.1,596.3,508z"/>
						<path class="st3" d="M240,506.9l8.1,0.2C248.7,506.9,243.9,507,240,506.9z"/>
						<path class="st3" d="M1.3,323.5c0-1.7-0.1-3.1-0.2-4.4c0,1.4,0,2.8,0.1,4.1C1.3,323.3,1.3,323.4,1.3,323.5z"/>
						<path class="st3" d="M105.8,507.5l-2.5,0c-0.7,0.1-1.4,0.2-2.1,0.3L105.8,507.5z"/>
						<path class="st3" d="M2.9,507.6c2.3,0,3.1-0.5,4-0.8c-0.7,0.1-1.4,0.2-2.3,0.3c-0.4,0-0.9,0-1.3,0.1c-0.5,0-1.1,0-1.6,0
							c0,0.1,0,0.1,0.3,0.2C2.2,507.4,2.5,507.5,2.9,507.6z"/>
						<path class="st3" d="M-1,346.6l-0.1-2.9C-1.1,344.5-1,345.7-1,346.6z"/>
						<path class="st3" d="M179.5,507.6c0.2,0.1,0.5,0.2,0.9,0.2C180.5,507.7,180.1,507.6,179.5,507.6z"/>
						<path class="st3" d="M111.7,223.5C111.8,223.4,111.7,223.4,111.7,223.5C111.2,223.2,111,223.2,111.7,223.5z"/>
						<path class="st3" d="M-0.1,221.9l1.5-0.8c0.1-0.2,0.2-0.3,0.2-0.4L-0.1,221.9z"/>
						<path class="st3" d="M691.4,508.7c-0.2,0-0.2,0-0.4,0C688.4,508.8,689.9,508.8,691.4,508.7z"/>
						<path class="st3" d="M1367.3,306.7c-0.5,9.9-0.6-16.1-1.2-1.2C1366.3,304.1,1367,319,1367.3,306.7z"/>
						<path class="st3" d="M1.3,326.2c0,1.4,0,2.8,0,4.2C1.3,328.5,1.3,327.2,1.3,326.2z"/>
						<path class="st3" d="M1366.1,305.5L1366.1,305.5l-0.1,1.5C1366.1,306.4,1366.1,306,1366.1,305.5z"/>
						<path class="st3" d="M910.5,508.4c-0.4-0.1-1.3-0.2-2.2-0.2C908.3,508.2,908.8,508.3,910.5,508.4z"/>
						<path class="st3" d="M747.2,507.6l4,0.1C749.7,507.6,748.4,507.6,747.2,507.6z"/>
						<path class="st3" d="M995.2,507.6c2.2,0,2.9,0.1,5.9,0c-0.3,0-0.6,0-0.9-0.1C999.2,507.7,997.7,507.7,995.2,507.6z"/>
						<path class="st3" d="M1083.4,507.6c-0.5,0-1.1-0.1-1.6-0.1c-0.9,0-1.9,0-2.8,0L1083.4,507.6z"/>
						<path class="st3" d="M365.9,218.6c-1.8,0.6-3,0.9-4,1.1C363.3,219.6,351.4,224.7,365.9,218.6z"/>
						<path class="st3" d="M1,323.6c0.1,0.5,0.2,1.3,0.2,2.6c0-1,0-2,0-2.9C1.2,323,1.1,323,1,323.6z"/>
						<path class="st3" d="M998.8,503.2l14,0.1C1008.9,503.2,1003.8,503.2,998.8,503.2z"/>
						<path class="st3" d="M920.9,215.7l-3.2,0.8C919,216.2,920.1,215.9,920.9,215.7z"/>
						<path class="st3" d="M1054.4,503.2c2.5,0.2,5.2,0.3,7.9,0.4c0.6,0,1.2-0.1,1.6-0.1L1054.4,503.2z"/>
						<path class="st3" d="M361.9,219.7C361.9,219.7,361.9,219.7,361.9,219.7C361.9,219.7,361.9,219.7,361.9,219.7z"/>
						<path class="st3" d="M277.1,256.3c12.3-5.1,5.5-3.1,8-4.5c14.6-6.3,7-2.3,12.2-4c9.1-4,15.9-7.5,22.8-10.3
							c0.6-0.1,1.9-0.6,0.4,0.2c9.5-4.6,28.9-12,39.9-17.3c0.9-0.3,1.3-0.4,1.5-0.4c-2,0.4-2.4,0.2-2.1-0.2
							c5.5-2.3,10.1-4.7,12.4-5.1c-3.4,1.4-3.6,1.7-5.1,2.5l5.7-2.6c5.5-1.5-7.8,3.5-7.6,4c2.8-1.2,5.7-2.5,8.6-3.8
							c2.9-1.3,5.8-2.5,8.8-3.6c5.8-2.1,11.5-3.6,16.1-4.4c0.5,0.1-0.6,0.4-2.3,0.8c-0.8,0.2-1.9,0.4-2.9,0.7
							c-1,0.3-2.1,0.6-3.1,0.8c-2,0.5-3.6,1.1-4,1.2c-0.4,0.2,0.4,0,3.4-0.7c-4.6,1.2-9.2,2.5-13.6,4.3c10.5-3-8.1,3.1,1.6,0.5
							c4.4-1.7,7.8-2.7,10.8-3.6c3-0.8,5.5-1.5,8.1-2.1c5.1-1.1,10.2-2.2,19.6-2.6c4.2-0.6-1.4-0.6,2.8-1c6.7-0.3,11.3,0,14.8,0.5
							c3.5,0.4,5.8,1,8,1.5c4.3,1.1,7.4,2.2,17.2,4.2c5.1,0.8,7.3,0.4,20.9,4.3L475,215c17.9,4.5,10.5,1.4,29.2,6.6
							c-3.4-0.5-14.2-3.2-11.5-2.5c12,3.6,8.7,1.7,18.1,4l1.8,1.1c9.6,2.3,19.6,4.6,30,7c2.6,0.6,5.2,1.2,7.8,1.8
							c1.3,0.3,2.6,0.6,3.9,0.9c1.3,0.3,2.6,0.6,4,0.9c1.4,0.3,2.7,0.6,4.1,0.8c1.4,0.2,2.7,0.4,4.1,0.6c2.8,0.3,5.5,0.5,8.3,0.6
							c-1.2,0.2-5.1,0.2,0.1,0.6c14.1,0.3,29.2-2.8,42.6-9.5c3.3-1.7,6.6-3.5,9.7-5.6l2.3-1.5c0.8-0.5,1.5-1.1,2.2-1.6
							c0.7-0.6,1.5-1.1,2.2-1.7c0.7-0.6,1.4-1.1,2.1-1.7c5.5-4.4,10.9-8.7,16.1-12.9l7.4-6.9c1.8-1.5,3.5-2.6,1.6-0.9
							c8.1-6.4,0.2-0.6,3.9-4c4.5-3.8,6.2-4.7,3.4-2.2c13.8-12,39.4-33.8,54.6-45.5l-2.8,2.5c11.7-9.3,12.3-11.7,23.3-20l-2,1.8
							c1.6-1.3,3.2-2.6,4.7-3.8c1.5-1.1,3.1-2,4.9-2.6c3.6-1.2,7.5-1.2,11.1,0.1c1.8,0.6,3.4,1.5,4.9,2.7c0.4,0.3,0.8,0.6,1.2,0.9
							l1.2,1l2.4,2c3.1,2.7,6.3,5.3,9.3,7.9c12.3,10.5,23.8,20.3,32.9,28.7c4.1,2.4,24.2,21.1,26.6,21.6c6.9,6.2,9.3,8.5,12.4,11.4
							c0.8,0.7,1.6,1.5,2.6,2.3c1,0.9,2.1,1.8,3.5,3c2.8,2.2,6.7,5,12.7,8c3.2,1.6,5.9,2.4,8.7,3.1c1.4,0.4,2.9,0.6,4.5,1
							c1.7,0.3,3.5,0.7,5.7,1l0.1,0.6c2,0.3,4,0.4,6,0.5c2,0,4,0.1,6-0.1c2.1,0.3,4.3,0.4,6.4,0.5l4.2-0.6l4.1-0.8
							c-1.6,0.3-3.4,0.5-4.7,0.6c-1.3,0.1-2.1,0-1.9-0.1c3.2-0.4,6.8-1.1,10.2-1.9c1.7-0.4,3.4-0.7,5.1-1.1c1.7-0.4,3.3-0.8,4.8-1.1
							c3-0.7,5.7-1.4,7.6-1.8c1.9-0.5,3.1-0.7,3.2-0.6c9.5-3.1,18.9-6.7,28.2-10.1c-0.5,0.5-5.2,2.2-8.9,3.6
							c14.8-5.8,2.9-0.4,16.5-5.7c-1.9,0.5,0.9-0.7,1.2-0.9c3.5-1,9.2-2.7,15.5-4.4c1.6-0.5,3.2-0.8,4.8-1.2
							c1.6-0.4,3.3-0.8,4.9-1.2c3.3-0.6,6.5-1.4,9.5-1.7l-2.2,0.7c10.7-1.7,22.2-2,33.8-0.6c11.7,1.5,23.7,4.4,35.5,7.7
							c-4.2-1.4-5.8-1.9-5.5-2.1c0.4-0.1,2.7,0.2,6.2,1.2l2.6,1.4c4.6,0.9-7.2-2.3,2.2-0.1c4.4,1.3,5.9,2,5.5,2.1
							c-0.3,0.1-2.4-0.3-4.9-1c3.6,1,7.2,2.1,10.8,3.1c0.6,0.4-2-0.3-2.7-0.3c2.3,0.5,6.8,2.1,11.6,3.9c4.8,1.7,9.8,3.6,13.1,4.3
							l0.5,0.4c11.7,4.2,20.1,7.3,28,10.2c7.9,3,15.2,5.8,24.6,9.6c0.6-0.4,7.9,2.7,13.6,4.6c3.4,1.5,6.9,3,10.5,4.6
							c3.7,1.6,7.7,2.9,11.8,3.9c8.3,1.9,17.4,2.2,26.6,0.3c3.2-0.7,5-1.3,6-1.7c1-0.4,1.2-0.5,1.2-0.6c0-0.1-0.2-0.1-0.1-0.2
							c0.1-0.1,0.6-0.3,1.9-0.9c0.3,0,1.6-0.3,3.2-0.9c1.6-0.6,3.5-1.4,5.1-2.1c3.2-1.3,5.2-2.2,1-0.1c19.5-9,25-11.5,49.5-23.2
							c-2.8,1-5.8,2.3-4.3,1.5c4.5-2.1,10.3-4.5,9.8-4l-1.2,0.6c8.9-4.3,18.7-8.8,28.8-13.2c5-2.2,10.1-4.4,15.1-6.6
							c2.5-1.1,5-2.2,7.4-3.2c0.6-0.3,1.2-0.5,1.8-0.8l0.8-0.4l0.2-0.1c0.3-0.1,0.5-0.2,0.8-0.3c0,0.3,0,0.6-0.1,0.9l0,0.1l0,0.3
							l0,1c0,0.7,0,1.4,0,2.1c0,2.7,0,5.4,0,8c0,5.2,0.1,10,0.3,14.3l-0.1-1.4l0.6,25.2c-0.1,11.6-0.4-7-0.7,1.6
							c0.9,27.2-0.1,43,0.4,65.4c-1.5,17.3,0.1,61.6-0.9,85l0.4-1.4c0.3,6.1-0.2,7.3-0.3,11.8c0.3-0.6,0.3-6.6,0.5-2.8
							c0.1,17.6,0.1,35.7,0,53.9c-0.1,9.1-0.1,18.3-0.2,27.4c0,4.6-0.1,9.2-0.1,13.8l-0.1,6.9l0,3.4l0,0.2l0,0.1l0,0.1l0,0.2l-0.4,0
							l-3,0l-6.2-0.1c-4.1,0-8.3-0.1-12.4-0.1c-8.3-0.1-16.5-0.1-24.7-0.2c-19.2-0.1-10.9,1.8-35.1,1l6.9-0.7
							c-38.8,0.8-79.3,0-117.3,0.6c2.3-0.2,2.3-0.4,6-0.3c-4-0.2-11.4-0.2-17.9-0.1c-3.2,0.1-6.2,0.1-8.4,0.2
							c-2.2,0.1-3.6,0.2-3.6,0.3c-5.9,0-1.4-0.4-5-0.6c-8-0.3-20.2,0.6-24.5,0.1c-0.7-0.1,2.3-0.2,3.7-0.2
							c-5.2,0.2-24.4-0.1-19.4,0.5c-14.3-0.3-27.3,0.2-38.6-0.1c-7.4,0.6-24.4-0.3-26.8,0.6c1-0.9-25-0.7-34-0.3
							c3-0.3-7.8-0.3-4.3-0.7c-10.3,0-19.7,0.2-17.9,0.6c-18.9-1.1-38.1,0.9-48.8-0.5c-30.6,0.5-58.8,0.8-86.3,1
							c1-0.9,30.4-0.1,29.2-1c-26.1,0.4-41.1,1.1-67,0.9c-6.7-0.1,3.8-0.4,6.1-0.5c-26,0.4-50.4-0.1-73.5,0.4
							c0.1-0.1,2.6-0.2,4.9-0.2c-4.6,0-10.6-0.1-10.1,0.3l4.5-0.1c7.3,0.6-18.1,1.2-19,1.6c7.8-1.2-22.9-0.3-10.6-1.8
							c-3,0.1-6.8,0.3-6.1,0.5c-4.5-0.1-5.9-0.2-1.4-0.6c-16.4,0.2-10.5,0.7-25.4,0.6c0.1-0.2,3-0.3,4.6-0.5
							c-7.5,0.4-15,0.8-27.6,0.6c0.8-0.1-0.7-0.3,3-0.3c-21.5,0.1-36.7,1-60.3,0.7c7-0.9-8-0.3-9.3-1l-12.7,0.2l5.1,0.4
							c-11.1,0-20.9,0.5-30.5,0.3l8.3-0.3l-20.8,0.1l11.8,0.3c-11.2,0.4,1.2,0.9-13.6,0.7c3-0.1-11.1,0-16.9-0.4l0,0
							c-5.5,0.2-11.2,0.5-19.4,0.3c-2.1-0.2,1.7-0.8,0.3-1c-5.4,0.6-26,0.2-32.9,0.8c2.3-0.2,2.4-0.5,1.7-0.6l-4.6,0.5
							c-5.1-0.2-5.9-0.2-5.1-0.6c-15.5-0.1,4.9,0.9-13.5,0.5c1.4,0,0.8-0.1,3.8-0.2c-18.5-0.2-35.7,0.3-52.6,0.1
							c-5-0.8,14.8-0.2,9.1-0.8c-24.5,0.1-50.7,0.9-74.3,0.7l4.4,0.1c-3.3,1.1-17.6-0.5-29.6,0c2.9-0.1,3.8-0.6,3.1-0.5
							c-16.2-0.2-33.1,0.3-57.7,0.6l3-0.3c-9.6-0.2-25.2-0.1-35.5-0.3c-3.1,0.3-9,0.2-5.4,0.6c-31.8-1.6-60.7,0.8-88.9-0.5
							c3.4,0,8-0.2,5.4-0.2l-24.1,0.3c1.9,0.5,3.2,0.3,8.2,0.6c-3,0.3-9.8,0.5-15.8,0.5c10.8-0.3-0.1-0.7-4.8-1
							c0.8,0.1-0.8,0.3-0.4,0.4c-12.6-0.8-2.1,0.9-19.3,0.4l0.9-0.2c-6.4,0.1-12.3,0.4-19.3,0.4c-2.9-0.5,6.8-0.2,7.3-0.7
							c-9.7,0-19.2,1-28,0.5c4.1-0.1,10.1-0.2,14.2-0.3c-9.6-0.6-10.7-0.5-17.8-0.6l0.7,0l-16.5-0.3l4.2,0.2c-3,0.3-6.1,0.5-9.2,0.6
							c-3.1,0.1-6.6,0.1-9.2,0.1c0-1.5,0-3,0-4.6c0-1.8,0-3.6,0-5.4c0-3.7-0.1-7.6-0.3-11.7c0.8,15.9,0.5,2.6,1.1,3.9
							c0.2-4.2,0.4-10.5,0.6-8.7c-0.5-7.7,0.4-12.9-0.2-23.9c0.2-0.5,0-8.3,0.5-6.5c-0.1-10.1-0.3,2.4-0.6,1.5
							c-0.6-15.5,0.9-36.5,0.1-58.8c-0.3-19.3-1-22.8-1.2-40.7c0.3-6,0.7,4.9,0.7,4.9c0.3-9.7,0.3-17.1,0.1-26.2
							c0.2,1.9,0.3-0.1,0.5-2.8c0-7.4-0.7-4.9-0.4-14.6c0.2,1.7,0.6,3.8,0.8,7.4c-0.2-8.7-0.4-17.2-0.6-26.2
							c0.3-2.4,0.5,5.4,0.7,8.6c-0.1-10.1-0.2-26.1-0.7-29.3l-0.2,6.5c0-3.7,0.5-1.9,0.6,0.8c0.4,8.6-0.2,12.5-0.4,13l-0.1-6.4
							c-1.2,6.6,0.1,25.7,0,38.5l-0.8-5.4l0.6,13.2c-0.2,2.8-0.7,4.7-0.8-1.6c-0.4,9.2,0.3,8.2-0.2,16.1c-0.1,0.9-0.1,0.5-0.1-0.3
							l0.2,9c-0.2-1.8-0.6,1.5-0.5-4c-0.5,16.2,0.5,26.1-0.1,32.2l0-1.4c0.2,22.5,0.6,2.2,1.3,19l-1.5,11.3l0.6,2.2
							c0,2.3-0.1,6.9-0.3,6c0.4,8.6,0.3-1.5,0.6,3.5c-0.6,11.1,0.2,30.7-0.8,33.2c0.4,4,0.4-10.7,0.7,1.2
							c-1.1,3.4,0.1,13.8-0.4,23.9c-0.5-3.1-0.2-12.8-0.7-2.6c0.4,2.8,0.4,7,0.3,11.7c-0.1,2.3-0.2,4.7-0.2,7.1
							c0,1.2-0.1,2.4-0.1,3.5c0,1.6,0,3.1-0.1,4.5c1.4,0,2.6,0,3.9,0c0.3-0.2,1.5-0.3,3.5-0.4c2-0.1,4.8-0.1,8-0.1
							c6.4,0,14.6,0,21.8-0.1c-0.9,0.2,27.1,0.4,40.5,0.7l-0.4,0.1c2.6-0.7,16.4-0.6,26.5-0.7c-0.4,0.4-2.2,0.6-7.7,0.8l9.5,0
							c2.2-0.2,5.2-0.4,11.3-0.4l-2.4,0.5c12.6,0,25.4-0.6,41.6-0.3c0.9-0.5-12.9-1.4,4.2-1.8c0.6,0.3,1.3,0.8-3.2,0.9
							c1.5,0,5.2-0.2,8.2-0.1l-6.8,0.5c7.4,0.2,3.9-0.4,9.8-0.3c-0.1,0.4,4.4,0.3,3.5,0.6c-1.5,0-5.1-0.2-7.4,0
							c6.7,0.1,14.7,0.3,17.4,0.6c-0.6-0.2,0-0.5,4.9-0.6c12.6,0,4.3,0.5,11.7,0.7c3.1-0.3,11.1,0,11.3-0.6c3.7,0,4.4,0.3,5.8,0.4
							c6.5-0.3,30.5-0.1,23.1-0.7l-1.7,0c0.3,0,0.7,0,1.1,0c-0.1,0,0,0-0.1,0h0.1c21.4-0.6,44.4,0.3,65.6,0.1l0,0.2
							c12.7-0.2,28.2-0.1,37.2-0.6c3.7,0,8.8,0.4,7.2,0.6c9.7-0.1,10.8-0.4,24.7,0c-9.7,0.3,3.4,0.3-10,0.3
							c12.6,0.2,15.4,0.5,28.9-0.1c-4.6,0.5,9.5,0.6,15.4,0.5l-8.8-0.4c6.7-0.1,12.6,0,18.6,0l-3.2,0.7c25.7,0.8,46.4-1.4,66,0
							c6.8-0.5-14-0.3-7.9-0.9c11.8,0.1,24.2,1,27.9,1c16.2,0.4,15.1-1,32.1-0.7c-2.2-0.2-4.2-0.9,8.5-1.1c11.8,0.1,14.6,1,7.1,1.2
							c-2.8,0-4.2-0.1-4.1-0.1c-3.8,0.1-8.8,0.2-4.2,0.4l1.5-0.2c5.9,0.2,22.2,0.2,18.3,0.6c9-0.2,3.8-0.4-2.8-0.5
							c15.2,0.3,23.7,0,39.4,0.2c-2.5-0.1-4.8-0.4-2.3-0.4c22.9,0.3,10.1-0.5,25.6-0.6c8.8,0.4-3.2,0.9,12.5,0.6
							c9.6,0.2,2,0.6-1.8,0.8c14.3-0.5,26.6,0.3,34.8,0.4l-7.5,0.2c4.5-0.1,8.2-0.1,11.9-0.1l-4.3-0.5c4.4,0.1,8.1,0.1,8.1,0.3
							c4.5-0.3-3.5-0.8,5.5-1.2c5.9,0.2,17.9-0.3,19.9,0.4c-18.5-0.2,2,0.6-13.6,0.7c3-0.1,6.7-0.1,11.1,0c0.7,0.1-0.6,0.1-1.8,0.2
							c17.7,0.6,8.1-0.7,26.5-0.7c-2.3,0.4,4.2,0.7,7.2,0.6c-7.4,0-3.5-0.6,3.2-0.9c11.8,0.3,12.8-0.2,18.9-0.2l-7-0.1
							c2.4-0.4,8.3-0.3,16.5-0.4c0.7,0.3-7.4,0.2-4.5,0.3c9.1-0.6,20.6,0.6,33.2,0.2c5.9,0.2,0.6,0.7,5.7,0.8
							c14.2-0.5,15.4,0.5,30.3,0.1c-4.3-0.5-5.1-0.4,5.5-0.8l-24.6,0.3l15.8-0.7c-7.4,0-15.6,0.3-20.1,0.2c7.5-0.4,6.7-0.3,3.2-0.7
							c10.1,0.7,20.1-0.4,31.8,0.1l-0.4,1.2c17.6,0.5,31.3-0.6,54.2-0.3l-7.4-0.2c3.1-0.5,14.1-0.1,21.5-0.3
							c-0.7,0.4,3.9,0.5,7.1,0.8c-0.4-0.3,16.8,0,18.8-0.8l10.2,0.5c18.5,0.2,21.1-1.1,38.9-1c-5.4,0.4,2.7,0.7-9.2,1
							c5.9,0,11.3,0.1,11.4-0.2c3.5,0.2,16.5-0.5,21.9-0.2c2.5-0.2,3.3-0.6,10-0.6c0.7,0.1,0,0.2,0,0.2c0-0.2,10.4-0.3,4.6-0.7
							c18.3,1.2,51.1-0.1,67,1c12.9-0.1,28.5-0.3,40.3-0.3c-0.8,0.1,0,0.2-2.3,0.2c16.2,0.4,10-1.1,28.4-0.7
							c9.4,0.6-9.8,0.3-3.9,0.6c2.6,1.3,22.3-0.2,34.7,0.6l-3,0.1c9.5,0.4,23.2-0.5,38.7-0.4c0,0-0.8,0.1-0.1,0.2
							c10.6-0.7,30.7-0.9,45.6-1.1c-4.6,0.5-6.8,0.3-3.9,0.8c6.7-0.1-2-0.8,11.4-1c4.3,0.3,14,0.5,15.2,1.1l-12.6,0
							c6.4,0.7,16.3,0,22.9,0.1l-0.8,0.3c19.3-0.1,19.6-0.9,40.3-0.8l-2.1-0.2c11.3-0.8,9.5,0.4,20.8-0.1l3.4,0.8
							c1.1,0,2.4-0.1,4.1-0.1c0.8,0,1.8,0,2.8-0.1c1.4,0,2.9,0,4.6-0.1c-0.1-4.2-0.2-9.6-0.4-15.3c-0.1-5.2-0.2-10.6-0.3-15.4
							c0.3,3.4,0.5,8.4,0.6,13.7c0.1,2.7,0.2,5.4,0.2,8.1c0,1.3,0.1,2.7,0.1,3.9c0,1.9,0.1,3.7,0.1,5.4c-2.1,0-3.8,0.1-5.4,0.1
							c1.5,0,3.4,0,5.5,0c0-2.7,0-5.7,0-8.9c0-2.5,0-5.1-0.1-7.6c-0.1-4.9-0.2-9.1-0.3-10.8c0.1,3,0.3,6.8,0.1,9.7
							c-0.6-9.1-0.9-21.1-0.9-35.8c1.5,2.6,0.4-38.5,1.6-49.2c-0.6-26.1,0.2-51.8,0.2-82.3c-1.2,10.8,0-8.9-1.3-7
							c-0.1-7.1-0.1-9.8,0-10.4l0.7-21.5c0.4-5.1,0.3,6.7,0.5,6.1c0.1-15.5,0.5-6.5,0.8-16.8c-0.4,2.1-0.6-5.4-0.5-14.2l-0.6,12.5
							c-0.7-21.7,1-18.8,0.4-40.6l0.4,6.9c-0.1-5.6-0.1-16-0.2-26.3c0-5.2-0.1-10.3-0.2-14.9c-0.1-2.3-0.1-4.4-0.2-6.3
							c-0.1-2.5-0.2-4.7-0.3-6.6c0.1-1.6,0.2-3.7,0.3-4.4c0,0,0,0,0,0c-0.1,0-0.1,0,0-0.1c0.1-0.1,0.1,0,0.1,0.1c0,0.1,0,0.2,0,0.4
							c0,0.7,0.1,2,0.1,4.2c0-1.6,0-3.2,0-5c-4.2,1.9-8.4,3.9-12.8,5.9c-3.1,1.4-6.2,2.9-9.4,4.4c-6.3,3-12.6,6-18.8,8.9
							c-12.3,5.9-24,11.3-33.3,15.3l1.7-1.1c-4.5,2.2-7.7,4.1-13.5,6.5c0.2-0.2,1.7-1.1-0.4-0.2c-2.4,1.2-11.9,6-18,8.6l5-2.7
							c-6,2.6-11.2,5-16.1,7.3c-2.4,1.1-4.7,2.3-6.9,3.2c-1.1,0.5-2.2,0.9-3.3,1.3c-1.1,0.4-2.2,0.8-3.3,1.1
							c-4.4,1.4-8.8,2.2-13.5,2.6c-4.7,0.3-9.6,0.2-14.8-0.8c0.1-0.2-1.1-0.7-3.1-1.3c-1.9-0.7-4.6-1.5-7.4-2.8
							c-1.4-0.6-3-1.3-4.5-2c-1.6-0.7-3.1-1.4-4.7-2.1c-3.1-1.3-6.1-2.6-8.4-3.6l0.4,0c-14.1-5.8-26.2-10.4-38.2-14.7
							c-12-4.2-23.7-8.2-37.2-12.5c-8.2-3.2-22.3-7.9-38.1-11.9c-2-0.5-4-0.9-6-1.4c-1-0.2-2-0.5-3-0.7l-3.1-0.6
							c-2.1-0.4-4.1-0.8-6.2-1.2c-2.1-0.3-4.1-0.6-6.2-0.9c-8.3-0.9-16.4-1.3-23.5-0.8c2.2-0.1,2,0.1,0.7,0.4
							c-1.3,0.3-3.9,0.5-6.4,1c-6.8,0.4-18,4-17.2,3l2.3-0.5c-1.3,0.1-3.1,0.4-5.2,0.8c-2.1,0.4-4.6,1.1-7.2,1.8
							c-2.6,0.7-5.3,1.6-8.1,2.5c-2.7,0.9-5.4,1.8-7.9,2.7l-1.3,1.6c-6.7,1.9-14.3,4.5-22.2,7.1c-7.9,2.6-16.1,5.1-24.1,7.2
							c-4,0.9-7.9,1.9-11.6,2.5c-0.9,0.2-1.8,0.2-2.7,0.3c-0.9,0.1-1.8,0.2-2.7,0.2c-0.9,0-1.8,0.1-2.6,0.1c-0.9,0-1.7,0-2.5,0
							c-6.6-0.1-12-1.2-15.4-2.5c-6.4-1.2-13.8-4.4-19.4-7.6l0.6-0.3c-3.8-2.3-6.8-4.8-9.7-7.2c-2.9-2.5-5.6-4.8-8.5-7.3
							c-5.7-4.9-11.8-10.1-20.6-17.4l3.8,2.7c-9.8-8.4-13.5-9.3-22.6-17l-2.2-3c-8.6-7.3-17.1-14.8-25.7-22.2
							c-2.1-1.8-4.3-3.7-6.4-5.5l-3.2-2.7l-1.6-1.4c-0.6-0.5-1-0.9-1.7-1.4c-5-4-11.9-5.4-17.9-3.8c0.2-0.1,0.4-0.3,1.2-0.5
							c0.7-0.2,1.9-0.5,4-0.4c-1.5,0-3.4,0-5.4,0.5c-2,0.5-4.2,1.3-6.3,2.6l-0.8,0.5l-0.8,0.6l-0.8,0.6l-0.7,0.5
							c-0.9,0.7-1.7,1.4-2.6,2.1c-1.7,1.4-3.5,2.8-5.1,4.2c-6.5,5.4-11.6,9.7-9.7,8.9c-0.7-0.4-18,14.7-27.2,22.7l1.1-1.6
							c-7.5,7.1-7.6,7.4-18.6,16.7c-2.7,2.1-2.6,1.5,1-1.2c-8.9,7-6.5,6-17.3,14.5l3.7-3.5c-9,7.4-8.2,6.9-12.9,11.3
							c-5.5,4.8-17.2,13.9-18.8,14.6c-0.5,0.6-1.9,2-3.9,3.8c-2,1.7-4.5,3.8-7.4,5.6c-0.9,0.4,1.1-1.1,2.1-1.9
							c-7.9,5.4-14.4,8.5-20.3,10.9c-5.9,2.3-11.5,3.8-18,4.4c-0.3-0.1-1.2-0.1-2.2,0c7.6-0.8,14.2-2.6,18.8-4.2
							c2.3-0.8,4-1.5,5.2-2c1.1-0.5,1.6-0.7,1.4-0.6c-0.1-0.1-0.8,0.1-1.7,0.4c-1,0.3-2.1,0.6-3,0.9c-1.8,0.5-2.4,0.5,2-1.5
							c-4.4,2.1-10.6,4.3-17.4,5.7c-6.8,1.4-14,1.8-19.9,1.2c-0.6-0.1-1.1-0.2-1.6-0.3l1.2,0.1c-1.4-0.2-2.7-0.3-3.9-0.4
							c-1.2-0.2-2.4-0.3-3.6-0.4c-1.9-0.3-3.4-0.7-4.9-1.1c-1.5-0.3-3-0.7-4.8-1.2c-1.3-0.8-13.9-3.6-19.9-5.2
							c0.4,0.7-7.5-1.4-0.2,0.9c-1-0.3,1.2,0.2,5.2,1.2c0.9,0.2,2,0.5,2.6,0.6c-0.1,0-0.3,0-0.4-0.1c4,1,9.2,2.2,15.1,3.7
							c-4.9-0.9-9.9-1.9-16.5-3.8c-3.2-0.4-6.7-0.9-8.7-1.2c-8.1-2.8-24-7.1-26.1-8.2c-18.6-4.2-43.6-10.6-55.5-12.3
							c-2.7-0.6-4.2-0.9-5.3-1.2c-1.1-0.3-1.8-0.6-2.8-0.8c3.1,0.4,6.8,1.1,8.5,1.4c-5.4-1.1-13.4-2.4-20.5-2.7
							c-7.1-0.3-13.1,0.1-14.4,0.5c-3.4,0.1-4.7,0.2-4.9,0.1c-0.2-0.1,0.6-0.2,1.2-0.3c0.6-0.1,1.1-0.2,0.3-0.1
							c-0.4,0-1.2,0.1-2.4,0.2c-0.6,0.1-1.4,0.1-2.2,0.2c-0.9,0.1-1.9,0.3-3.1,0.4l2.5-0.6c-9.3,0.9-17.7,2.8-25.3,5.5
							c-1,0.3-1.9,0.7-2.8,1c-0.9,0.4-1.9,0.8-2.8,1.1c-1.9,0.7-3.6,1.5-5.4,2.3c-3.5,1.6-7.1,3.1-10.6,4.7
							c-14.2,6.3-28.8,12.8-48,19.9c2.7-1,4-1.5,4.6-1.6c-10.8,4.3-21.8,8.8-32.8,13.4c-2.7,1.1-5.5,2.3-8.3,3.4l-4.1,1.7
							c-1.4,0.5-2.7,1.1-4.1,1.6c-5.6,2-11.3,3.4-17.2,4.3c-11.7,1.8-23.7,1.2-35.1-1.7c-5.7-1.4-11.1-3.5-16.5-5.7
							c-5.4-2.2-10.8-4.3-16.1-6.5c-12.1-4.9-13.6-4.9-21.2-7.5l-2.4-1.6l-13-4.2c-18.3-6.4-30.8-13.4-54-21.2l2.8,1.5
							c-4.1-1.6-10.6-4.1-16-6c-5.4-1.9-9.8-2.8-9-2.9c-0.4-0.1-1.2-0.1-2.2-0.2c-0.5-0.1-1.1-0.1-1.8-0.3c-0.7-0.1-1.5-0.2-2.3-0.4
							l-0.2-0.3c-3.6-0.3-7.3-0.5-11-0.2c-3.6,0.2-7.3,0.6-10.8,1.4c-4.2,0.7-6.1,1.2-7,1.3c-0.9,0.1-0.9,0-1.1-0.1
							c-0.2-0.1-0.6-0.2-2.5,0.4c-0.9,0.3-2.2,0.6-4,1.3c-0.9,0.3-1.9,0.7-3,1.3c-1.1,0.5-2.4,1.1-3.8,1.8
							c-8.1,4.2-22.7,12.4-19.6,11.1c3.3-1.6,8.5-4,8.9-3.9l-7.4,3.9c-0.9,1.5-6.2,5.2,12.3-3.3l6.2-3.4l3.1-1.7l3.1-1.6
							c1.4-0.4,2.9-0.9,4.3-1.2c-3.7,1.3-7.1,3-10.7,4.8c3.2-1.3,5.5-2.5,7.8-3.5c1.1-0.5,2.2-1,3.2-1.4c1.1-0.4,2.1-0.9,3.2-1.3
							c0.6,0,1.3-0.2,2.3-0.3c1-0.2,2.1-0.3,3.4-0.6c4.3-1.2,8.8-2,13.4-2.3c0.8,0.2-0.7,0.4-1.3,0.6c-0.3,0.1-0.3,0.2,0.2,0.2
							c0.6,0.1,1.8,0,4.1,0.2c1.6-0.1,2-0.1,1.9-0.2c-0.1-0.1-0.7-0.3-1.2-0.3c-0.5-0.1-0.9-0.2-0.5-0.3c0.2,0,0.6-0.1,1.3-0.1
							c0.7,0,1.6,0.1,3,0.1c3.3,0.6,4.4,1,5.7,1.3c1.3,0.3,2.7,0.6,6.5,1.4c1,0.6-0.6,0.1-3.6-0.4c0.8,0.2,1.8,0.3,2.7,0.6
							c0.9,0.3,1.9,0.5,2.9,0.8c2,0.6,4,1.3,6.1,2.1c4,1.5,7.6,2.8,9.4,3.2c6.4,3,22.5,8.5,21.5,9c2.2,0.6,11.9,3.8,18,6.1
							c-11.5-3.3,22.8,8.8,19.5,8.7c8.6,2.3,29.9,11,44.7,16.1c-0.8-0.2-2.5-0.7-3.8-1.3c4.1,1.6,6.7,2.7,9,3.7
							c1.1,0.5,2.2,0.9,3.2,1.4c1.1,0.5,2.3,0.9,3.6,1.5c0.2,0,0.5,0,1,0.1c0.5,0.1,1.2,0.2,2,0.4c0.8,0.2,1.7,0.4,2.7,0.6
							c1,0.2,2.1,0.4,3.2,0.6c4.5,0.9,9.8,1.5,13.6,1.6c5.4,0.8,3.8,0.8,1.1,0.9c-2.6,0-6.2-0.2-4.5,0.4c-0.1-0.2,1-0.2,2.7-0.1
							c0.9,0.1,1.9,0.1,2.9,0.1c1.1,0,2.2,0.1,3.3,0c4.4,0,8.4-0.4,6.5-0.6c2.1,0.1,3.6,0,4.8-0.1c1.1,0,1.9-0.1,2.6-0.1
							c1.3-0.1,2.1-0.1,4.3-0.1c0.3-0.3,1-0.6,1.9-0.8c0.4-0.1,1-0.2,1.5-0.3c0.6-0.1,1.2-0.3,1.8-0.4c1.3-0.3,2.8-0.6,4.3-1.1
							c0.8-0.2,1.6-0.5,2.4-0.7c0.8-0.3,1.6-0.6,2.4-1c0.7-0.2,1.4-0.4,2-0.6c0.6-0.2,1.1-0.3,1.5-0.5c0.9-0.3,1.6-0.5,2.1-0.6
							c1.1-0.3,1.5-0.4,1.9-0.5c0.9-0.2,1.9-0.6,7.9-3.2C287.7,251.5,277.1,256.3,277.1,256.3z M574.8,236.6
							C574.8,236.6,574.8,236.6,574.8,236.6c-2.7,0-5.1-0.3-6.5-0.4C569.6,236.3,571.5,236.5,574.8,236.6z M601.2,233.4
							c-3.1,0.8-7.1,1.8-11.3,2.3c-1-0.1,0-0.4,2.7-0.8C591.1,235.3,597.3,234.4,601.2,233.4z M546.7,227.7c4,0.9,5.4,1.4,5.9,1.6
							c-1.9-0.5-4.1-1-7.1-1.7c-0.1,0-0.4,0-0.5-0.1C545.5,227.5,545.9,227.5,546.7,227.7z"/>
						<path class="st3" d="M539.3,226.6c-0.6-0.1-0.9-0.2-1.7-0.4c0.8,0.2,1.6,0.5,2.4,0.7c0.5,0.1,1,0.1,1.5,0.2
							C540.7,226.9,540,226.8,539.3,226.6z"/>
						<path class="st3" d="M236.3,506.8l0.6,0c-0.5,0-0.9,0-1.2-0.1C236,506.8,236,506.8,236.3,506.8z"/>
						<path class="st3" d="M891,217l0-0.1c-0.8-0.1-1.6-0.2-2.4-0.3C889.4,216.7,890.2,216.9,891,217z"/>
						<path class="st3" d="M91.9,504.9c-0.3,0-0.8-0.1-1.9-0.1C90.1,504.8,90.9,504.9,91.9,504.9z"/>
						<path class="st3" d="M29.5,504.8l-8.8-0.2C24.5,504.7,27.3,504.7,29.5,504.8z"/>
						<path class="st3" d="M0.6,488.6c-0.1-0.6-0.2-0.8-0.2-0.9c0,0,0,0.1,0,0.1L0.6,488.6z"/>
						<path class="st3" d="M743.9,503.8c0.6,0,1.3,0,1.8,0C750.1,503.7,747.2,503.7,743.9,503.8z"/>
						<path class="st3" d="M517.1,505.2c2.4-0.1,4.8-0.2,7.3-0.3C520.3,504.8,517.2,504.8,517.1,505.2z"/>
						<path class="st3" d="M997.3,503.2C997.2,503.2,997.3,503.2,997.3,503.2c0.5,0,1,0,1.5,0L997.3,503.2z"/>
						<path class="st3" d="M534.9,504.9c-4-0.1-7.4-0.1-10.5,0C527.7,504.9,531.6,505,534.9,504.9z"/>
						<path class="st3" d="M1.5,280.8l0-2.3c0,0-0.1-0.1-0.1-0.3L1.5,280.8z"/>
						<path class="st3" d="M1.5,278.2l-0.1-2.6C1.4,276.8,1.4,277.8,1.5,278.2z"/>
						<path class="st3" d="M1.3,270.2l0.1,5.4C1.4,273.8,1.5,271.5,1.3,270.2z"/>
						<path class="st3" d="M1.1,344.3l0.2,0.7C1.2,344.6,1.2,344.3,1.1,344.3z"/>
						<path class="st3" d="M1.1,363.5c0.1-4.6,0.5-11.5,0.4-18L1.3,345C1.6,348,0.7,359.2,1.1,363.5z"/>
						<path class="st3" d="M-1.7,444l0.2-16.2c-0.2,2.8-0.5,6.5-0.6-0.8C-2.8,447.4-1.6,422.9-1.7,444z"/>
						<path class="st3" d="M-2.2,494.2c-0.1-8.7-0.3,0.1-0.4-0.4C-2.5,499.3-2.5,500.6-2.2,494.2z"/>
						<path class="st3" d="M349.3,507.3l-0.9,0.5C355.2,507.7,348.5,507.6,349.3,507.3z"/>
						<polygon class="st3" points="418.6,504.6 412.1,504.3 409,504.8 						"/>
						<polygon class="st3" points="459.5,508.3 456.5,508.4 467.7,508.2 						"/>
						<path class="st3" d="M1067.7,508.1l-2-0.6C1061.2,507.6,1060.2,508.3,1067.7,508.1z"/>
						<path class="st3" d="M1330.3,507.5c2.9,0.3,10.2,0.5,14.8,0.2C1339.2,507.6,1333.3,507.4,1330.3,507.5z"/>
						<polygon class="st3" points="958.4,199.7 963.3,197.7 953.9,201.1 						"/>
					</g>
				</g>
			</g>
		</g>
	</g>
</g>
<g id="Midground">
	<g>
		<path class="st2" d="M0,296l178-114.8c13.5-8.7,30.8-9.1,44.7-1.1l233.1,135.3c53.1,24,113.8,25.1,167.7,3l153.4-62.8
			c52.2-21.4,111.1-19.1,161.5,6.3l23.6,8c45,15.2,94.4,9.4,134.6-15.8l107.5-67.5c34.7-21.8,79.9-15.5,107.3,14.9L1365,261v213H0
			V296z"/>
		<g>
			<g>
				<g>
					<g>
						<path class="st3" d="M1.3,296c-0.2-1.7-0.6-0.7-0.5,4l0.7,3.4L1.3,296z"/>
						<path class="st3" d="M0.1,328c0.3,5.6,0.9,12,1.5,8.4c-0.6-5.5-0.4-6.9-1.1-12.8c-0.1-4.8,0.2-8.3,0.5-7.5
							c-0.2-1.7,0.1-7.4-0.3-10c-0.5,6.2-0.5,14-0.1,22.2C0.4,330.1,0.2,328.4,0.1,328z"/>
						<path class="st3" d="M319,474.9l-3-0.1C316.8,474.9,317.8,474.9,319,474.9z"/>
						<path class="st3" d="M607.1,475.3c-2.2,0-3.1,0.1-3.2,0.1C605.9,475.4,607.6,475.3,607.1,475.3z"/>
						<path class="st3" d="M656.2,476c-1.1,0-1.9,0-2.9,0C654.5,476,655.6,476.1,656.2,476z"/>
						<path class="st3" d="M319,474.9l7.7,0.2C327.2,474.9,322.7,475,319,474.9z"/>
						<path class="st3" d="M1.7,392.1c0-1.6-0.1-3-0.2-4.2c0,1.3,0,2.6,0.1,3.9C1.6,391.9,1.7,392,1.7,392.1z"/>
						<path class="st3" d="M192,475.5l-2.3,0c-0.7,0.1-1.3,0.2-1.9,0.3L192,475.5z"/>
						<path class="st3" d="M94.5,475.6c2.2,0,3-0.5,3.8-0.8c-1.2,0.2-2.9,0.3-4.8,0.4C93.5,475.3,93.8,475.4,94.5,475.6z"/>
						<path class="st3" d="M-0.6,414l-0.1-2.7C-0.6,411.9-0.6,413.1-0.6,414z"/>
						<path class="st3" d="M261.7,475.6c0.2,0.1,0.5,0.2,0.9,0.2C262.6,475.7,262.3,475.6,261.7,475.6z"/>
						<path class="st3" d="M96.4,237C96.4,236.9,96.3,236.9,96.4,237C95.9,237.3,95.7,237.4,96.4,237z"/>
						<path class="st3" d="M-0.1,295.9l1.3-0.9c0.1-0.2,0.2-0.4,0.1-0.4L-0.1,295.9z"/>
						<path class="st3" d="M746.3,476.7c-0.2,0-0.2,0-0.4,0C743.5,476.8,744.8,476.8,746.3,476.7z"/>
						<path class="st3" d="M1367.3,266.3c-0.2,3.4-0.3,2.3-0.4,0.3c-0.1-1-0.1-2.3-0.2-3.4c-0.1-0.9-0.1-2.5-0.2-2.9
							c-0.3-0.3-0.3-0.3-0.1,0c0,0-0.1,0.4-0.1,1.4c0,0.4,0,0.8-0.1,1.4c0,0.5-0.1,1.2-0.1,1.9C1366.3,263.9,1367,278,1367.3,266.3z
							"/>
						<path class="st3" d="M1.6,394.6c0,1.3,0,2.7,0,4C1.7,396.8,1.7,395.6,1.6,394.6z"/>
						<path class="st3" d="M1366.1,265.2L1366.1,265.2l-0.1,1.5C1366.1,266.1,1366.1,265.7,1366.1,265.2z"/>
						<path class="st3" d="M953.7,476.4c-0.4-0.1-1.3-0.2-2.1-0.2C951.6,476.2,952.1,476.3,953.7,476.4z"/>
						<path class="st3" d="M799.2,475.6l3.8,0.1C801.5,475.6,800.2,475.6,799.2,475.6z"/>
						<path class="st3" d="M1033.9,475.6c2.1,0,2.8,0.1,5.6,0c-0.3,0-0.5,0-0.9-0.1C1037.6,475.7,1036.3,475.7,1033.9,475.6z"/>
						<path class="st3" d="M1117.4,475.6c-0.4,0-1-0.1-1.5-0.1c-0.8,0-1.8,0-2.6,0L1117.4,475.6z"/>
						<path class="st3" d="M314.8,236.4c-1.5-1.1-2.4-1.8-3.1-2.4C312.7,235,302,229,314.8,236.4z"/>
						<path class="st3" d="M1.4,392.2c0.1,0.5,0.2,1.2,0.2,2.5c0-1,0-1.9,0-2.8C1.5,391.6,1.4,391.6,1.4,392.2z"/>
						<path class="st3" d="M1037.3,471.2l13.3,0.1C1046.9,471.2,1042,471.2,1037.3,471.2z"/>
						<path class="st3" d="M874,244.9l-3-0.3C872.1,244.7,873.2,244.8,874,244.9z"/>
						<path class="st3" d="M1089.9,471.2c2.4,0.2,4.9,0.3,7.5,0.4c0.5,0,1.2-0.1,1.5-0.1L1089.9,471.2z"/>
						<path class="st3" d="M311.7,234C311.8,234,311.8,234,311.7,234C311.8,234,311.8,234,311.7,234z"/>
						<path class="st3" d="M235.5,191.3c10.9,6.4,5.5,2.4,8,3.3c13.2,7.4,5.8,4,10,6.9c8.2,4.6,14.8,7.6,20.9,11.2
							c0.4,0.4,1.6,1.1,0.1,0.4c8.9,4.5,25.6,14.8,36,20c0.7,0.5,1.1,0.8,1.2,0.9c-1.4-1.3-1.5-1.7-1-1.8c4.9,2.8,9.3,4.9,10.9,6.4
							c-3-1.8-3.3-1.7-4.8-2.4l5.2,2.8c4.3,3.3-7.1-3.9-7.4-3.4c10.1,5.6,22.1,11.9,29.7,16.5c1.3,1.5-18.1-10.2-8.1-3.8l-11.7-7.1
							c8.5,6.2-7.2-4.3,0.6,1.6c15.5,9.2,17.7,9.8,33.1,19.1c3.7,1.7-0.9-1.2,2.8,0.6c22.5,12.3,16.6,11.6,33.3,20.3
							c4.4,2.1,6.5,2.3,17.9,9.4l-4.3-1.6c15.1,8.8,9.2,4.1,24.8,13.7c-3-1.4-12-6.7-9.8-5.3c10,6.5,7.5,3.8,15.4,8.4l1.3,1.5
							c4,2.3,8.2,4.7,12.4,7.1l1.6,0.9l0.8,0.4c0.1,0,0.4,0.2,0.6,0.3l0.5,0.2c1.1,0.5,2.3,0.9,3.5,1.4c2.3,0.9,4.6,1.9,7,2.8
							c4.8,1.6,9.6,3.4,14.6,4.8c1.2,0.4,2.5,0.7,3.7,1.1c0.6,0.2,1.2,0.4,1.9,0.5l1.9,0.5c2.5,0.6,5,1.2,7.6,1.8
							c-1.2-0.1-4.7-0.7,0,0.6c12.9,2.7,26.8,4.6,40.7,5.2c13.9,0.6,27.7-0.2,40.3-2l4.7-1.1c1.6-0.3,3.1-0.8,4.7-1.2
							c2.2-0.5,4.1-0.6,1.8,0c9.7-1.8,0.4-0.5,5-1.7c5.4-1.5,7.3-1.6,3.9-0.5c8.4-2.2,20.1-6.6,31.6-11.4c11.4-4.8,23-9.5,31.6-12.7
							l-3.2,1.5c13.2-5.1,14.3-7.2,26.7-11.6l-2.3,1.1c28.5-11.4,59.8-24.8,81.8-32.8c1.9-1.2,9-4.1,15.7-6.7
							c3.4-1.2,6.7-2.5,9.3-3.5c2.6-0.9,4.4-1.6,4.8-2.1c2.1-0.6,3.8-1.1,5.4-1.5c1.5-0.3,2.8-0.6,4-0.9c2.3-0.5,4-0.9,6-1.2
							c2-0.3,4.2-0.7,7.3-1.2c0.8-0.1,1.7-0.3,2.6-0.4c0.9-0.1,2-0.2,3.1-0.4c1.1-0.1,2.3-0.3,3.6-0.5c1.3-0.1,2.7-0.4,4.2-0.5
							c3.2-0.3,5.6-0.7,8.2-1.1c2.6-0.4,5.4-0.7,9.4-0.9l0.2,0.6c0.9-0.1,1.8-0.2,2.7-0.2l2.7-0.1l5.5-0.3c1.9,0.3,3.9,0.7,5.8,1.1
							c2.5,0.1,5,0.2,7.5,0.5c-3-0.5-6.4-0.8-5.9-1c3,0.1,6.2,0.5,9.5,0.9c1.6,0.2,3.2,0.4,4.8,0.7c1.5,0.3,3.1,0.6,4.5,0.9
							c2.8,0.6,5.3,1.1,7,1.7c1.7,0.5,2.8,0.9,2.9,1c4.6,0.8,9,2.1,13.6,3.3c1.1,0.3,2.2,0.7,3.3,1l3.3,1.1c2.2,0.7,4.5,1.4,6.6,2.3
							c-0.3,0-1.6-0.5-3.2-1c-1.6-0.5-3.6-1.1-5.4-1.6c3.6,1.1,5.5,1.7,6.6,2.1c1.1,0.5,1.3,0.6,1.5,0.8c0.4,0.4,0.7,0.7,7.1,2.9
							c-1.6-0.8,1.1,0,1.4,0.1c1.5,0.8,3.5,1.8,5.8,3c0.6,0.3,1.2,0.6,1.8,0.9c0.4,0.2,0.7,0.3,1.1,0.5c0.1,0.1,0.3,0.1,0.4,0.2
							l0.3,0.1l0.5,0.2c1.4,0.5,2.8,1,4.3,1.5c5.9,2,12.4,4.2,17.9,6l-2.2-0.3c2.4,0.9,5.1,1.7,7.7,2.5c1.3,0.4,2.6,0.8,4,1.2
							c1.3,0.3,2.7,0.7,4.1,1c1.4,0.3,2.7,0.7,4.1,1c1.4,0.3,2.8,0.5,4.2,0.8c1.4,0.3,2.8,0.5,4.2,0.8c1.4,0.2,2.9,0.4,4.3,0.6
							c11.5,1.5,23.4,1.8,35.4,0.8c-4.3,0.3-5.9,0.1-5.7-0.2c0.1-0.1,0.8-0.2,1.8-0.4c1-0.2,2.4-0.4,4.2-0.5l2.8,0.4
							c4.5-0.8-7.3,0.4,1.9-0.9c8.8-1.2,6-0.1,1,0.8l5.4-0.9c0.9-0.2,1.8-0.3,2.7-0.5l2.6-0.6c0.7,0.1-1.8,0.7-2.4,1
							c1.1-0.3,2.8-0.7,4.8-1.1c1-0.2,2.1-0.4,3.3-0.6c1.1-0.3,2.3-0.5,3.5-0.8c1.2-0.3,2.4-0.6,3.6-0.9c0.6-0.1,1.2-0.3,1.8-0.4
							c0.6-0.2,1.1-0.4,1.7-0.5c2.2-0.7,4.2-1.4,5.7-2.1l0.6,0c11.3-4,19.1-8,26.2-12c1.7-1,3.5-2.1,5.2-3.1c1.7-1,3.4-2.1,5.1-3.2
							c3.4-2.2,7-4.5,11.1-7c0-0.7,6.4-4.6,11-8c12-7.3,25.5-15.3,39.9-24.3c10-6.6,2.7-2.3,7.1-5.4c1,0,15.3-9.1,8.1-4.1
							c8.6-5.5,14.1-9,20.1-12.8c3-1.9,6.2-4.1,9.9-6.2c3.8-2.2,8.3-4.4,14.3-6.5c-0.7,0.2-1.3,0.3-2,0.5c-0.6,0.2-1.2,0.4-1.6,0.5
							c-0.9,0.3-1.3,0.3-0.5,0c4.3-1.8,10-2.9,9.4-2.5c-0.4,0.1-0.8,0.2-1.2,0.4c6.8-2,14.4-3,22.2-2.9c7.8,0.2,15.7,1.6,23.1,4.1
							c3.7,1.2,7.2,2.7,10.6,4.3c3.3,1.7,6.5,3.5,9.4,5.4c5.8,3.9,10.8,8,14.9,11.9l-0.9-0.9c2.7,2.7,5.5,5.7,8.2,8.5l8.2,8.7
							c7.3,8.2-4.7-4.6,0.5,1.6c8.5,8.8,15,16,21.1,22.9c3,3.4,6,6.7,9,10.1c1.5,1.7,3,3.4,4.6,5.1c0.8,0.9,1.6,1.7,2.4,2.6
							c0.4,0.4,0.8,0.9,1.2,1.3l0.5,0.5l0.2,0.2l0,0.3l0,0.1l0,0.4c0,0.6,0,1.1,0,1.7c-1.5,16.4,0.1,58.3-0.9,80.4l0.4-1.3
							c0.3,5.7-0.2,6.9-0.3,11.2c0.3-0.6,0.3-6.2,0.5-2.7c0.2,19.8,0.1,40,0,60.5c-0.2,19.4-0.4,39.1-0.6,58.5l-0.1,0l-0.1,0
							c-0.1,0,0.1,0-0.3,0l-3.5,0c-2.3,0-4.7,0-7-0.1c-4.7,0-9.3-0.1-13.9-0.1c-18.2-0.1-10.3,1.8-33.3,1l6.5-0.7
							c-36.7,0.8-75.1,0-111,0.6c2.1-0.2,2.2-0.4,5.7-0.3c-3.8-0.2-10.8-0.2-16.9-0.1c-3,0.1-5.9,0.1-7.9,0.2
							c-2.1,0.1-3.4,0.2-3.4,0.3c-5.6,0-1.3-0.4-4.7-0.6c-7.6-0.3-19.1,0.6-23.2,0.1c-0.7-0.1,2.1-0.2,3.5-0.2
							c-5,0.2-23.1-0.1-18.4,0.5c-13.5-0.3-25.8,0.2-36.6-0.1c-7,0.6-23.1-0.3-25.3,0.6c1-0.9-23.7-0.7-32.2-0.3
							c2.9-0.3-7.4-0.3-4.1-0.7c-9.7,0-18.7,0.2-17,0.6c-17.9-1.1-36.1,0.9-46.2-0.5c-28.9,0.5-55.7,0.8-81.7,1
							c0.9-0.9,28.8-0.1,27.6-1c-24.7,0.4-38.9,1.1-63.4,0.9c-6.3-0.1,3.6-0.4,5.7-0.5c-24.7,0.4-47.7-0.1-69.6,0.4
							c0.1-0.1,2.4-0.2,4.7-0.2c-4.3,0-10.1-0.1-9.6,0.3l4.2-0.1c6.9,0.6-17.2,1.2-17.9,1.6c7.3-1.2-21.7-0.3-10-1.8
							c-2.8,0.1-6.4,0.3-5.8,0.5c-4.2-0.1-5.6-0.2-1.3-0.6c-15.5,0.2-10,0.7-24,0.6c0-0.2,2.9-0.3,4.3-0.5
							c-7.1,0.4-14.2,0.8-26.1,0.6c0.7-0.1-0.7-0.3,2.9-0.3c-20.4,0.1-34.7,1-57.1,0.7c6.6-0.9-7.6-0.3-8.8-1l-12,0.2l4.8,0.4
							c-10.5,0-19.8,0.5-28.9,0.3l7.8-0.3l-19.7,0.1l11.2,0.3c-10.6,0.4,1.1,0.9-12.9,0.7c2.8-0.1-10.5,0-16-0.4l0,0
							c-5.2,0.2-10.6,0.5-18.3,0.3c-2-0.2,1.6-0.8,0.3-1c-5.1,0.6-24.6,0.2-31.2,0.8c2.2-0.2,2.3-0.5,1.6-0.6l-4.3,0.5
							c-4.9-0.2-5.6-0.2-4.8-0.6c-14.7-0.1,4.7,0.9-12.7,0.5c1.4,0,0.7-0.1,3.6-0.2c-17.5-0.2-33.8,0.3-49.8,0.1
							c-4.7-0.8,14-0.2,8.6-0.8c-23.2,0.1-48,0.9-70.4,0.7l4.2,0.1c-3.1,1.1-16.7-0.5-28,0c2.8-0.1,3.6-0.6,2.9-0.5
							c-15.3-0.2-31.4,0.3-54.6,0.6l2.9-0.3c-9-0.2-23.8-0.1-33.6-0.3c-2.9,0.3-8.5,0.2-5.1,0.6c-30.1-1.6-57.5,0.8-84.2-0.5
							c3.2,0,7.6-0.2,5.1-0.2l-22.8,0.3c1.8,0.5,3,0.3,7.8,0.6c-2.9,0.3-9.3,0.5-15,0.5c10.2-0.3-0.1-0.7-4.5-1
							c0.7,0.1-0.8,0.3-0.4,0.4c-11.9-0.8-2,0.9-18.2,0.4l0.9-0.2c-6.1,0.1-11.7,0.4-18.2,0.4c-2.7-0.5,6.5-0.2,6.9-0.7
							c-9.2,0-18.2,1-26.5,0.5c3.9-0.1,9.5-0.2,13.4-0.3c-9.1-0.6-10.1-0.5-16.9-0.6l0.7,0l-15.6-0.3l4,0.2
							c-11.5,1.4-23.5,0.3-39,1.2c15.1-0.9,2.5-0.5,3.6-1.1c-4-0.2-10-0.4-8.3-0.5c-7.3,0.5-12.2-0.4-22.6,0.3
							c-0.5-0.2-7.8,0-6.2-0.5c-9.5,0.2,2.3,0.3,1.5,0.6c-5.2,0.2-11.1,0.2-17.5,0.1c-5.9-0.1-12.2-0.2-18.8-0.3c0-0.9,0-1.8,0-2.8
							c0-1.5,0-2.9,0-4.4c0-3-0.1-6-0.3-9c-0.4-18.2-1-21.6-1.4-38.5c0.3-5.7,0.7,4.7,0.7,4.7c0.3-9.2,0.2-16.1,0-24.8
							c0.2,1.8,0.3-0.1,0.5-2.7c-0.1-7-0.7-4.7-0.4-13.8c0.2,1.6,0.6,3.6,0.8,7c-0.2-8.2-0.5-16.3-0.7-24.8c0.3-2.3,0.5,5.1,0.7,8.1
							c-0.2-9.6-0.3-24.7-0.8-27.7l-0.2,6.1c0-3.5,0.5-1.8,0.6,0.8c0.4,8.2-0.2,11.8-0.4,12.3l-0.1-6.1c-1.1,6.2,0.2,24.3,0.1,36.5
							l-0.8-5.1l0.7,12.5c-0.2,2.7-0.7,4.5-0.8-1.5c-0.4,8.7,0.3,7.7-0.2,15.2c-0.1,0.8-0.1,0.5-0.1-0.3l0.2,8.5
							c-0.2-1.7-0.6,1.4-0.5-3.8c-0.5,15.3,0.6,24.7,0,30.5l-0.1-1.3c0.3,21.3,0.6,2.1,1.3,18l-0.6,4.1c-0.2,1.3-0.4,2.9-0.6,4.7
							l3,0.4c0.5-0.1,0.9-0.2,1.3-0.3l1-0.3c2.2,0,6.5,0.1,5.7,0.3c8.2-0.4-1.4-0.3,3.3-0.7c10.6,0.6,29.1-0.3,31.5,0.7
							c3.8-0.5-10.1-0.4,1.2-0.7c3.2,1,13-0.2,22.7,0.3c-3,0.5-12.1,0.3-2.4,0.7c5.8-0.9,18.8,0.2,26.9,0c0.4-0.7,17.7-0.3,31.3-0.5
							c-0.9,0.2,25.7,0.4,38.4,0.7l-0.4,0.1c2.5-0.7,15.6-0.6,25.1-0.7c-0.4,0.4-2.1,0.6-7.3,0.8l9,0c2.1-0.2,4.9-0.4,10.7-0.4
							l-2.3,0.5c11.9,0,24-0.6,39.4-0.3c0.9-0.5-12.2-1.4,4-1.8c0.6,0.3,1.2,0.8-3,0.9c1.4,0,5-0.2,7.8-0.1l-6.5,0.5
							c7,0.2,3.7-0.4,9.2-0.3c-0.1,0.4,4.1,0.3,3.3,0.6c-1.4,0-4.9-0.2-7,0c6.3,0.1,13.9,0.3,16.4,0.6c-0.5-0.2,0-0.5,4.6-0.6
							c11.9,0,4.1,0.5,11,0.7c2.9-0.3,10.5,0,10.7-0.6c3.5,0,4.1,0.3,5.5,0.4c6.2-0.3,28.8-0.1,21.9-0.7l-1.6,0c0.3,0,0.6,0,1,0
							c0,0,0,0,0,0h0c20.2-0.6,42,0.3,62.1,0.1l0,0.2c12-0.2,26.7-0.1,35.2-0.6c3.5,0,8.4,0.4,6.9,0.6c9.2-0.1,10.2-0.4,23.4,0
							c-9.2,0.3,3.2,0.3-9.4,0.3c11.9,0.2,14.6,0.5,27.4-0.1c-4.4,0.5,9,0.6,14.6,0.5l-8.3-0.4c6.4-0.1,11.9,0,17.6,0l-3.1,0.7
							c24.4,0.8,43.9-1.4,62.5,0c6.4-0.5-13.2-0.3-7.5-0.9c11.2,0.1,22.9,1,26.4,1c15.3,0.4,14.3-1,30.4-0.7c-2.1-0.2-4-0.9,8-1.1
							c11.2,0.1,13.8,1,6.7,1.2c-2.7,0-4-0.1-3.9-0.1c-3.6,0.1-8.4,0.2-3.9,0.4l1.5-0.2c5.6,0.2,21,0.2,17.4,0.6
							c8.5-0.2,3.6-0.4-2.7-0.5c14.4,0.3,22.5,0,37.3,0.2c-2.4-0.1-4.5-0.4-2.2-0.4c21.7,0.3,9.6-0.5,24.3-0.6
							c8.4,0.4-3,0.9,11.8,0.6c9,0.2,1.9,0.6-1.7,0.8c13.5-0.5,25.2,0.3,32.9,0.4l-7.1,0.2c4.3-0.1,7.7-0.1,11.3-0.1l-4.1-0.5
							c4.2,0.1,7.7,0.1,7.6,0.3c4.3-0.3-3.3-0.8,5.2-1.2c5.6,0.2,16.9-0.3,18.9,0.4c-17.5-0.2,1.9,0.6-12.9,0.7
							c2.9-0.1,6.3-0.1,10.5,0c0.6,0.1-0.6,0.1-1.7,0.2c16.7,0.6,7.7-0.7,25-0.7c-2.2,0.4,4,0.7,6.9,0.6c-7,0-3.3-0.6,3.1-0.9
							c11.1,0.3,12.1-0.2,17.9-0.2l-6.7-0.1c2.3-0.4,7.8-0.3,15.6-0.4c0.7,0.3-7,0.2-4.3,0.3c8.6-0.6,19.5,0.6,31.5,0.2
							c5.6,0.2,0.5,0.7,5.4,0.8c13.5-0.5,14.6,0.5,28.7,0.1c-4.1-0.5-4.8-0.4,5.2-0.8l-23.3,0.3l14.9-0.7c-7,0-14.8,0.3-19,0.2
							c7.1-0.4,6.4-0.3,3-0.7c9.6,0.7,19-0.4,30.1,0.1l-0.3,1.2c16.7,0.5,29.7-0.6,51.3-0.3l-7-0.2c2.9-0.5,13.4-0.1,20.4-0.3
							c-0.7,0.4,3.7,0.5,6.7,0.8c-0.4-0.3,15.9,0,17.8-0.8l9.7,0.5c17.5,0.2,20-1.1,36.8-1c-5.1,0.4,2.6,0.7-8.7,1
							c5.6,0,10.7,0.1,10.8-0.2c3.3,0.2,15.6-0.5,20.7-0.2c2.4-0.2,3.1-0.6,9.4-0.6c0.7,0.1,0,0.2,0,0.2c0-0.2,9.9-0.3,4.4-0.7
							c17.3,1.2,48.4-0.1,63.4,1c12.3-0.1,27-0.3,38.2-0.3c-0.7,0.1,0,0.2-2.1,0.2c15.3,0.4,9.4-1.1,26.9-0.7
							c8.9,0.6-9.3,0.3-3.7,0.6c2.4,1.3,21.1-0.2,32.8,0.6l-2.8,0.1c9,0.4,21.9-0.5,36.6-0.4c0,0-0.7,0.1-0.1,0.2
							c10-0.7,29-0.9,43.2-1.1c-4.4,0.5-6.4,0.3-3.7,0.8c6.3-0.1-1.9-0.8,10.8-1c4.1,0.3,13.2,0.5,14.4,1.1l-11.9,0
							c6.1,0.7,15.4,0,21.7,0.1l-0.8,0.3c18.3-0.1,18.5-0.9,38.2-0.8l-2-0.2c4-0.3,6.3-0.3,8.1-0.2c0.9,0,1.8,0.1,2.7,0.1
							c1.1,0.1,2.3,0.1,3.7,0.1c0-0.9,0-2,0-3.3c0-0.5,0-1.1-0.1-1.8c0-0.6-0.1-1.2-0.1-1.9l0.8-3.2c-0.2-7.1-0.8-24.8-0.9-37.5
							c0.6,7.2,0.9,22,1.2,31.2c0-7-0.1-23.8-0.4-27.5c0.1,2.8,0.3,6.4,0.1,9.2c-0.6-8.6-0.9-19.9-0.9-33.9
							c1.5,2.5,0.4-36.4,1.6-46.6c-0.6-24.7,0.2-49.1,0.2-77.9c-1.2,10.2,0-8.4-1.3-6.6c-0.1-6.7-0.1-9.3,0-9.9l0.2-4.7l-10.7-12.7
							c-3-3.8,4.5,4.6,4.3,3.9c-9.8-11-3.7-4.9-10-12.4c1,1.8-3.9-3.4-9.4-9.7l7.5,9.1c-14.2-14.8-11.1-13.9-25.5-28.8l4.7,4.6
							c-1.8-1.9-4.4-4.7-7.3-7.9c-3-3.2-6.1-6.8-9.7-10.4c-3.6-3.5-7.6-6.7-11.2-9.2c-3.7-2.5-7.1-4.2-9.6-5.3
							c-1.6-1-3.8-2.5,0.5-0.3c-2.9-1.5-5.9-3-9.1-4.2c-3.2-1.3-6.5-2.3-9.9-3.1c-3.4-0.9-6.9-1.4-10.3-1.9c-3.5-0.4-7-0.6-10.4-0.6
							c-6.9,0-13.6,0.8-19.6,2.2c-6.1,1.4-11.6,3.2-16.3,5.1l1.7-1.1c-4.5,2-7.5,4-12.8,6.9c0.2-0.3,1.5-1.3-0.4-0.1
							c-2.1,1.4-10.4,7.1-15.8,10.3l4.4-3.1c-21.2,12.8-31.8,20.9-49.2,32.1c-0.4-0.8-17.1,9.3-25.4,14.4l0.2-0.3
							c-6.1,3.8-11.7,7.4-17.1,10.8c-1.3,0.9-2.7,1.7-4,2.6c-1.3,0.8-2.6,1.6-3.9,2.4c-1.3,0.8-2.6,1.6-3.8,2.3
							c-1.3,0.7-2.6,1.4-3.9,2.1c-10.4,5.6-21.1,10.1-33.8,13.5c-1,0.2-2.1,0.5-3.3,0.6c-1.2,0.2-2.4,0.4-3.8,0.6
							c-1.3,0.2-2.7,0.5-4.2,0.7c-1.5,0.2-3,0.4-4.6,0.6c-6.3,0.9-13.5,1.3-21.1,1.5c-15.1,0-31.4-2.3-43.8-6.4
							c3.8,1.3-0.8,0.5-5.3-0.8c-5.9-2.1-16.6-4.9-15.4-5.4l2.1,0.7c-2.1-1.1-6.2-2.7-11-4.3c-0.3-0.1-0.5-0.2-0.8-0.3
							c0,0-0.1,0,0,0l-0.2-0.1l-0.4-0.2c-0.6-0.3-1.2-0.6-1.8-0.9c-1.2-0.6-2.5-1.2-3.7-1.7c-1.2-0.6-2.5-1.2-3.7-1.7
							c-1.2-0.5-2.5-1-3.6-1.5l-1.9,0.3c-1.5-0.7-3.1-1.5-4.7-2.1c-1.7-0.6-3.4-1.3-5.1-1.9c-0.9-0.3-1.8-0.7-2.7-1
							c-0.9-0.3-1.8-0.7-2.7-0.9c-1.9-0.6-3.8-1.1-5.7-1.7c-1-0.3-1.9-0.6-2.9-0.8c-1-0.3-2-0.5-3-0.7c-2-0.4-4-0.9-6-1.3
							c-2-0.5-4-0.7-6-1.1c-2-0.3-4-0.6-5.9-1c-15.8-2.1-30.1-1.9-37.4-2.2c-1.6,0.1-3.3,0.2-5,0.4c-1.7,0.2-3.5,0.4-5.3,0.6
							c-1.8,0.2-3.6,0.4-5.3,0.6c-1.7,0.3-3.4,0.6-4.9,0.9l0.3-0.6c-1.1,0.2-2.2,0.3-3.2,0.4c-1,0.1-2,0.3-3,0.5
							c-2,0.4-3.8,0.7-5.6,1.1c-3.6,0.6-7,1.6-10.4,2.5c-7,1.8-14.3,4.3-24.5,8.3c1.3-0.7,2.7-1.3,4-2c-2.9,1.1-5.2,2.1-7.2,3.1
							c-2,1-3.7,1.9-5.3,2.8c-3.3,1.8-6.5,3.6-11.7,5.7l-3.5,0.5c-19.7,8.1-40,15.6-59.2,24.3c0.3-0.2,0.8-0.7,3.9-2.1
							c-9.3,3.8-36.2,14.2-32.4,13.9c-0.5-0.6-20.4,8.3-30.9,12.9l1.4-1.2c-8.7,4.3-8.9,4.8-21.5,9.7c-3.1,0.9-2.8,0.5,1.3-0.8
							c-5.1,1.6-7,2.3-9.2,3.2c-2.2,0.9-4.7,1.6-11,3.2l4.6-1.6c-2.6,0.7-4.6,1.2-6.1,1.6c-1.5,0.3-2.6,0.6-3.5,0.8
							c-1.8,0.5-3.1,0.9-6,1.7c-1.7,0.4-3.8,0.7-6.1,1.1c-1.1,0.2-2.3,0.3-3.5,0.5c-0.6,0.1-1.2,0.2-1.7,0.2c-0.6,0-1.2,0.1-1.7,0.1
							c-4.5,0.4-8.4,0.6-9.2,0.4c-0.7,0.2-2.6,0.5-5.1,0.8c-1.2,0.1-2.6,0.3-4.1,0.4c-1.5,0.1-3.1,0.1-4.7,0.1
							c-0.9-0.2,1.5-0.3,2.7-0.4c-2.3,0-4.4,0-6.5,0c-1,0-2,0-2.9,0c-1,0-1.9-0.1-2.8-0.1c-1.8-0.1-3.5-0.1-5.2-0.1
							c-1.6,0-3.2,0-4.7-0.2c-3-0.2-5.9-0.4-8.8-0.7c-2.9-0.4-5.8-0.9-8.9-1.4c-0.2-0.2-1-0.4-2-0.7c3.6,0.5,7,1,10.1,1.5
							c3.1,0.4,5.9,0.6,8.2,0.8c1.1,0.1,2.2,0.2,3.1,0.3c0.9,0,1.6,0.1,2.2,0.1c1.2,0.1,1.7,0.1,1.4,0.1c0-0.1-0.7-0.3-1.7-0.4
							c-0.9-0.1-2.1-0.3-3-0.4c-1.7-0.4-2.3-0.5,2.3-0.6c-2.3,0-5.1-0.2-8.1-0.4c-1.5-0.1-3.1-0.1-4.7-0.3c-1.6-0.2-3.2-0.3-4.9-0.5
							c-1.6-0.2-3.3-0.3-5-0.6c-1.6-0.3-3.3-0.6-4.9-0.9c-1.6-0.3-3.2-0.6-4.7-0.9c-1.5-0.3-3-0.7-4.3-1.1c-0.5-0.2-1-0.4-1.4-0.5
							l1.2,0.2c-2.5-0.7-4.9-1.2-7-1.7c-3.5-1.1-5.7-1.9-9-2.9c-0.6-0.4-3.7-1.6-7.4-2.9c-0.9-0.3-1.9-0.7-2.8-1
							c-0.9-0.4-1.9-0.8-2.8-1.2c-1.8-0.8-3.5-1.5-4.9-2c0.1,0.4-1.6-0.2-2.5-0.5c-0.1,0-0.1,0-0.1,0c-0.1,0-0.2-0.1-0.2-0.1
							c-0.1,0-0.1,0,0,0.1c0,0,0.1,0.1,0.1,0.1c0,0,0,0,0.1,0.1c0,0,0.2,0.1,0.4,0.3c0.4,0.2,1,0.5,1.8,0.9c-0.8-0.4,1,0.4,4.6,1.9
							c0.8,0.3,1.8,0.7,2.3,0.9c-0.1,0-0.2-0.1-0.4-0.1c1.8,0.8,3.9,1.4,6.2,2.3c2.3,0.8,4.8,1.8,7.5,2.6c-2.3-0.5-4.5-1.2-7-2
							c-1.2-0.4-2.5-0.9-3.9-1.4c-0.7-0.3-1.4-0.5-2.1-0.8c-0.7-0.3-1.4-0.7-2.1-1c-2.9-0.8-6.1-1.8-7.9-2.3
							c-6.5-4.6-19.8-12.9-21.4-14.4c-15.8-8.8-36.8-21.1-47.2-25.9c-4.5-2.5-4.9-3.2-6.5-4.3c2.6,1.4,5.6,3.2,7.1,3.8
							c-9-4.9-26.3-15.2-28.8-15.7c-11-6.8,6.6,3.1-8.8-5.7l2.2,1c-29.6-18.6-50.1-26.9-82.8-47.6c2.3,1.4,3.4,2.1,3.8,2.5
							c-9.5-5.7-19.1-11.3-28.9-17c-4.9-2.8-9.8-5.6-14.7-8.5c-2.5-1.4-4.9-2.8-7.4-4.2c-2.5-1.4-5.2-2.5-8-3.5
							c-2.8-0.9-5.6-1.5-8.5-1.8c-2.9-0.3-5.8-0.4-8.7-0.1c-5.8,0.5-11.4,2.1-16.5,4.7c-1.3,0.6-2.5,1.4-3.7,2.1
							c-1.2,0.7-2.4,1.5-3.5,2.2c-2.4,1.5-4.7,3-7,4.4c-4.7,2.9-9.4,5.8-14,8.7c-10.5,6.5-11.4,7.7-17.5,12.1l-2.6,0.9l-10.5,7.6
							c-15.1,10.4-27.5,16-46.4,29.3l2.7-1.3c-7,4.5-22,14.5-21.1,13.4c-0.7,0.5-2.1,1.8-4.9,3.4L52,261l-16.9,11.5
							c-13.5,8.4,1.4-2.4-18.1,10.1C9.9,287.4-3,296.7-0.2,295.1c2.9-1.9,7.6-4.6,8-4.5L1.2,295c-0.7,1.6-5.3,5.6,11.3-4.3l11-7.8
							l3.9-2l-9.5,6.2c5.6-3.1,8.9-5.7,12.5-8.3c1-0.4,2.7-1.3,5-2.6l10.6-7.9c1.5-0.6-4.6,3.8,3-0.8c5-3.7-5.4,2.5,3-3.3
							c5.6-3.1,4.2-1.8,10.4-6.2c1-0.4-0.2,0.6-2.7,2.3c5.5-3.9,14.9-9.8,17.5-12.1c5.9-3.2,19-12.4,18.9-11.3
							c1.7-1.3,9.6-7,14.8-10.4c-8.9,7,19.5-12.5,17.6-9.9c6.5-5.3,25.1-16.7,37.3-25.2c-0.7,0.5-1.9,1.5-3.1,2.2
							c7-4.4,9.2-5.5,13.8-8.3c0.1-0.3,0.9-1,2.1-1.9c1.2-0.9,2.6-1.9,4.4-2.9c1.8-1,3.8-1.9,5.8-2.6c1-0.3,2-0.7,3-1
							c1-0.2,1.9-0.5,2.7-0.7c1.2-0.1,2.1-0.1,2.6-0.1c0.5,0,0.7,0.1,0.7,0.2c0,0.1-1,0.3-2.1,0.6c-2.3,0.5-5.2,1.5-3.7,1.5
							c-0.2-0.1,0.8-0.4,2.2-0.8c1.5-0.3,3.4-0.7,5.4-0.8c1.9-0.1,3.8-0.1,4.9-0.1c1.2,0,1.6,0,0.8-0.3c1.8,0.4,3.1,0.6,4.1,0.9
							c1,0.3,1.6,0.4,2.2,0.6c1.1,0.4,1.7,0.6,3.4,1.6c0.8-0.3,2.4,0.3,4.5,1.4c2,1,4.7,2.7,7.7,4.1c9.5,6.1,2.1,2.3,12.9,8.2
							C245.2,196.5,235.5,191.3,235.5,191.3z M495.6,330.4C495.6,330.4,495.6,330.4,495.6,330.4c-2.5-0.6-4.6-1.1-6-1.4
							C490.9,329.2,492.6,329.6,495.6,330.4z M520.2,334.4c-0.8-0.1-1.6-0.2-2.4-0.2c-0.8-0.1-1.7-0.3-2.6-0.4
							c-1.8-0.3-3.7-0.5-5.7-0.8c-0.8-0.3,0.1-0.4,2.6,0c-0.7,0,0.4,0.2,2.2,0.5c0.9,0.2,1.9,0.3,2.9,0.5
							C518.3,334.2,519.3,334.3,520.2,334.4z M470.3,318.7c3.7,1.2,4.9,1.8,5.3,2.1c-1.7-0.6-3.8-1.3-6.4-2.2
							c-0.1,0-0.3-0.1-0.5-0.1C469.1,318.5,469.6,318.5,470.3,318.7z"/>
						<path class="st3" d="M463.5,316.9c-0.5-0.2-0.8-0.3-1.5-0.6c0.7,0.3,1.4,0.7,2.1,1c0.5,0.1,0.9,0.3,1.3,0.4
							C464.8,317.4,464.1,317.1,463.5,316.9z"/>
						<path class="st3" d="M315.5,474.8l0.5,0c-0.4,0-0.8,0-1.1-0.1C315.2,474.8,315.2,474.8,315.5,474.8z"/>
						<polygon class="st3" points="846.7,243.7 846.7,243.6 844.6,243.8 						"/>
						<path class="st3" d="M178.8,472.9c-0.3,0-0.8-0.1-1.8-0.1C177.1,472.8,177.8,472.9,178.8,472.9z"/>
						<path class="st3" d="M119.8,472.8l-8.3-0.2C115,472.7,117.7,472.7,119.8,472.8z"/>
						<path class="st3" d="M74.4,472.5c-0.6,0.1-0.7,0.2-0.9,0.2c0,0,0.1,0,0.1,0L74.4,472.5z"/>
						<path class="st3" d="M796,471.8c0.6,0,1.2,0,1.8,0C801.9,471.7,799.1,471.7,796,471.8z"/>
						<path class="st3" d="M581.3,473.2c2.3-0.1,4.5-0.2,6.9-0.3C584.4,472.8,581.4,472.8,581.3,473.2z"/>
						<path class="st3" d="M1035.8,471.2C1035.8,471.2,1035.8,471.2,1035.8,471.2c0.5,0,0.9,0,1.5,0L1035.8,471.2z"/>
						<path class="st3" d="M598.2,472.9c-3.8-0.1-7-0.1-10,0C591.3,472.9,595,473,598.2,472.9z"/>
						<path class="st3" d="M1.8,351.6l0-2.2c0,0-0.1-0.1-0.1-0.3L1.8,351.6z"/>
						<path class="st3" d="M1.7,349.2l-0.1-2.4C1.6,347.9,1.6,348.9,1.7,349.2z"/>
						<path class="st3" d="M1.5,341.7l0.1,5.1C1.6,345,1.6,342.8,1.5,341.7z"/>
						<path class="st3" d="M1.5,411.7l0.2,0.7C1.7,412,1.6,411.8,1.5,411.7z"/>
						<path class="st3" d="M1.6,430c0-4.4,0.4-10.9,0.3-17l-0.2-0.6C2,415.3,1.2,425.9,1.6,430z"/>
						<path class="st3" d="M32.2,475l-15.3-0.2c2.7,0.2,6.2,0.5-0.8,0.6C35.4,476,12.2,474.9,32.2,475z"/>
						<path class="st3" d="M79.6,475.3c-8.2,0.1,0.1,0.3-0.3,0.4C84.5,475.5,85.8,475.5,79.6,475.3z"/>
						<path class="st3" d="M422.5,475.3l-0.8,0.5C428,475.7,421.7,475.6,422.5,475.3z"/>
						<polygon class="st3" points="488,472.6 481.9,472.3 478.9,472.8 						"/>
						<polygon class="st3" points="526.7,476.3 524,476.4 534.6,476.2 						"/>
						<path class="st3" d="M1102.6,476.1l-1.9-0.6C1096.4,475.6,1095.5,476.3,1102.6,476.1z"/>
						<path class="st3" d="M1351.1,475.5c1.3,0.2,3.7,0.3,6.3,0.3c1.3,0,2.6,0,3.9,0c0.9,0,1.8,0,2.7,0c0.9,0,1.8-0.1,2.6-0.1
							c0-0.1,0-0.2,0-0.2l0,0.2c-1.9,0-3.9,0-5.8-0.1c-1.3,0-2.6-0.1-3.8-0.1C1354.6,475.5,1352.6,475.4,1351.1,475.5z"/>
						<path class="st3" d="M912.4,248.5l4.9,1.4l-4.5-1.5c-1.5-0.5-3-1-4.6-1.4c0.7,0.2,1.4,0.4,2.1,0.6L912.4,248.5z"/>
					</g>
				</g>
			</g>
		</g>
	</g>
</g>
<g id="Foreground">
	<g>
		<path class="st2" d="M-0.5,343.5c148.9,41.3,435.6-33.8,569.6-74.8c43.9-13.4,91.4-7.9,136.3,2l278,61.4
			c58,12.8,118.1,13.1,176.3,0.8l205.8-43.4v342H-0.5V343.5z"/>
		<g>
			<g>
				<g>
					<g>
						<path class="st3" d="M0.8,343.5c-0.2-1.8-0.6-0.8-0.5,4.1l0.7,3.5L0.8,343.5z"/>
						<path class="st3" d="M-0.4,376.5c0.3,5.8,0.9,12.4,1.5,8.7c-0.6-5.7-0.4-7.1-1.1-13.3c-0.1-4.9,0.2-8.6,0.5-7.8
							c-0.2-1.7,0.1-7.6-0.3-10.3c-0.5,6.4-0.5,14.5-0.1,23C-0.1,378.7-0.3,377-0.4,376.5z"/>
						<path class="st3" d="M224.8,632.4l-3.1-0.1C222.6,632.4,223.6,632.4,224.8,632.4z"/>
						<path class="st3" d="M522.4,632.8c-2.3,0-3.2,0.1-3.3,0.1C521.2,632.9,522.9,632.8,522.4,632.8z"/>
						<path class="st3" d="M573.2,633.5c-1.1,0-2,0-3,0C571.3,633.5,572.5,633.6,573.2,633.5z"/>
						<path class="st3" d="M224.8,632.4l7.9,0.2C233.3,632.4,228.7,632.5,224.8,632.4z"/>
						<path class="st3" d="M1.2,442.8c0-1.7-0.1-3.1-0.2-4.3c0,1.4,0,2.7,0.1,4.1C1.1,442.6,1.2,442.7,1.2,442.8z"/>
						<path class="st3" d="M93.6,633l-2.4,0c-0.7,0.1-1.4,0.2-2,0.3L93.6,633z"/>
						<path class="st3" d="M-2.1,625c0,1.1,0.1,1.9,0.3,2.5c0.1,0.3,0.2,0.5,0.3,0.8c0.1,0.3,0.2,0.6,0.2,0.8
							c-0.1-0.9-0.2-1.5-0.3-2.4c-0.1-0.8-0.1-1.8-0.1-2.7C-1.8,623.9-1.9,624.2-2.1,625z"/>
						<path class="st3" d="M-1.1,465.3l-0.1-2.8C-1.1,463.2-1.1,464.5-1.1,465.3z"/>
						<path class="st3" d="M165.7,633.1c0.2,0.1,0.5,0.2,0.9,0.2C166.6,633.2,166.2,633.1,165.7,633.1z"/>
						<path class="st3" d="M115.2,358.1C115.3,358,115.2,358,115.2,358.1C114.7,358,114.5,358.1,115.2,358.1z"/>
						<path class="st3" d="M-0.5,343.4l1.6,0.4c0.2-0.1,0.4-0.1,0.4-0.2L-0.5,343.4z"/>
						<path class="st3" d="M666.2,634.2c-0.2,0-0.2,0-0.4,0C663.3,634.3,664.7,634.3,666.2,634.2z"/>
						<path class="st3" d="M1367.8,477.3c-0.5,9.7-0.6-15.7-1.2-1.2C1366.8,474.7,1367.5,489.3,1367.8,477.3z"/>
						<path class="st3" d="M1.1,445.4c0,1.4,0,2.7,0,4.1C1.2,447.6,1.2,446.4,1.1,445.4z"/>
						<path class="st3" d="M1366.6,476.1L1366.6,476.1l-0.1,1.5C1366.6,477,1366.6,476.6,1366.6,476.1z"/>
						<path class="st3" d="M880.4,633.9c-0.4-0.1-1.3-0.2-2.2-0.2C878.3,633.7,878.8,633.8,880.4,633.9z"/>
						<path class="st3" d="M720.8,633.1l3.9,0.1C723.2,633.1,721.9,633.1,720.8,633.1z"/>
						<path class="st3" d="M963.3,633.1c2.1,0,2.9,0.1,5.8,0c-0.3,0-0.5,0-0.9-0.1C967.1,633.2,965.7,633.2,963.3,633.1z"/>
						<path class="st3" d="M1049.5,633.1c-0.5,0-1.1-0.1-1.6-0.1c-0.9,0-1.9,0-2.7,0L1049.5,633.1z"/>
						<path class="st3" d="M375,322.4c-1.9,0.3-3.1,0.3-4,0.4C372.4,322.9,360.1,325.7,375,322.4z"/>
						<path class="st3" d="M0.9,442.8c0.1,0.5,0.2,1.2,0.2,2.6c0-1,0-1.9,0-2.9C1,442.3,0.9,442.2,0.9,442.8z"/>
						<path class="st3" d="M966.8,628.7l13.7,0.1C976.6,628.7,971.7,628.7,966.8,628.7z"/>
						<path class="st3" d="M978,333.2l-3.1-0.6C976.1,332.9,977.2,333.1,978,333.2z"/>
						<path class="st3" d="M1021.1,628.7c2.4,0.2,5,0.3,7.7,0.4c0.6,0,1.2-0.1,1.6-0.1L1021.1,628.7z"/>
						<path class="st3" d="M371,322.8C371,322.8,371,322.8,371,322.8C371,322.8,371,322.8,371,322.8z"/>
						<path class="st3" d="M282.6,341.4c12.9-2.2,5.9-1.7,8.6-2.6c15.3-3,7.2-0.8,12.5-1.3c2.4-0.5,4.6-1,6.8-1.4
							c2.1-0.5,4.1-1,6.1-1.5c3.9-0.9,7.5-1.8,11-2.5c0.6,0,2-0.2,0.4,0.3c5-1.3,12.5-2.8,20.2-4.4c7.7-1.6,15.6-3.4,21.3-5
							c0.9-0.1,1.3-0.2,1.6-0.2c-2,0.1-2.3-0.3-2-0.6c5.7-1.3,10.5-2.8,12.8-2.8c-3.5,0.8-3.8,1-5.4,1.5l5.9-1.5
							c5.5-0.5-8.1,2.1-8,2.6c5.8-1.4,12.1-3,18-4.5c5.9-1.5,11.5-2.9,16-3.9c2,0.2-20.8,5.1-8.8,2.9c-4.6,1-9.2,2-13.9,2.9
							c10.8-1.3-8.4,1.8,1.5,0.8c18.3-4,20.3-5,38.4-9.2c4-1.4-1.5-0.2,2.5-1.6c12.8-3.5,17.9-4.4,22.2-5.1c4.3-0.7,7.7-1.2,17-4.1
							c4.8-1.7,6.4-3,19.9-6.2l-4.4,2c17.5-4.7,9.7-3.7,28.1-8.3c-3.2,1.2-13.6,4-11,3.4c12-2.7,8.3-2.7,17.3-5.3l2.1,0.1
							c9.2-2.7,18.9-5.6,28.8-8.7c4.9-1.6,10-3.1,15-4.7c2.5-0.8,5.1-1.6,7.6-2.4c2.5-0.7,5-1.5,7.6-2.1c-0.6,0.2-1.7,0.6-2.1,0.9
							c-0.4,0.2-0.1,0.2,2.4-0.3c12.8-3.3,27-5.1,41.1-5.4c14.1-0.2,28.1,0.9,40.8,2.6c3.3,0.2,6.5,0.5,9.8,0.7
							c2.3,0.3,4.2,0.9,1.7,0.6c9.9,1.8,0.6-0.3,5.4,0.2c5.7,0.9,7.4,1.6,3.8,1.2c2.2,0.3,4.6,0.7,7.2,1.1c2.6,0.5,5.4,0.9,8.3,1.5
							c5.8,1.1,12,2.4,18.3,3.7c12.5,2.6,25.2,5.4,34.3,7.8l-3.6-0.6c14.2,3.4,16.4,2.4,29.5,5.8l-2.6-0.5
							c30.9,7.1,65.3,14.1,88.8,20.2c4.7,0.2,30.6,7.1,32.8,6.4c17.6,4.5,12.5,3.6,37.3,9.4c6.6,1.5,10.1,1.5,18.3,3.2l0.1,0.6
							l11.3,1.8l5.8,2l7.8,1.5c-3.1-0.7-6.5-1.7-6-1.8c6.1,1.2,13.4,3,19.3,4.3c5.9,1.5,10.3,2.4,10.4,2.6
							c9.7,1.6,19.4,2.8,29.1,3.7c-0.7,0.2-5.6-0.3-9.4-0.7c7.8,0.7,8.5,0.9,9,1.1c0.5,0.2,0.9,0.4,8.1,0.8
							c-1.9-0.3,1.1-0.3,1.4-0.4c1.8,0.3,4.1,0.5,6.8,0.7c2.7,0.2,5.8,0.5,9,0.6c3.2,0.1,6.6,0.4,10,0.4c3.3,0,6.6,0.1,9.6,0.1
							c-0.8,0.2-1.5,0.3-2.3,0.4c10.9,0.1,22.4-0.2,34.2-1.2c11.8-1,23.9-2.4,36-4.3c-4.3,0.6-6.1,0.6-5.8,0.3
							c0.1-0.1,0.8-0.3,1.8-0.6c1-0.2,2.5-0.5,4.2-0.8l2.9,0.2c4.5-1.2-7.4,1,1.9-1.1c4.5-0.7,6-0.9,5.8-0.6
							c-0.2,0.3-2.2,0.9-4.8,1.4c3.6-0.6,7.2-1.5,10.9-2.3c0.7,0.1-1.9,0.7-2.5,1c4.4-1.2,18.8-3.2,25.1-5.3l0.6,0.1
							c23.8-5,34.5-7.5,53.9-11.6c0.3-0.6,7.9-2.1,13.5-3.8c14.3-2.8,30.2-5.7,47.3-9.4c12-2.8,3.4-1.2,8.8-2.7
							c1,0.3,18.1-3.3,9.3-1.1c10.3-2.2,16.9-3.6,24.1-5.2c3.6-0.8,7.4-1.7,11.9-2.7c2.3-0.5,4.7-1.1,7.4-1.7c1.3-0.3,2.7-0.6,4.2-1
							c0.4-0.1,0.7-0.2,1.1-0.3c0.2,0,0.3-0.1,0.5-0.1c0.3-0.1,0.6-0.2,1-0.2c-0.2,0-0.5,0-0.8,0c-0.2,0-0.3,0-0.4,0
							c-0.1,0-0.2,0-0.2,0c-0.1,0-0.3,0-0.4,0.1c-1,0.1-1.4,0.1-0.5-0.1c0.6-0.1,1.2-0.3,1.8-0.4c0.5-0.1,0.9-0.2,1.3-0.2
							c0,1-0.1,1.7-0.2,2.3c-0.1,1-0.2,1.5-0.2,1.3l-0.1-1.3c0.8,29.9-1.5,68.9-0.4,92.7l-0.1-1.3l0.6,24.7
							c-0.1,11.3-0.4-6.8-0.7,1.6c0.9,26.6-0.1,42,0.4,64c-1.5,17,0.1,60.2-0.9,83.1l0.4-1.3c0.3,5.9-0.2,7.2-0.3,11.5
							c0.3-0.6,0.3-6.4,0.5-2.7c0.1,10.7,0.1,21.6,0.1,32.6c0,5.5,0,11-0.1,16.5c0,2.8,0,5.5,0,8.3l0,4.2l0,1.2l0,0.5
							c-28.9-0.3-58.1-0.5-86.7-0.8c-18.8-0.1-10.7,1.8-34.4,1l6.7-0.7c-37.9,0.8-77.6,0-114.7,0.6c2.2-0.2,2.3-0.4,5.9-0.3
							c-3.9-0.2-11.2-0.2-17.5-0.1c-3.1,0.1-6,0.1-8.2,0.2c-2.1,0.1-3.5,0.2-3.5,0.3c-5.8,0-1.3-0.4-4.9-0.6
							c-7.9-0.3-19.7,0.6-23.9,0.1c-0.7-0.1,2.2-0.2,3.7-0.2c-5.1,0.2-23.9-0.1-19,0.5c-13.9-0.3-26.7,0.2-37.8-0.1
							c-7.2,0.6-23.9-0.3-26.2,0.6c1-0.9-24.4-0.7-33.2-0.3c3-0.3-7.7-0.3-4.2-0.7c-10.1,0-19.3,0.2-17.5,0.6
							c-18.5-1.1-37.2,0.9-47.7-0.5c-29.9,0.5-57.5,0.8-84.4,1c1-0.9,29.7-0.1,28.6-1c-25.5,0.4-40.2,1.1-65.5,0.9
							c-6.5-0.1,3.7-0.4,5.9-0.5c-25.5,0.4-49.2-0.1-71.9,0.4c0.1-0.1,2.5-0.2,4.8-0.2c-4.5,0-10.4-0.1-9.9,0.3l4.4-0.1
							c7.1,0.6-17.7,1.2-18.5,1.6c7.6-1.2-22.4-0.3-10.3-1.8c-2.9,0.1-6.6,0.3-6,0.5c-4.4-0.1-5.7-0.2-1.3-0.6
							c-16,0.2-10.3,0.7-24.8,0.7c0.1-0.2,3-0.3,4.5-0.5c-7.3,0.4-14.7,0.8-27,0.6c0.7-0.1-0.7-0.3,3-0.3c-21,0.1-35.9,1-58.9,0.7
							c6.8-0.9-7.8-0.3-9.1-1l-12.4,0.2l5,0.4c-10.9,0-20.5,0.5-29.8,0.3l8.1-0.3l-20.4,0.1l11.5,0.3c-11,0.4,1.2,0.9-13.3,0.7
							c2.9-0.1-10.9,0-16.5-0.4l0,0c-5.4,0.2-10.9,0.5-18.9,0.3c-2.1-0.2,1.7-0.8,0.3-1c-5.3,0.6-25.5,0.2-32.2,0.8
							c2.2-0.2,2.4-0.5,1.6-0.6l-4.5,0.5c-5-0.2-5.8-0.2-5-0.6c-15.1-0.1,4.8,0.9-13.2,0.5c1.4,0,0.7-0.1,3.7-0.2
							c-18.1-0.2-34.9,0.3-51.5,0.1c-4.9-0.8,14.5-0.2,8.9-0.8c-23.9,0.1-49.5,0.9-72.7,0.7l4.3,0.1c-3.2,1.1-17.2-0.5-28.9,0
							c2.9-0.1,3.8-0.6,3-0.5c-15.9-0.2-32.4,0.3-56.4,0.6l3-0.3c-9.3-0.2-24.6-0.1-34.7-0.3c-3,0.3-8.8,0.2-5.3,0.6
							c-31.1-1.6-59.4,0.8-87-0.5c3.3,0,7.9-0.2,5.2-0.2l-23.5,0.3c1.9,0.5,3.1,0.3,8,0.6c-3,0.3-9.6,0.5-15.4,0.5
							c10.6-0.3-0.1-0.7-4.7-1c0.8,0.1-0.8,0.3-0.4,0.4c-12.3-0.8-2.1,0.9-18.8,0.4l0.9-0.2c-6.3,0.1-12.1,0.4-18.8,0.4
							c-2.8-0.5,6.7-0.2,7.1-0.7c-9.5,0-18.8,1-27.4,0.5c4-0.1,9.8-0.2,13.9-0.3c-9.4-0.6-10.5-0.5-17.4-0.6l0.7,0L3.6,630l4.1,0.2
							c-1.4,0.2-2.7,0.3-4.1,0.4c-0.6,0-1.2,0.1-1.8,0.1c-0.6,0-1.1,0.1-1.7,0.1c0-0.5,0-0.9-0.1-1.4c0-0.5,0-1,0-1.5
							c0-1.2,0-2.4,0-3.7c0-2.5,0-5,0-7.7c0-5.3-0.1-10.9-0.4-17.1c0.9,15.6,0.5,2.6,1.1,3.8c0.2-4.1,0.4-10.3,0.5-8.5
							c-0.5-7.6,0.4-12.6-0.3-23.3c0.2-0.5,0-8.1,0.5-6.4c-0.2-9.8-0.3,2.3-0.6,1.5c-0.7-15.2,0.8-35.7-0.1-57.5
							c-0.4-18.8-1-22.3-1.4-39.8c0.3-5.9,0.7,4.8,0.7,4.8c0.3-9.5,0.2-16.7,0-25.6c0.2,1.8,0.3-0.1,0.5-2.8
							c-0.1-7.2-0.7-4.8-0.4-14.3c0.2,1.6,0.6,3.7,0.8,7.2c-0.2-8.5-0.5-16.9-0.7-25.6c0.3-2.3,0.5,5.3,0.7,8.4
							c-0.2-9.9-0.3-25.6-0.8-28.6L0,398.9c0-3.6,0.5-1.8,0.6,0.8c0.4,8.5-0.2,12.2-0.4,12.7l-0.1-6.3c-1.1,6.4,0.2,25.1,0.1,37.7
							l-0.8-5.2L0,451.5c-0.2,2.7-0.7,4.6-0.8-1.6c-0.4,9,0.3,8-0.2,15.7c-0.1,0.9-0.1,0.5-0.1-0.3l0.2,8.8
							c-0.2-1.7-0.6,1.5-0.5-3.9c-0.5,15.8,0.6,25.5,0,31.5l-0.1-1.3c0.3,22,0.6,2.1,1.3,18.6L-1.5,530l0.6,2.2
							c0,2.3-0.1,6.7-0.3,5.9c0.4,8.4,0.3-1.4,0.7,3.5c-0.6,10.9,0.3,30.1-0.7,32.5c0.5,3.9,0.4-10.4,0.7,1.2
							c-1,3.3,0.2,13.5-0.3,23.4c-0.5-3.1-0.3-12.5-0.7-2.5c0.9,6-0.2,19.4,0,27.8c0.1,0.1,0.2,0.9,0.3,2.2c0,0.7,0.1,1.4,0.1,2.4
							c0,1.1,0,2.4,0,3.7c3.5,0,7.8,0,12.4,0c4.3,0,8.9,0,13.1-0.1c-0.9,0.2,26.5,0.4,39.6,0.7l-0.4,0.1c2.5-0.7,16.1-0.6,25.9-0.7
							c-0.4,0.4-2.2,0.6-7.5,0.8l9.3,0c2.2-0.2,5.1-0.4,11.1-0.4l-2.3,0.5c12.3,0,24.8-0.6,40.7-0.3c0.9-0.5-12.6-1.4,4.2-1.8
							c0.6,0.3,1.2,0.8-3.1,0.9c1.4,0,5.1-0.2,8-0.1l-6.7,0.5c7.2,0.2,3.8-0.4,9.5-0.3c-0.1,0.4,4.3,0.3,3.4,0.6c-1.5,0-5-0.2-7.2,0
							c6.5,0.1,14.4,0.3,17,0.6c-0.6-0.2,0-0.5,4.8-0.6c12.3,0,4.2,0.5,11.4,0.7c3-0.3,10.8,0,11.1-0.6c3.6,0,4.3,0.3,5.7,0.4
							c6.4-0.3,29.8-0.1,22.6-0.7l-1.6,0c0.3,0,0.7,0,1,0c-0.1,0,0,0-0.1,0h0.1c20.9-0.6,43.4,0.3,64.2,0.1l0,0.2
							c12.4-0.2,27.6-0.1,36.4-0.6c3.7,0,8.6,0.4,7.1,0.6c9.5-0.1,10.5-0.4,24.2,0c-9.5,0.3,3.3,0.3-9.8,0.3
							c12.3,0.2,15.1,0.5,28.3-0.1c-4.5,0.5,9.3,0.6,15.1,0.5l-8.6-0.4c6.6-0.1,12.3,0,18.2,0l-3.2,0.7c25.2,0.8,45.4-1.4,64.5,0
							c6.7-0.5-13.7-0.3-7.7-0.9c11.6,0.1,23.6,1,27.3,1c15.9,0.4,14.8-1,31.4-0.7c-2.1-0.2-4.1-0.9,8.3-1.1
							c11.6,0.1,14.2,1,6.9,1.2c-2.8,0-4.1-0.1-4-0.1c-3.7,0.1-8.7,0.2-4.1,0.4l1.5-0.2c5.7,0.2,21.7,0.2,17.9,0.6
							c8.8-0.2,3.7-0.4-2.7-0.5c14.9,0.3,23.2,0,38.5,0.2c-2.4-0.1-4.7-0.4-2.3-0.4c22.4,0.3,9.9-0.5,25.1-0.6
							c8.6,0.4-3.1,0.9,12.2,0.6c9.3,0.2,2,0.6-1.7,0.8c13.9-0.5,26,0.3,34,0.4l-7.3,0.2c4.4-0.1,8-0.1,11.6-0.1l-4.2-0.5
							c4.3,0.1,8,0.1,7.9,0.3c4.4-0.3-3.4-0.8,5.4-1.2c5.7,0.2,17.5-0.3,19.5,0.4c-18.1-0.2,2,0.6-13.3,0.7c3-0.1,6.5-0.1,10.9,0
							c0.6,0.1-0.6,0.1-1.8,0.2c17.3,0.6,7.9-0.7,25.9-0.7c-2.3,0.4,4.2,0.7,7.1,0.6c-7.2,0-3.5-0.6,3.2-0.9
							c11.5,0.3,12.5-0.2,18.5-0.2l-6.9-0.1c2.3-0.4,8.1-0.3,16.1-0.4c0.7,0.3-7.3,0.2-4.4,0.3c8.9-0.6,20.1,0.6,32.5,0.2
							c5.7,0.2,0.6,0.7,5.6,0.8c13.9-0.5,15.1,0.5,29.7,0.1c-4.2-0.5-4.9-0.4,5.3-0.8l-24,0.3l15.4-0.7c-7.2,0-15.3,0.3-19.6,0.2
							c7.3-0.4,6.6-0.3,3.1-0.7c9.9,0.7,19.7-0.4,31.1,0.1l-0.3,1.2c17.2,0.5,30.6-0.6,53-0.3l-7.2-0.2c3-0.5,13.8-0.1,21.1-0.3
							c-0.7,0.4,3.9,0.5,7,0.8c-0.4-0.3,16.4,0,18.4-0.8l10,0.5c18.1,0.2,20.6-1.1,38-1c-5.2,0.4,2.7,0.7-9,1c5.8,0,11,0.1,11.1-0.2
							c3.4,0.2,16.1-0.5,21.4-0.2c2.4-0.2,3.2-0.6,9.8-0.6c0.7,0.1,0,0.2,0,0.2c0-0.2,10.2-0.3,4.5-0.7c17.9,1.2,49.9-0.1,65.5,1
							c12.7-0.1,27.9-0.3,39.4-0.3c-0.7,0.1,0,0.2-2.2,0.2c15.9,0.4,9.7-1.1,27.8-0.7c9.2,0.6-9.6,0.3-3.8,0.6
							c2.5,1.3,21.8-0.2,33.9,0.6l-2.9,0.1c9.3,0.4,22.6-0.5,37.8-0.4c0,0-0.7,0.1-0.1,0.2c10.4-0.7,30-0.9,44.6-1.1
							c-4.5,0.5-6.6,0.3-3.9,0.8c6.5-0.1-1.9-0.8,11.1-1c4.2,0.3,13.7,0.5,14.9,1.1l-12.3,0c6.3,0.7,15.9,0,22.4,0.1l-0.8,0.3
							c18.9-0.1,19.1-0.9,39.4-0.8l-2.1-0.2c11.1-0.8,9.3,0.4,20.3-0.1l3.3,0.8c7.3-0.2,25.6-0.8,38.7-0.9
							c-7.4,0.6-22.8,0.9-32.3,1.2c7.2,0,24.6-0.1,28.4-0.4c-2.9,0.1-6.6,0.3-9.5,0.1c3.4-0.2,7.2-0.4,11.4-0.6
							c2.1-0.1,4.3-0.1,6.6-0.2c1.2,0,2.3,0,3.5-0.1c1.4,0,2.9,0,4.4,0c0-3.3,0-6.8,0-10.4c1.5,2.6,0.4-37.6,1.6-48.1
							c-0.6-25.5,0.2-50.7,0.2-80.5c-1.2,10.6,0-8.7-1.3-6.9c-0.1-6.9-0.1-9.6,0-10.2l0.7-21c0.4-5,0.3,6.6,0.5,6
							c0.1-15.2,0.5-6.4,0.8-16.4c-0.4,2.1-0.6-5.3-0.5-13.9l-0.6,12.2c-0.7-21.2,1-18.3,0.4-39.7l0.4,6.8c-0.2-11,0-40.5-1-51.2
							c0.1-1.9,0.5-4.5,0.6,0.3c0.1-11.3-0.1-23.7-0.3-35.7c-0.1-6-0.2-12-0.2-17.7c0-2.8,0-5.6-0.1-8.3c0-3.5,0-7,0-10.2
							c-2.4,0.5-4.8,1-7.1,1.4c-1.5,0.3-3,0.6-4.4,0.8l1.9-0.7c-4.8,1.1-8.2,2.3-14.3,3.3c0.3-0.2,1.9-0.7-0.4-0.2
							c-2.5,0.6-12.6,3.2-19,4.4l5.4-1.5c-25.1,4.9-38.2,8.9-59.2,13.5c-0.1-0.9-19.9,3-29.7,4.9l0.3-0.2
							c-29.2,6-49.4,11.2-76.3,17.2c-4.2,0.7-9.9,1.6-16.4,2.8c-3.3,0.5-6.8,1.1-10.4,1.7c-3.7,0.5-7.5,1-11.4,1.6
							c-15.6,2-32.6,3.1-46.2,3c4.2,0.1-0.7,0.7-5.5,0.8c-6.4-0.1-17.8,0.3-16.7-0.5l2.3,0.1c-2.4-0.5-6.9-0.8-12.1-1.2
							c-2.6-0.2-5.3-0.4-8.1-0.6c-2.8-0.2-5.5-0.5-8.1-0.7l-1.8,0.9c-13.3-2.1-30.8-4.6-46.6-8c-15.9-3.3-30.2-6.3-37.3-8.6
							c-6.4-1.2-14.4-2.9-20.7-4l0.5-0.5c-17.7-4-26.5-6.1-48.4-10.8l4.5,0.6c-12.3-2.8-15.9-1.8-27.3-4.3l-3.2-1.6
							c-21.5-4.7-43.2-10.3-64.6-14.2c0.4,0,1.1-0.1,4.6,0.6c-10.1-2.3-39.1-9.2-35.6-7.3c-0.1-0.8-22.2-5-33.9-7.2l1.9-0.1
							c-10-1.5-10.3-1.4-24.1-4.1c-3.2-0.8-2.8-1,1.5,0c-5.4-1.3-7.6-1.6-10-1.9c-2.4-0.4-5.2-0.7-11.8-2l5,0.5
							c-5.6-1.1-8.2-1.4-10.2-1.6c-2-0.2-3.3-0.3-6.5-0.5c-1.8-0.2-4-0.5-6.4-0.8c-2.4-0.3-4.9-0.6-7.2-0.9
							c-4.7-0.5-8.7-1.1-9.6-1.4c-1.6,0.2-7.8,0.2-14.6,0c-0.9-0.2,1.6-0.3,2.8-0.3c-4.8-0.3-9-0.2-12.8-0.1
							c-1.9,0.1-3.7,0.2-5.4,0.3c-1.7,0.1-3.4,0.2-4.9,0.4c-6.4,0.6-11.9,1.4-18.5,2.2c-0.3-0.1-1.2-0.1-2.3,0.1
							c15.1-2.7,27.4-2.8,26.2-2.8c0-0.2-3.1-0.3-5-0.3c-0.9,0-1.6,0-1.3-0.2c0.2-0.1,1.3-0.4,3.7-0.7c-0.6,0.1-1.3,0.1-1.9,0.2
							c-0.7,0.1-1.4,0.2-2.1,0.3c-1.4,0.2-2.9,0.4-4.5,0.6c-1.6,0.2-3.2,0.5-4.9,0.7c-1.7,0.3-3.4,0.6-5.1,0.8
							c-1.7,0.3-3.4,0.7-5.2,1c-1.7,0.4-3.5,0.6-5.1,1.1c-1.7,0.4-3.3,0.8-4.9,1.1c-0.8,0.2-1.6,0.4-2.4,0.5
							c-0.8,0.2-1.5,0.4-2.2,0.6c-0.6,0.1-1.1,0.2-1.6,0.3l1.2-0.4c-2.7,0.7-5.1,1.4-7.3,2.2c-3.7,1-6,1.7-9.5,2.7
							c-1.5,0-13.5,3.8-19.4,5.5c0.6,0.4-7,2.5,0.3,0.9c-0.9,0.2,1.1-0.4,5-1.5c0.9-0.3,1.9-0.6,2.5-0.8c-0.1,0-0.2,0.1-0.4,0.2
							c3.8-1.2,8.8-2.7,14.5-4.4c-4.5,1.7-9.3,3.3-15.8,4.9c-2.9,1.2-6.1,2.5-7.9,3.3c-8.2,1.6-23.8,5.6-26.1,5.7
							c-17.8,5.4-42.2,11.7-53.3,15.7c-5.1,1.4-6,1.2-7.9,1.6c2.9-0.9,6.5-1.8,8-2.3c-10.2,2.9-30.4,7.8-32.7,9.1
							c-13,2.8,7.1-2.4-10.7,2l2.4-0.8c-17.7,3.7-31.8,7.3-46.5,11c-14.7,3.6-29.9,7.3-49.7,10.3c2.7-0.4,4.1-0.7,4.7-0.6
							c-44.8,8.1-92.4,16.9-137.3,20.2c-6.4,0.5-9.9,0.9-12.8,1.3c-2.9,0.4-5.2,0.8-9,1.2l-2.8-0.4c-4.4,0.5-8.8,1.1-13.3,1.6
							c-4.7,0.4-9.1,0.5-13.4,0.7c-1.1,0-2.2,0-3.2,0.1l-3.2,0c-2.2,0-4.3,0-6.5-0.1c-4.4-0.1-9,0-13.9-0.1c-2.5,0-5,0-7.8,0
							c-2.7,0-5.5,0.1-8.5,0.1l3.1,0.5c-4.3-0.2-11.1-0.3-16.6-0.5c-5.5-0.3-9.8-0.6-9.1-0.8c-0.9,0-2.8,0.2-6.2-0.2l-0.2-0.3
							c-1.8,0-3.5-0.2-5.3-0.3l-5.3-0.4l-5.3-0.4l-2.6-0.2l-2.6-0.3c-8.1-1.3-7.4-1.5-7.7-1.8c-0.1-0.2-0.5-0.4-2.3-0.7
							c-0.9-0.2-2.2-0.4-3.9-0.7c-1.8-0.4-4-0.8-6.9-1.4c-2.2-0.4-4.8-0.8-7.5-1.2c-2.7-0.6-5.4-1.1-7.7-1.6
							c-4.7-0.9-7.9-1.4-6.3-0.9c3.5,0.9,8.8,2.4,9,2.7l-7.9-1.8c-0.8,0.3-2.8,0.2-2.2,0.9c0.6,0.6,3.8,1.8,13.5,4.5
							c4.6,0.8,9.2,1.4,13.9,2.1l2.2,0.6l2.2,0.5c-1.9-0.2-3.9-0.6-5.8-1l-5.8-1.1c3.2,0.8,5.9,1.4,8.4,1.8c2.5,0.4,4.7,0.5,7.1,0.7
							c1.1,0.4,3,0.8,5.7,1.3c4.6,0.4,9.2,0.5,13.7,0.7c1.6,0.5-6.2,0.1,3,1.2c6.4,0.2-6.1-1.4,4.5-0.7c6.6,0.8,4.7,1.1,12.5,1.2
							c1.1,0.3-0.6,0.4-3.7,0.3c7,0.3,18.5,0.7,22.1,0.3c3.5,0.4,9.4,0.3,14.3,0.4c4.9,0,8.9,0.1,8.6,0.5c2.2-0.3,12.3-1,18.7-1.2
							c-2.9,0.4-2.9,0.5-1.2,0.5c1.7,0,4.9-0.2,8.4-0.3c3.5-0.2,7.3-0.3,10.1-0.4c2.7-0.1,4.4-0.1,3.6,0.3c2.1-0.4,5.2-0.7,8.7-1.1
							c3.6-0.3,7.7-0.6,12-1.1c4.3-0.4,8.8-0.9,13.2-1.3c4.4-0.5,8.6-1,12.4-1.6c-0.8,0.2-2.5,0.5-3.8,0.6
							c8.6-0.9,11.1-0.8,16.6-1.3c0.5-0.5,4.1-1.1,8.4-1.9c2.2-0.4,4.5-0.8,6.8-1.1c2.3-0.4,4.4-0.8,6.2-1.2
							c10.6-0.7-6.2,1.8-2.8,2.1c-0.6-0.6,18.1-3.2,14.5-3.2c8.1-0.7,6.9-0.8,11.1-0.8c1.2-1.2,7.4-1.3,13.9-3
							c11.6-1.5,3.1,0.4,15.7-2C293.8,339.2,282.6,341.4,282.6,341.4z M578.5,267.7C578.5,267.7,578.5,267.7,578.5,267.7
							c-2.5,0.6-4.6,1.3-6,1.7C573.8,269.1,575.5,268.5,578.5,267.7z M603.6,263.4c-1.5,0.1-3.3,0.4-5.1,0.6
							c-1.8,0.3-3.8,0.4-5.8,0.8c-0.9,0,0-0.4,2.5-0.8C593.8,264.4,599.8,263.7,603.6,263.4z M550.1,272c3.9-1.2,5.2-1.5,5.8-1.6
							c-1.8,0.6-4,1.2-6.8,2.1c-0.1,0-0.3,0.2-0.4,0.2C548.9,272.5,549.3,272.2,550.1,272z"/>
						<path class="st3" d="M543.3,274.7c-0.6,0.2-0.9,0.3-1.6,0.5c0.8-0.2,1.6-0.4,2.4-0.6c0.5-0.2,0.9-0.4,1.3-0.6
							C544.7,274.3,543.9,274.5,543.3,274.7z"/>
						<path class="st3" d="M221.2,632.3l0.5,0c-0.4,0-0.9,0-1.1-0.1C220.9,632.3,220.9,632.3,221.2,632.3z"/>
						<polygon class="st3" points="950,327.3 950,327.2 947.8,326.8 						"/>
						<path class="st3" d="M80,630.4c-0.3,0-0.8-0.1-1.9-0.1C78.3,630.3,79.1,630.4,80,630.4z"/>
						<path class="st3" d="M19,630.3l-8.6-0.2C14.2,630.2,16.9,630.2,19,630.3z"/>
						<path class="st3" d="M1,604.2c-0.1-0.6-0.2-0.8-0.2-0.9c0,0,0,0.1,0,0.1L1,604.2z"/>
						<path class="st3" d="M717.6,629.3c0.6,0,1.3,0,1.8,0C723.6,629.2,720.7,629.2,717.6,629.3z"/>
						<path class="st3" d="M495.7,630.7c2.4-0.1,4.7-0.2,7.1-0.3C498.9,630.3,495.9,630.3,495.7,630.7z"/>
						<path class="st3" d="M965.3,628.7C965.2,628.7,965.3,628.7,965.3,628.7c0.5,0,1,0,1.5,0L965.3,628.7z"/>
						<path class="st3" d="M513.2,630.4c-3.9-0.1-7.2-0.1-10.3,0C506.1,630.4,509.9,630.5,513.2,630.4z"/>
						<path class="st3" d="M1.3,401l0-2.3c0,0-0.1-0.1-0.1-0.3L1.3,401z"/>
						<path class="st3" d="M1.2,398.4l-0.1-2.5C1.1,397.1,1.1,398.1,1.2,398.4z"/>
						<path class="st3" d="M1,390.7l0.1,5.3C1.1,394.1,1.1,391.9,1,390.7z"/>
						<path class="st3" d="M1,463l0.2,0.7C1.2,463.4,1.1,463.1,1,463z"/>
						<path class="st3" d="M1.1,481.9c0-4.5,0.4-11.3,0.3-17.6l-0.2-0.6C1.5,466.7,0.7,477.6,1.1,481.9z"/>
						<path class="st3" d="M-1.5,560.6l0.2-15.8c-0.2,2.8-0.5,6.4-0.6-0.8C-2.5,563.9-1.4,539.9-1.5,560.6z"/>
						<path class="st3" d="M-1.8,609.6c-0.1-8.5-0.3,0.1-0.4-0.3C-2,614.7-2,616-1.8,609.6z"/>
						<path class="st3" d="M331.7,632.8l-0.9,0.5C337.4,633.2,331,633.1,331.7,632.8z"/>
						<polygon class="st3" points="399.4,630.1 393.1,629.8 390,630.3 						"/>
						<polygon class="st3" points="439.4,633.8 436.6,633.9 447.5,633.7 						"/>
						<path class="st3" d="M1034.2,633.6l-2-0.6C1027.8,633.1,1026.8,633.8,1034.2,633.6z"/>
						<path class="st3" d="M1290.9,633c2.8,0.3,10,0.5,14.5,0.2C1299.6,633.1,1293.9,632.9,1290.9,633z"/>
						<path class="st3" d="M1017.7,335.6l5.1,0.4c-3.2-0.3-6.4-0.7-9.6-1.1C1014.7,335.2,1016.2,335.4,1017.7,335.6z"/>
					</g>
				</g>
			</g>
		</g>
	</g>
</g>
</svg>
