<svg id="Layer_1" xmlns="http://www.w3.org/2000/svg" viewBox="0 0 1366 309">
  <style>
    .hills--stroke{fill:#207b50}
    .hills--fill{fill:#8cc63f}
  </style>
  <g id="Midground">
    <path d="M1.6 125.3l178-114.8c13.5-8.7 30.8-9.1 44.7-1.1l233.1 135.3c53.1 24 113.8 25.1 167.7 3l153.4-62.8c52.2-21.4 111.1-19.1 161.5 6.3l23.6 8c45 15.2 94.4 9.4 134.6-15.8l107.5-67.5C1240.4-5.9 1285.6.4 1313 30.8l53.6 59.5v213H1.6v-178z" class="hills--fill"/>
    <path class="hills--stroke" d="M2.9 125.3c-.2-1.7-.6-.7-.5 4l.7 3.4-.2-7.4zM1.7 157.3c.3 5.6.9 12 1.5 8.4-.6-5.5-.4-6.9-1.1-12.8-.1-4.8.2-8.3.5-7.5-.2-1.7.1-7.4-.3-10-.5 6.2-.5 14-.1 22.2-.2 1.8-.4.1-.5-.3zM320.6 304.2l-3-.1c.8.1 1.8.1 3 .1zM608.7 304.6c-2.2 0-3.1.1-3.2.1 2 0 3.7-.1 3.2-.1zM657.8 305.3h-2.9c1.2 0 2.3.1 2.9 0zM320.6 304.2l7.7.2c.5-.2-4-.1-7.7-.2zM3.3 221.4c0-1.6-.1-3-.2-4.2 0 1.3 0 2.6.1 3.9 0 .1.1.2.1.3zM193.6 304.8h-2.3c-.7.1-1.3.2-1.9.3l4.2-.3zM96.1 304.9c2.2 0 3-.5 3.8-.8-1.2.2-2.9.3-4.8.4 0 .1.3.2 1 .4zM1 243.3l-.1-2.7c.1.6.1 1.8.1 2.7zM263.3 304.9c.2.1.5.2.9.2 0-.1-.3-.2-.9-.2zM98 66.3c0-.1-.1-.1 0 0-.5.3-.7.4 0 0z"/>
    <path class="hills--stroke" d="M1.5 125.2l1.3-.9c.1-.2.2-.4.1-.4l-1.4 1.3zM747.9 306h-.4c-2.4.1-1.1.1.4 0zM1368.9 95.6c-.2 3.4-.3 2.3-.4.3-.1-1-.1-2.3-.2-3.4-.1-.9-.1-2.5-.2-2.9-.3-.3-.3-.3-.1 0 0 0-.1.4-.1 1.4 0 .4 0 .8-.1 1.4 0 .5-.1 1.2-.1 1.9.2-1.1.9 13 1.2 1.3zM3.2 223.9v4c.1-1.8.1-3 0-4zM1367.7 94.5l-.1 1.5c.1-.6.1-1 .1-1.5zM955.3 305.7c-.4-.1-1.3-.2-2.1-.2 0 0 .5.1 2.1.2zM800.8 304.9l3.8.1c-1.5-.1-2.8-.1-3.8-.1zM1035.5 304.9c2.1 0 2.8.1 5.6 0-.3 0-.5 0-.9-.1-1 .2-2.3.2-4.7.1zM1119 304.9c-.4 0-1-.1-1.5-.1h-2.6l4.1.1zM316.4 65.7c-1.5-1.1-2.4-1.8-3.1-2.4 1 1-9.7-5 3.1 2.4zM3 221.5c.1.5.2 1.2.2 2.5v-2.8c-.1-.3-.2-.3-.2.3zM1038.9 300.5l13.3.1c-3.7-.1-8.6-.1-13.3-.1zM875.6 74.2l-3-.3c1.1.1 2.2.2 3 .3zM1091.5 300.5c2.4.2 4.9.3 7.5.4.5 0 1.2-.1 1.5-.1l-9-.3zM313.3 63.3c.1 0 .1 0 0 0 .1 0 .1 0 0 0z"/>
    <path class="hills--stroke" d="M237.1 20.6c10.9 6.4 5.5 2.4 8 3.3 13.2 7.4 5.8 4 10 6.9 8.2 4.6 14.8 7.6 20.9 11.2.4.4 1.6 1.1.1.4 8.9 4.5 25.6 14.8 36 20 .7.5 1.1.8 1.2.9-1.4-1.3-1.5-1.7-1-1.8 4.9 2.8 9.3 4.9 10.9 6.4-3-1.8-3.3-1.7-4.8-2.4l5.2 2.8c4.3 3.3-7.1-3.9-7.4-3.4 10.1 5.6 22.1 11.9 29.7 16.5 1.3 1.5-18.1-10.2-8.1-3.8l-11.7-7.1c8.5 6.2-7.2-4.3.6 1.6 15.5 9.2 17.7 9.8 33.1 19.1 3.7 1.7-.9-1.2 2.8.6 22.5 12.3 16.6 11.6 33.3 20.3 4.4 2.1 6.5 2.3 17.9 9.4l-4.3-1.6c15.1 8.8 9.2 4.1 24.8 13.7-3-1.4-12-6.7-9.8-5.3 10 6.5 7.5 3.8 15.4 8.4l1.3 1.5c4 2.3 8.2 4.7 12.4 7.1l1.6.9.8.4c.1 0 .4.2.6.3l.5.2c1.1.5 2.3.9 3.5 1.4 2.3.9 4.6 1.9 7 2.8 4.8 1.6 9.6 3.4 14.6 4.8 1.2.4 2.5.7 3.7 1.1.6.2 1.2.4 1.9.5l1.9.5c2.5.6 5 1.2 7.6 1.8-1.2-.1-4.7-.7 0 .6 12.9 2.7 26.8 4.6 40.7 5.2s27.7-.2 40.3-2l4.7-1.1c1.6-.3 3.1-.8 4.7-1.2 2.2-.5 4.1-.6 1.8 0 9.7-1.8.4-.5 5-1.7 5.4-1.5 7.3-1.6 3.9-.5 8.4-2.2 20.1-6.6 31.6-11.4 11.4-4.8 23-9.5 31.6-12.7l-3.2 1.5c13.2-5.1 14.3-7.2 26.7-11.6l-2.3 1.1c28.5-11.4 59.8-24.8 81.8-32.8 1.9-1.2 9-4.1 15.7-6.7 3.4-1.2 6.7-2.5 9.3-3.5 2.6-.9 4.4-1.6 4.8-2.1 2.1-.6 3.8-1.1 5.4-1.5 1.5-.3 2.8-.6 4-.9 2.3-.5 4-.9 6-1.2s4.2-.7 7.3-1.2c.8-.1 1.7-.3 2.6-.4.9-.1 2-.2 3.1-.4 1.1-.1 2.3-.3 3.6-.5 1.3-.1 2.7-.4 4.2-.5 3.2-.3 5.6-.7 8.2-1.1 2.6-.4 5.4-.7 9.4-.9l.2.6c.9-.1 1.8-.2 2.7-.2l2.7-.1 5.5-.3c1.9.3 3.9.7 5.8 1.1 2.5.1 5 .2 7.5.5-3-.5-6.4-.8-5.9-1 3 .1 6.2.5 9.5.9 1.6.2 3.2.4 4.8.7 1.5.3 3.1.6 4.5.9 2.8.6 5.3 1.1 7 1.7 1.7.5 2.8.9 2.9 1 4.6.8 9 2.1 13.6 3.3 1.1.3 2.2.7 3.3 1l3.3 1.1c2.2.7 4.5 1.4 6.6 2.3-.3 0-1.6-.5-3.2-1s-3.6-1.1-5.4-1.6c3.6 1.1 5.5 1.7 6.6 2.1 1.1.5 1.3.6 1.5.8.4.4.7.7 7.1 2.9-1.6-.8 1.1 0 1.4.1 1.5.8 3.5 1.8 5.8 3l1.8.9c.4.2.7.3 1.1.5.1.1.3.1.4.2l.3.1.5.2c1.4.5 2.8 1 4.3 1.5 5.9 2 12.4 4.2 17.9 6l-2.2-.3c2.4.9 5.1 1.7 7.7 2.5 1.3.4 2.6.8 4 1.2 1.3.3 2.7.7 4.1 1 1.4.3 2.7.7 4.1 1 1.4.3 2.8.5 4.2.8s2.8.5 4.2.8c1.4.2 2.9.4 4.3.6 11.5 1.5 23.4 1.8 35.4.8-4.3.3-5.9.1-5.7-.2.1-.1.8-.2 1.8-.4s2.4-.4 4.2-.5l2.8.4c4.5-.8-7.3.4 1.9-.9 8.8-1.2 6-.1 1 .8l5.4-.9c.9-.2 1.8-.3 2.7-.5l2.6-.6c.7.1-1.8.7-2.4 1 1.1-.3 2.8-.7 4.8-1.1 1-.2 2.1-.4 3.3-.6 1.1-.3 2.3-.5 3.5-.8l3.6-.9c.6-.1 1.2-.3 1.8-.4.6-.2 1.1-.4 1.7-.5 2.2-.7 4.2-1.4 5.7-2.1h.6c11.3-4 19.1-8 26.2-12 1.7-1 3.5-2.1 5.2-3.1s3.4-2.1 5.1-3.2c3.4-2.2 7-4.5 11.1-7 0-.7 6.4-4.6 11-8 12-7.3 25.5-15.3 39.9-24.3 10-6.6 2.7-2.3 7.1-5.4 1 0 15.3-9.1 8.1-4.1 8.6-5.5 14.1-9 20.1-12.8 3-1.9 6.2-4.1 9.9-6.2 3.8-2.2 8.3-4.4 14.3-6.5-.7.2-1.3.3-2 .5-.6.2-1.2.4-1.6.5-.9.3-1.3.3-.5 0 4.3-1.8 10-2.9 9.4-2.5-.4.1-.8.2-1.2.4 6.8-2 14.4-3 22.2-2.9 7.8.2 15.7 1.6 23.1 4.1 3.7 1.2 7.2 2.7 10.6 4.3 3.3 1.7 6.5 3.5 9.4 5.4 5.8 3.9 10.8 8 14.9 11.9l-.9-.9c2.7 2.7 5.5 5.7 8.2 8.5l8.2 8.7c7.3 8.2-4.7-4.6.5 1.6 8.5 8.8 15 16 21.1 22.9 3 3.4 6 6.7 9 10.1 1.5 1.7 3 3.4 4.6 5.1.8.9 1.6 1.7 2.4 2.6.4.4.8.9 1.2 1.3l.5.5.2.2v2.5c-1.5 16.4.1 58.3-.9 80.4l.4-1.3c.3 5.7-.2 6.9-.3 11.2.3-.6.3-6.2.5-2.7.2 19.8.1 40 0 60.5-.2 19.4-.4 39.1-.6 58.5h-4c-2.3 0-4.7 0-7-.1-4.7 0-9.3-.1-13.9-.1-18.2-.1-10.3 1.8-33.3 1l6.5-.7c-36.7.8-75.1 0-111 .6 2.1-.2 2.2-.4 5.7-.3-3.8-.2-10.8-.2-16.9-.1-3 .1-5.9.1-7.9.2-2.1.1-3.4.2-3.4.3-5.6 0-1.3-.4-4.7-.6-7.6-.3-19.1.6-23.2.1-.7-.1 2.1-.2 3.5-.2-5 .2-23.1-.1-18.4.5-13.5-.3-25.8.2-36.6-.1-7 .6-23.1-.3-25.3.6 1-.9-23.7-.7-32.2-.3 2.9-.3-7.4-.3-4.1-.7-9.7 0-18.7.2-17 .6-17.9-1.1-36.1.9-46.2-.5-28.9.5-55.7.8-81.7 1 .9-.9 28.8-.1 27.6-1-24.7.4-38.9 1.1-63.4.9-6.3-.1 3.6-.4 5.7-.5-24.7.4-47.7-.1-69.6.4.1-.1 2.4-.2 4.7-.2-4.3 0-10.1-.1-9.6.3l4.2-.1c6.9.6-17.2 1.2-17.9 1.6 7.3-1.2-21.7-.3-10-1.8-2.8.1-6.4.3-5.8.5-4.2-.1-5.6-.2-1.3-.6-15.5.2-10 .7-24 .6 0-.2 2.9-.3 4.3-.5-7.1.4-14.2.8-26.1.6.7-.1-.7-.3 2.9-.3-20.4.1-34.7 1-57.1.7 6.6-.9-7.6-.3-8.8-1l-12 .2 4.8.4c-10.5 0-19.8.5-28.9.3l7.8-.3-19.7.1 11.2.3c-10.6.4 1.1.9-12.9.7 2.8-.1-10.5 0-16-.4-5.2.2-10.6.5-18.3.3-2-.2 1.6-.8.3-1-5.1.6-24.6.2-31.2.8 2.2-.2 2.3-.5 1.6-.6l-4.3.5c-4.9-.2-5.6-.2-4.8-.6-14.7-.1 4.7.9-12.7.5 1.4 0 .7-.1 3.6-.2-17.5-.2-33.8.3-49.8.1-4.7-.8 14-.2 8.6-.8-23.2.1-48 .9-70.4.7l4.2.1c-3.1 1.1-16.7-.5-28 0 2.8-.1 3.6-.6 2.9-.5-15.3-.2-31.4.3-54.6.6l2.9-.3c-9-.2-23.8-.1-33.6-.3-2.9.3-8.5.2-5.1.6-30.1-1.6-57.5.8-84.2-.5 3.2 0 7.6-.2 5.1-.2l-22.8.3c1.8.5 3 .3 7.8.6-2.9.3-9.3.5-15 .5 10.2-.3-.1-.7-4.5-1 .7.1-.8.3-.4.4-11.9-.8-2 .9-18.2.4l.9-.2c-6.1.1-11.7.4-18.2.4-2.7-.5 6.5-.2 6.9-.7-9.2 0-18.2 1-26.5.5 3.9-.1 9.5-.2 13.4-.3-9.1-.6-10.1-.5-16.9-.6h.7l-15.6-.3 4 .2c-11.5 1.4-23.5.3-39 1.2 15.1-.9 2.5-.5 3.6-1.1-4-.2-10-.4-8.3-.5-7.3.5-12.2-.4-22.6.3-.5-.2-7.8 0-6.2-.5-9.5.2 2.3.3 1.5.6-5.2.2-11.1.2-17.5.1-5.9-.1-12.2-.2-18.8-.3v-2.8-4.4c0-3-.1-6-.3-9-.4-18.2-1-21.6-1.4-38.5.3-5.7.7 4.7.7 4.7.3-9.2.2-16.1 0-24.8.2 1.8.3-.1.5-2.7-.1-7-.7-4.7-.4-13.8.2 1.6.6 3.6.8 7-.2-8.2-.5-16.3-.7-24.8.3-2.3.5 5.1.7 8.1-.2-9.6-.3-24.7-.8-27.7l-.2 6.1c0-3.5.5-1.8.6.8.4 8.2-.2 11.8-.4 12.3l-.1-6.1c-1.1 6.2.2 24.3.1 36.5l-.8-5.1.7 12.5c-.2 2.7-.7 4.5-.8-1.5-.4 8.7.3 7.7-.2 15.2-.1.8-.1.5-.1-.3l.2 8.5c-.2-1.7-.6 1.4-.5-3.8-.5 15.3.6 24.7 0 30.5l-.1-1.3c.3 21.3.6 2.1 1.3 18l-.6 4.1c-.2 1.3-.4 2.9-.6 4.7l3 .4c.5-.1.9-.2 1.3-.3l1-.3c2.2 0 6.5.1 5.7.3 8.2-.4-1.4-.3 3.3-.7 10.6.6 29.1-.3 31.5.7 3.8-.5-10.1-.4 1.2-.7 3.2 1 13-.2 22.7.3-3 .5-12.1.3-2.4.7 5.8-.9 18.8.2 26.9 0 .4-.7 17.7-.3 31.3-.5-.9.2 25.7.4 38.4.7l-.4.1c2.5-.7 15.6-.6 25.1-.7-.4.4-2.1.6-7.3.8h9c2.1-.2 4.9-.4 10.7-.4l-2.3.5c11.9 0 24-.6 39.4-.3.9-.5-12.2-1.4 4-1.8.6.3 1.2.8-3 .9 1.4 0 5-.2 7.8-.1l-6.5.5c7 .2 3.7-.4 9.2-.3-.1.4 4.1.3 3.3.6-1.4 0-4.9-.2-7 0 6.3.1 13.9.3 16.4.6-.5-.2 0-.5 4.6-.6 11.9 0 4.1.5 11 .7 2.9-.3 10.5 0 10.7-.6 3.5 0 4.1.3 5.5.4 6.2-.3 28.8-.1 21.9-.7h-1.6 1c20.2-.6 42 .3 62.1.1v.2c12-.2 26.7-.1 35.2-.6 3.5 0 8.4.4 6.9.6 9.2-.1 10.2-.4 23.4 0-9.2.3 3.2.3-9.4.3 11.9.2 14.6.5 27.4-.1-4.4.5 9 .6 14.6.5l-8.3-.4c6.4-.1 11.9 0 17.6 0l-3.1.7c24.4.8 43.9-1.4 62.5 0 6.4-.5-13.2-.3-7.5-.9 11.2.1 22.9 1 26.4 1 15.3.4 14.3-1 30.4-.7-2.1-.2-4-.9 8-1.1 11.2.1 13.8 1 6.7 1.2-2.7 0-4-.1-3.9-.1-3.6.1-8.4.2-3.9.4l1.5-.2c5.6.2 21 .2 17.4.6 8.5-.2 3.6-.4-2.7-.5 14.4.3 22.5 0 37.3.2-2.4-.1-4.5-.4-2.2-.4 21.7.3 9.6-.5 24.3-.6 8.4.4-3 .9 11.8.6 9 .2 1.9.6-1.7.8 13.5-.5 25.2.3 32.9.4l-7.1.2c4.3-.1 7.7-.1 11.3-.1l-4.1-.5c4.2.1 7.7.1 7.6.3 4.3-.3-3.3-.8 5.2-1.2 5.6.2 16.9-.3 18.9.4-17.5-.2 1.9.6-12.9.7 2.9-.1 6.3-.1 10.5 0 .6.1-.6.1-1.7.2 16.7.6 7.7-.7 25-.7-2.2.4 4 .7 6.9.6-7 0-3.3-.6 3.1-.9 11.1.3 12.1-.2 17.9-.2l-6.7-.1c2.3-.4 7.8-.3 15.6-.4.7.3-7 .2-4.3.3 8.6-.6 19.5.6 31.5.2 5.6.2.5.7 5.4.8 13.5-.5 14.6.5 28.7.1-4.1-.5-4.8-.4 5.2-.8l-23.3.3 14.9-.7c-7 0-14.8.3-19 .2 7.1-.4 6.4-.3 3-.7 9.6.7 19-.4 30.1.1l-.3 1.2c16.7.5 29.7-.6 51.3-.3l-7-.2c2.9-.5 13.4-.1 20.4-.3-.7.4 3.7.5 6.7.8-.4-.3 15.9 0 17.8-.8l9.7.5c17.5.2 20-1.1 36.8-1-5.1.4 2.6.7-8.7 1 5.6 0 10.7.1 10.8-.2 3.3.2 15.6-.5 20.7-.2 2.4-.2 3.1-.6 9.4-.6.7.1 0 .2 0 .2 0-.2 9.9-.3 4.4-.7 17.3 1.2 48.4-.1 63.4 1 12.3-.1 27-.3 38.2-.3-.7.1 0 .2-2.1.2 15.3.4 9.4-1.1 26.9-.7 8.9.6-9.3.3-3.7.6 2.4 1.3 21.1-.2 32.8.6l-2.8.1c9 .4 21.9-.5 36.6-.4 0 0-.7.1-.1.2 10-.7 29-.9 43.2-1.1-4.4.5-6.4.3-3.7.8 6.3-.1-1.9-.8 10.8-1 4.1.3 13.2.5 14.4 1.1h-11.9c6.1.7 15.4 0 21.7.1l-.8.3c18.3-.1 18.5-.9 38.2-.8l-2-.2c4-.3 6.3-.3 8.1-.2.9 0 1.8.1 2.7.1 1.1.1 2.3.1 3.7.1v-3.3c0-.5 0-1.1-.1-1.8 0-.6-.1-1.2-.1-1.9l.8-3.2c-.2-7.1-.8-24.8-.9-37.5.6 7.2.9 22 1.2 31.2 0-7-.1-23.8-.4-27.5.1 2.8.3 6.4.1 9.2-.6-8.6-.9-19.9-.9-33.9 1.5 2.5.4-36.4 1.6-46.6-.6-24.7.2-49.1.2-77.9-1.2 10.2 0-8.4-1.3-6.6-.1-6.7-.1-9.3 0-9.9l.2-4.7-10.7-12.7c-3-3.8 4.5 4.6 4.3 3.9-9.8-11-3.7-4.9-10-12.4 1 1.8-3.9-3.4-9.4-9.7l7.5 9.1c-14.2-14.8-11.1-13.9-25.5-28.8l4.7 4.6c-1.8-1.9-4.4-4.7-7.3-7.9-3-3.2-6.1-6.8-9.7-10.4-3.6-3.5-7.6-6.7-11.2-9.2-3.7-2.5-7.1-4.2-9.6-5.3-1.6-1-3.8-2.5.5-.3-2.9-1.5-5.9-3-9.1-4.2-3.2-1.3-6.5-2.3-9.9-3.1-3.4-.9-6.9-1.4-10.3-1.9-3.5-.4-7-.6-10.4-.6-6.9 0-13.6.8-19.6 2.2-6.1 1.4-11.6 3.2-16.3 5.1l1.7-1.1c-4.5 2-7.5 4-12.8 6.9.2-.3 1.5-1.3-.4-.1-2.1 1.4-10.4 7.1-15.8 10.3l4.4-3.1c-21.2 12.8-31.8 20.9-49.2 32.1-.4-.8-17.1 9.3-25.4 14.4l.2-.3c-6.1 3.8-11.7 7.4-17.1 10.8-1.3.9-2.7 1.7-4 2.6l-3.9 2.4c-1.3.8-2.6 1.6-3.8 2.3l-3.9 2.1c-10.4 5.6-21.1 10.1-33.8 13.5-1 .2-2.1.5-3.3.6-1.2.2-2.4.4-3.8.6-1.3.2-2.7.5-4.2.7s-3 .4-4.6.6c-6.3.9-13.5 1.3-21.1 1.5-15.1 0-31.4-2.3-43.8-6.4 3.8 1.3-.8.5-5.3-.8-5.9-2.1-16.6-4.9-15.4-5.4l2.1.7c-2.1-1.1-6.2-2.7-11-4.3-.3-.1-.5-.2-.8-.3 0 0-.1 0 0 0l-.2-.1-.4-.2-1.8-.9c-1.2-.6-2.5-1.2-3.7-1.7-1.2-.6-2.5-1.2-3.7-1.7s-2.5-1-3.6-1.5l-1.9.3c-1.5-.7-3.1-1.5-4.7-2.1-1.7-.6-3.4-1.3-5.1-1.9-.9-.3-1.8-.7-2.7-1s-1.8-.7-2.7-.9c-1.9-.6-3.8-1.1-5.7-1.7-1-.3-1.9-.6-2.9-.8-1-.3-2-.5-3-.7-2-.4-4-.9-6-1.3-2-.5-4-.7-6-1.1-2-.3-4-.6-5.9-1-15.8-2.1-30.1-1.9-37.4-2.2-1.6.1-3.3.2-5 .4s-3.5.4-5.3.6c-1.8.2-3.6.4-5.3.6-1.7.3-3.4.6-4.9.9l.3-.6c-1.1.2-2.2.3-3.2.4-1 .1-2 .3-3 .5-2 .4-3.8.7-5.6 1.1-3.6.6-7 1.6-10.4 2.5-7 1.8-14.3 4.3-24.5 8.3 1.3-.7 2.7-1.3 4-2-2.9 1.1-5.2 2.1-7.2 3.1s-3.7 1.9-5.3 2.8c-3.3 1.8-6.5 3.6-11.7 5.7l-3.5.5c-19.7 8.1-40 15.6-59.2 24.3.3-.2.8-.7 3.9-2.1-9.3 3.8-36.2 14.2-32.4 13.9-.5-.6-20.4 8.3-30.9 12.9l1.4-1.2c-8.7 4.3-8.9 4.8-21.5 9.7-3.1.9-2.8.5 1.3-.8-5.1 1.6-7 2.3-9.2 3.2-2.2.9-4.7 1.6-11 3.2l4.6-1.6c-2.6.7-4.6 1.2-6.1 1.6-1.5.3-2.6.6-3.5.8-1.8.5-3.1.9-6 1.7-1.7.4-3.8.7-6.1 1.1-1.1.2-2.3.3-3.5.5-.6.1-1.2.2-1.7.2-.6 0-1.2.1-1.7.1-4.5.4-8.4.6-9.2.4-.7.2-2.6.5-5.1.8-1.2.1-2.6.3-4.1.4s-3.1.1-4.7.1c-.9-.2 1.5-.3 2.7-.4h-9.4c-1 0-1.9-.1-2.8-.1-1.8-.1-3.5-.1-5.2-.1-1.6 0-3.2 0-4.7-.2-3-.2-5.9-.4-8.8-.7-2.9-.4-5.8-.9-8.9-1.4-.2-.2-1-.4-2-.7 3.6.5 7 1 10.1 1.5 3.1.4 5.9.6 8.2.8 1.1.1 2.2.2 3.1.3.9 0 1.6.1 2.2.1 1.2.1 1.7.1 1.4.1 0-.1-.7-.3-1.7-.4-.9-.1-2.1-.3-3-.4-1.7-.4-2.3-.5 2.3-.6-2.3 0-5.1-.2-8.1-.4-1.5-.1-3.1-.1-4.7-.3-1.6-.2-3.2-.3-4.9-.5-1.6-.2-3.3-.3-5-.6-1.6-.3-3.3-.6-4.9-.9s-3.2-.6-4.7-.9-3-.7-4.3-1.1c-.5-.2-1-.4-1.4-.5l1.2.2c-2.5-.7-4.9-1.2-7-1.7-3.5-1.1-5.7-1.9-9-2.9-.6-.4-3.7-1.6-7.4-2.9-.9-.3-1.9-.7-2.8-1-.9-.4-1.9-.8-2.8-1.2-1.8-.8-3.5-1.5-4.9-2 .1.4-1.6-.2-2.5-.5h-.1c-.1 0-.2-.1-.2-.1-.1 0-.1 0 0 .1l.1.1.1.1s.2.1.4.3l1.8.9c-.8-.4 1 .4 4.6 1.9.8.3 1.8.7 2.3.9-.1 0-.2-.1-.4-.1 1.8.8 3.9 1.4 6.2 2.3 2.3.8 4.8 1.8 7.5 2.6-2.3-.5-4.5-1.2-7-2-1.2-.4-2.5-.9-3.9-1.4-.7-.3-1.4-.5-2.1-.8s-1.4-.7-2.1-1c-2.9-.8-6.1-1.8-7.9-2.3-6.5-4.6-19.8-12.9-21.4-14.4-15.8-8.8-36.8-21.1-47.2-25.9-4.5-2.5-4.9-3.2-6.5-4.3 2.6 1.4 5.6 3.2 7.1 3.8-9-4.9-26.3-15.2-28.8-15.7-11-6.8 6.6 3.1-8.8-5.7l2.2 1c-29.6-18.6-50.1-26.9-82.8-47.6 2.3 1.4 3.4 2.1 3.8 2.5-9.5-5.7-19.1-11.3-28.9-17-4.9-2.8-9.8-5.6-14.7-8.5-2.5-1.4-4.9-2.8-7.4-4.2S219 6 216.2 5c-2.8-.9-5.6-1.5-8.5-1.8s-5.8-.4-8.7-.1c-5.8.5-11.4 2.1-16.5 4.7-1.3.6-2.5 1.4-3.7 2.1-1.2.7-2.4 1.5-3.5 2.2-2.4 1.5-4.7 3-7 4.4-4.7 2.9-9.4 5.8-14 8.7-10.5 6.5-11.4 7.7-17.5 12.1l-2.6.9-10.5 7.6c-15.1 10.4-27.5 16-46.4 29.3l2.7-1.3c-7 4.5-22 14.5-21.1 13.4-.7.5-2.1 1.8-4.9 3.4l-.4-.3-16.9 11.5c-13.5 8.4 1.4-2.4-18.1 10.1-7.1 4.8-20 14.1-17.2 12.5 2.9-1.9 7.6-4.6 8-4.5l-6.6 4.4c-.7 1.6-5.3 5.6 11.3-4.3l11-7.8 3.9-2-9.5 6.2c5.6-3.1 8.9-5.7 12.5-8.3 1-.4 2.7-1.3 5-2.6l10.6-7.9c1.5-.6-4.6 3.8 3-.8 5-3.7-5.4 2.5 3-3.3 5.6-3.1 4.2-1.8 10.4-6.2 1-.4-.2.6-2.7 2.3 5.5-3.9 14.9-9.8 17.5-12.1 5.9-3.2 19-12.4 18.9-11.3 1.7-1.3 9.6-7 14.8-10.4-8.9 7 19.5-12.5 17.6-9.9 6.5-5.3 25.1-16.7 37.3-25.2-.7.5-1.9 1.5-3.1 2.2 7-4.4 9.2-5.5 13.8-8.3.1-.3.9-1 2.1-1.9 1.2-.9 2.6-1.9 4.4-2.9 1.8-1 3.8-1.9 5.8-2.6 1-.3 2-.7 3-1 1-.2 1.9-.5 2.7-.7 1.2-.1 2.1-.1 2.6-.1s.7.1.7.2-1 .3-2.1.6c-2.3.5-5.2 1.5-3.7 1.5-.2-.1.8-.4 2.2-.8 1.5-.3 3.4-.7 5.4-.8 1.9-.1 3.8-.1 4.9-.1 1.2 0 1.6 0 .8-.3 1.8.4 3.1.6 4.1.9 1 .3 1.6.4 2.2.6 1.1.4 1.7.6 3.4 1.6.8-.3 2.4.3 4.5 1.4 2 1 4.7 2.7 7.7 4.1 9.5 6.1 2.1 2.3 12.9 8.2 5.1 3.3-4.6-1.9-4.6-1.9zm260.1 139.1c-2.5-.6-4.6-1.1-6-1.4 1.3.2 3 .6 6 1.4zm24.6 4c-.8-.1-1.6-.2-2.4-.2-.8-.1-1.7-.3-2.6-.4-1.8-.3-3.7-.5-5.7-.8-.8-.3.1-.4 2.6 0-.7 0 .4.2 2.2.5.9.2 1.9.3 2.9.5 1.1.2 2.1.3 3 .4zM471.9 148c3.7 1.2 4.9 1.8 5.3 2.1-1.7-.6-3.8-1.3-6.4-2.2-.1 0-.3-.1-.5-.1.4 0 .9 0 1.6.2z"/>
    <path class="hills--stroke" d="M465.1 146.2c-.5-.2-.8-.3-1.5-.6.7.3 1.4.7 2.1 1 .5.1.9.3 1.3.4-.6-.3-1.3-.6-1.9-.8zM317.1 304.1h.5c-.4 0-.8 0-1.1-.1.3.1.3.1.6.1zM848.3 73v-.1l-2.1.2zM180.4 302.2c-.3 0-.8-.1-1.8-.1.1 0 .8.1 1.8.1zM121.4 302.1l-8.3-.2c3.5.1 6.2.1 8.3.2zM76 301.8c-.6.1-.7.2-.9.2h.1l.8-.2zM797.6 301.1h1.8c4.1-.1 1.3-.1-1.8 0zM582.9 302.5c2.3-.1 4.5-.2 6.9-.3-3.8-.1-6.8-.1-6.9.3zM1037.4 300.5h1.5-1.5zM599.8 302.2c-3.8-.1-7-.1-10 0 3.1 0 6.8.1 10 0zM3.4 180.9v-2.2s-.1-.1-.1-.3l.1 2.5zM3.3 178.5l-.1-2.4c0 1.1 0 2.1.1 2.4zM3.1 171l.1 5.1c0-1.8 0-4-.1-5.1zM3.1 241l.2.7c0-.4-.1-.6-.2-.7zM3.2 259.3c0-4.4.4-10.9.3-17l-.2-.6c.3 2.9-.5 13.5-.1 17.6zM33.8 304.3l-15.3-.2c2.7.2 6.2.5-.8.6 19.3.6-3.9-.5 16.1-.4zM81.2 304.6c-8.2.1.1.3-.3.4 5.2-.2 6.5-.2.3-.4zM424.1 304.6l-.8.5c6.3-.1 0-.2.8-.5zM489.6 301.9l-6.1-.3-3 .5zM528.3 305.6l-2.7.1 10.6-.2zM1104.2 305.4l-1.9-.6c-4.3.1-5.2.8 1.9.6zM1352.7 304.8c1.3.2 3.7.3 6.3.3h6.6c.9 0 1.8-.1 2.6-.1v-.2.2c-1.9 0-3.9 0-5.8-.1-1.3 0-2.6-.1-3.8-.1-2.4 0-4.4-.1-5.9 0zM914 77.8l4.9 1.4-4.5-1.5c-1.5-.5-3-1-4.6-1.4l2.1.6 2.1.9z"/>
  </g>
</svg>
