<svg id="Layer_1" xmlns="http://www.w3.org/2000/svg" viewBox="0 0 208 210">
  <style>
    .sun--outline{fill:#fcf03d}
    .sun--fill{fill:#ff0}
  </style>
  <g id="Sun">
    <circle cx="105" cy="105" r="102" class="sun--fill"/>
    <path class="sun--outline" d="M205.7 105c.2.3.6.1.5-.8l-.7-.6.2 1.4zM206.7 98.8c-.4-1.1-1.1-2.3-1.6-1.5.7 1 .5 1.3 1.3 2.4.1.9-.2 1.6-.4 1.5.2.3-.1 1.4.3 1.9.5-1.2.5-2.8-.1-4.3.2-.4.4-.1.5 0zM164.7 21.2l.4.4c-.1-.2-.3-.3-.4-.4zM111.8 2c.4 0 .6 0 .6-.1-.3 0-.6 0-.6.1zM102.1 1.1h.6c-.2-.1-.5-.1-.6 0zM164.7 21.2l-1.1-1.1c-.3.1.5.6 1.1 1.1zM203.6 86.6c.1.3.2.5.3.8-.1-.2-.1-.5-.2-.7l-.1-.1zM183.5 37.7l.3.3c.1.1.3.1.5.1l-.8-.4zM194.8 53.3c-.2-.4-.8-.2-1.1-.3.3.1.6.3.8.6.1.1.2 0 .3-.3zM205 82l.2.5c-.1-.1-.2-.3-.2-.5zM173.9 27.7v-.3.3zM202 126.3c.1.1.1.1 0 0 .1-.1.1-.1 0 0zM207.1 105v.3c.1 0 .2.1.3.1l-.3-.4zM84.1 2.3c.1 0 .1 0 0 0 .6-.1.3-.1 0 0zM3 127.1c.1-1.9 1.3 2.8 1.2 0-.1.2-1.4-2.4-1.2 0zM203.6 86.1c-.1-.2-.1-.5-.1-.8 0 .4 0 .7.1.8zM4.3 127v-.3.3zM46.2 18.7h.5c0-.1-.1-.1-.5 0zM74.2 6.1l-.7.2c.3-.1.5-.2.7-.2zM34.3 29.3c-.3.3-.5.3-.8.7.1 0 .1 0 .2-.1 0-.1.2-.3.6-.6zM23.1 41.6c.1 0 .2-.1.3-.2.1-.1.2-.3.3-.4l-.6.6zM181 169.4c.3-.2.6-.2.9-.2-.5-.1.9-2-.9.2z"/>
    <path class="sun--outline" d="M203.9 86.6c-.2-.1-.2-.2-.3-.4 0 .2.1.4.1.5.1 0 .2 0 .2-.1zM36.8 33l-1.9 1.7c.6-.5 1.3-1.1 1.9-1.7zM77.4 200.8l.6.1c-.2-.1-.4-.1-.6-.1zM29.9 40.2c-.4.2-.8.5-1.2.8 0 .1-.1.2-.1.3l1.3-1.1zM181.9 169.2z"/>
    <path class="sun--outline" d="M190.3 154.8c-1.2 2.1.1 1.3.2 2-1.4 2.5-1.2.8-2 1.5-.4.8-.6 1.6-.9 2.3s-.5 1.4-.9 1.9c-.2 0-.3.2-.3-.1-.6 1.9-3.3 4.5-4.2 6.7-.2.1-.3.1-.3.1.5 0 .8.2 1 .4-.7.8-1 1.8-1.6 1.8.5-.5.3-.7.4-1l-.6 1c-1.2.3.8-1.3.5-1.7-.6.9-1.3 2-1.9 2.9-.7.9-1.4 1.8-2 2.3-.7-.2 2.6-3 .6-1.8.7-.6 1.3-1.2 2-1.8-2.1.8 1.1-1.2-1-.5-1.2 1.3-1.8 1.9-2.4 2.7-.6.7-1.2 1.5-2.5 2.6-.3.8.6.2.3 1-.8 1-1.4 1.6-2 1.9-.6.4-1 .5-1.5.6-.9.2-1.6.4-2.7 1.9-.4.9-.2 1.8-2.5 3.1l.2-1.1c-2.7 2-.9 2-4 3.7.3-.6 2-1.7 1.5-1.5-2.2.8-1.1 1.3-2.5 2.3l-.7-.4c-2.9 2-6 4.5-9.5 6.4.1-.3.6-.8-.3-.5-2.1 1.3-4.6 2.4-7 3.4-2.5.9-5 1.7-7.3 2.2l-1.6 1.1c-.4.1-.8 0-.4-.3-1.9.3 0 .4-.8.8-1 .3-1.4.1-.8-.3-3 1.5-8.9 3.3-12.5 3.2l.6-.3c-2.7.2-2.9 1.6-5.4 1.4l.5-.2c-5.9.4-12.4 1-16.9-.2-.4.4-1.9.2-3.3 0-1.4-.1-2.7-.4-3 .2-1.6-.5-2.2-.8-2.9-1-.7-.3-1.6-.6-3.9-1.2-1.2-.3-2 .3-3.5.1l.1-.6-2.2.2c-.3-.3-.6-.7-.9-1l-1.4-.2c.5.2 1.1.6 1 .8-1.1-.2-2.5-.7-3.5-1.1-1-.5-1.7-1-1.7-1.2l-2.6-.6c-.9-.2-1.7-.5-2.6-.7.2-.2 1.1.1 1.8.2-2.9-.5-.2-.8-2.9-1.2.3.3-.3.3-.4.4-.6-.4-1.5-.9-2.6-1.4s-2.3-1-3.3-1.4l.6-.2c-1.7-1-3.7-1.8-5.6-2.9-1-.5-1.9-1-2.9-1.6-.9-.6-1.9-1.2-2.8-1.8 1.2 1 .5 1.5-.6.8l-.1-.8c-.9-.1 1 1-.7.4-1.3-1-.5-1.3.4-.9l-1.8-1c0-.2.5 0 .7-.2-.9-.2-2.5-2.5-3.8-2.7v-.2c-.9-.7-1.6-1.3-2.3-1.8s-1.3-1-1.9-1.5-1.2-.9-1.8-1.4c-.6-.5-1.2-1.1-1.9-1.7-.4.4-1.4-.7-2.5-1.2-.9-1-1.7-2.2-2.7-3.3-.9-1.2-1.8-2.4-2.9-3.6-1.7-1.6-.8-.2-1.7-.8.3-.5-1.7-3-.4-1.9-1.3-1.5-2-2.5-2.8-3.6-.4-.5-.9-1.1-1.4-1.8s-1.1-1.5-1.9-2.5c.1.6.4 1.1 0 1-.6-.7-.9-1.8-.6-1.9l.2.2c-1.8-2.2-3.1-5.1-4.1-8-.6-1.4-1-2.9-1.5-4.1-.3-.6-.5-1.2-.8-1.8s-.6-1.1-.9-1.5l.1.2c-.7-1.4-1.5-2.7-2.1-4.1-.6-2 .8 1.1.6-.5-.6-1.1-1-2.1-1.4-3.1-.3-1-.6-1.9-.8-2.8-.5-1.8-.7-3.5-1.5-5.4.1-.4.1-.9.1-1.4s0-1.1-.1-1.7c-.1-1.2-.5-2.6-.7-4.1-.2-1.4-.5-2.9-.6-4.3-.1-1.4-.1-2.7 0-3.7l-.3.3c-.4-1.1.1-1.3.2-2.1-.3.1-.3 1.2-.5.5-.4-4.6-.2-9.4.5-14.2.7-4.8 1.7-9.5 3-14 .4-1.7.1-2.2-.1-2.9-.2-.7-.3-1.5.8-3.4l.3 1.4c.1-.9.3-1.7.6-2.6.2-.9.5-1.7.7-2.6.5-1.7 1.3-3.3 1.9-5 .7-1.6 1.5-3.2 2.2-4.8.8-1.6 1.5-3.2 2.2-4.8-.1.4.1.5-.2 1.1 1.1-1 2.7-4.6 2.3-4.9.6-.9.4 0 1-.5 1-1.1 1.4-3.4 2.3-3.8.1-.1-.1.4-.2.7.3-.9 2.6-3.5 1.6-3.1.8-1 1.6-2 2.2-2.9.7-.9 1.3-1.9 2.1-2.5.4-1.4 3.1-3.2 2.8-4 .6.8 3.6-2.8 4.5-4.2-.2.6 1.2-.8 1-.1 1.3-1.3 2.5-2.5 2-2.7 1.7-.7 2.8-2 3.9-3.1s2.1-2.1 3.3-2.1c4.1-3.7 8.4-6.6 12.7-9.1.1.5-1.1 1-2.2 1.8-1.1.7-2.2 1.4-1.9 1.7 1-.7 1.8-1.3 2.6-1.9s1.6-1.1 2.4-1.6c1.5-1.1 3.2-1.9 5.4-2.8 1.2-.4-.5.6-.8 1 2-1.2 4.2-1.9 6.3-2.8 1-.4 2.1-.7 3.1-1.1l3-1.2c0 .1-.4.3-.8.5.8-.3 1.9-.4 1.7-.8l-.7.3c-1.5-.2 2.8-2.1 2.9-2.4-1.1 1.5 4.2-.7 2.3 1.3.5-.2 1.1-.5 1-.8.8-.1 1.1 0 .4.5 1.4-.5 1.9-.7 2.3-.9.4-.2.8-.4 2.1-.6 0 .2-.5.4-.7.6 1.3-.6 2.6-1.3 4.9-1.4-.1.1.2.3-.5.3 1.9-.3 3.6-.8 5.3-1.1.9-.2 1.7-.3 2.6-.4.9-.1 1.9-.1 3 0-1.2.9 1.5.2 1.7 1 .8-.1 1.5-.2 2.3-.2l-.9-.4c2 .1 3.8-.5 5.6-.1-.5.1-1 .1-1.5.2 1.3 0 2.5.1 3.8.1l-2.1-.4c2.1-.2-.2-1 2.5-.5-.6 0 2.1.1 3.1.8 1-.1 2.1-.2 3.6.1.4.3-.4.8-.2 1 1.1-.5 4.7.6 6.1.3-.4.1-.5.4-.4.5l.9-.3c.9.4 1 .5.8.7 2.7.7-.7-1.1 2.5 0-.3 0-.2.1-.7 0 3.2 1 6.4 1.4 9.3 2.7.6 1-2.6-.7-1.8.2 4.3 1.2 9 2.4 12.8 4.5l-.7-.4c1-.7 2.7 1.9 4.8 2.5-.5-.2-.9.2-.7.1 1.2.8 2.6 1.5 4.1 2.2 1.5.8 3.2 1.6 5.2 2.8l-.6-.1c1.3 1.2 3.7 2.7 5.1 4 .6.1 1.4.8 1.2.1.5.6.9 1.1 1.4 1.7l1.5 1.5c1 .9 2.2 1.7 3.2 2.6 1 .9 2.1 1.6 3.1 2.6.9.9 1.8 2 2.4 3.1-.4-.4-1.2-.9-.9-.5 1.1 1 2.1 2.1 3.1 3.1.1-.6-.2-.6-.5-1.6.6.2 1.6 1.1 2.3 1.9-1.6-1.3-.5.5-.2 1.3 0-.2.3-.1.4-.2.8 2.3 1-.3 2.5 2.6h-.3c.8.8 1.7 1.6 2.4 2.6-.1.7-.9-.9-1.3-.7 1 1.4 2.9 2.3 3.3 4-.5-.6-1.1-1.5-1.7-2 .5 1.8.7 1.9 1.3 3l-.1-.1c.5.9.9 1.8 1.4 2.7-.1-.3-.2-.5-.3-.7 1.2.6 1.8 1.6 2.4 2.6.3.5.6 1.1 1 1.7.3.6.8 1.2 1.3 1.7-2.1-2.2-.7-.2-1.3-.1.2.8.6 1.9.3 1.7.5.5.7 1.1 1 1.7.2.6.5 1.3 1.2 2.1-.1.2.6 1.4 0 1.3.9 1.6.1-.5.4-.5 1.8 2.3 1.8 6.4 3.9 10 .7 1.6 1.2 2.6 1.7 3.5.3.5.5.9.8 1.4.2.5.5 1.2.8 1.9-.1 1.2-.9-.7-.9-.7.1 1.8.5 3.1 1 4.7-.2-.3-.3.1-.4.6.3 1.3.9.8.9 2.6-.3-.3-.7-.6-1-1.2.2.8.5 1.5.8 2.3.2.8.5 1.5.7 2.4-.3.5-.6-.9-.9-1.5.4 1.8.9 4.7 1.5 5.2l.1-1.2c.1.7-.4.4-.6-.1-.6-1.5-.1-2.3.1-2.4l.3 1.2c.5-.7.3-1.8-.1-3.1s-1-2.7-1.1-3.9l1 .8-1.1-2.3c.1-.5.5-1 .8.1.1-1.8-.6-1.4-.5-3 0-.2.1-.1.2 0l-.6-1.6c.2.3.5-.4.6.6-.1-1.5-.6-2.7-1-3.6s-.7-1.6-.6-2.2l.1.2c-1.5-3.9-.7-.2-2.3-3l.7-2.5-.7-.2c-.1-.4-.4-1.2-.1-1.2-1-1.3-.1.3-.9-.4-.1-1.1-.7-2.4-1.2-3.5s-.9-2.1-.6-2.5c-.7-.5.5 2-.7.1.3-.5 0-1.1-.4-1.7-.5-.7-1.1-1.4-1.3-2.4.7.3 1.3 2 .9.1-.7-.3-1-1.1-1.4-2.1-.3-.9-.7-1.9-1.1-2.6-.3.1-.8-.6-1.4-1.6s-1.4-2.3-2.3-3.4c.3 0-2.5-4.4-3.8-6.6h.1c-.9.1-2.3-2.1-3.7-3.4.4-.2.7-.1 1.6.6-.4-.5-.8-.9-1.2-1.3-.5-.2-.9-.5-1.7-1.3h.7c-.4-.4-.8-.9-1.3-1.3s-.9-.8-1.4-1.2c-1-.8-1.9-1.8-2.9-3-.5.3.7 2.7-1.8.7.1-.3.3-.7 1-.2-.2-.2-.9-.5-1.2-1l1.2.5c-.9-1.1-.8-.2-1.6-1 .3-.3-.4-.8-.1-.9.2.2.6.8 1 1-.8-.9-1.8-2.1-2-2.7-.1.2-.4.4-1.1-.2-1.8-1.5-.3-.9-1.2-1.9-.6-.2-1.6-1.3-2-.9-.5-.4-.5-.7-.6-1-.6-.3-1.7-1.2-2.6-1.8-.9-.6-1.6-.9-1.3-.3l.2.2c-.1 0-.1-.1-.2-.1-.9-.5-1.8-1-2.6-1.6s-1.7-1.2-2.5-1.8c-1.6-1.3-3.4-2.4-5.2-3.3l.1-.2c-1.1-.5-2.3-1-3.4-1.6-1.1-.5-2.2-1-3-1.1-.6-.3-1.3-1-1-1.1-1.7-.6-2-.5-4.3-1.8 1.8.3-.5-.5 1.8.5-2.1-1-2.5-1.5-5.1-1.9 1-.2-1.5-1.2-2.6-1.4l1.5.9c-1.2-.3-2.2-.7-3.3-1.1l.8-.4c-1.1-.6-2.2-.9-3.3-1.1s-2.1-.4-3.2-.5c-2.1-.2-3.9-.5-5.6-1.4-1.3.2 2.5.8 1.3 1.1-2.2-.5-4.3-1.8-5-1.9-3-.7-3 .6-6.1 0 .4.3.7.9-1.7 1-2.2-.3-2.6-1.2-1.2-1.3.5 0 .8.1.8.2.7 0 1.7-.1.8-.4l-.3.2c-.5-.2-1.6-.3-2.4-.4-.8-.1-1.4-.2-1-.4-1.7.2-.7.4.5.5-2.8-.4-4.5-.2-7.4-.3.5.1.9.4.4.4-2.2-.1-2.6 0-2.9.2-.3.2-.4.4-1.9.5-1.7-.2.5-.9-2.4-.4-1.8-.1-.4-.6.3-.8-.7.2-1.3.3-1.9.3-.6.1-1.2.1-1.8.1-1.1 0-2.1-.1-2.9 0L91 1c-.8.2-1.5.3-2.2.4.3.1.6.2.9.4-.8 0-1.5.2-1.6 0-.8.5.8.7-.8 1.4-1.1 0-3.3.8-3.8.3 3.5-.5-.5-.6 2.4-1.2-.5.2-1.2.3-2.1.4-.1 0 .1-.2.3-.2-3.4.2-1.4 1-4.7 1.8.3-.5-1-.5-1.5-.2 1.4-.4.8.4-.4 1-2.2.3-2.3.9-3.4 1.1l1.3-.2c-.3.5-1.4.7-2.8 1.3-.2-.2 1.3-.6.7-.6-1.4 1.2-3.9.6-6 1.9-1.1.2-.3-.6-1.3-.4-2.3 1.4-2.9.7-5.3 2.2.9.1 1-.1-.6 1.2l4.1-2.2-2.4 1.9c1.3-.6 2.5-1.5 3.4-1.7-1.2.9-1.1.8-.3.8-2 .1-3.3 1.9-5.4 2.4l-.5-1.1c-1.6.5-2.9 1.3-4.2 2.3s-2.7 2-4.6 3c.4-.2.8-.4 1.3-.6-.3.7-2.2 1.5-3.3 2.4-.1-.4-.9-.1-1.6.1.2.2-2.6 1.8-2.5 2.7-.6.2-1.3.4-1.9.7-2.9 2-2.5 3.3-5 5.4.5-1-.9-.2.6-1.9-.8.7-1.7 1.3-1.5 1.6-.3.1-.8.7-1.4 1.4-.5.7-1.1 1.3-1.6 1.5-.2.5 0 .9-1 1.7-.2 0-.1-.1-.1-.1.1.1-1.2 1.6-.1 1.1-3.3 1.6-6.4 7-9 8.8-.7 1-1.5 2.1-2.2 3.2-.7 1.1-1.4 2.2-2 3.1 0-.2-.2-.1.1-.4-1.9 2.4-.1 2.2-2.2 4.9-.7.6-.6.2-.3-.3.2-.5.6-1 .2-.6-.7-.1-1.2.8-1.7 2s-1.2 2.5-2 3.4l.2-.5c-1.2 1.4-1.6 4.1-2.8 6.7 0 0 0-.2-.2-.1-.1 1-.5 2.4-.9 3.9s-1 3-1.3 4.4c-.2-1 .2-1.3-.5-1-.3 1.2.9-.1.2 2.3-.5.7-1.3 2.3-1.9 2.4.2-.8.5-1.5.7-2.3-.5.5-.8 1.2-.9 2s-.2 1.6-.4 2.1l-.3-.2c-.9 3.5-.1 3.8-1 7.5l.3-.3c.3 2.2-.8 1.7-.6 3.8l-.9.5V95.7c-.5-1.5-.4-4.4-.5-6.3-.2 1.4-.5 4.7-.3 5.5 0-.6-.1-1.3.1-1.8.4 1.8.5 4 .3 6.8-1.6-.6-.6 7.2-1.6 9.2.1.6.1 1.2.2 1.8.1.6.1 1.2.2 1.8.1 1.2.1 2.5.2 3.8.2 2.5.3 5.2.9 8 .8-2.2.3 1.6 1.5 1.1.3 1.3.5 1.8.4 1.9l.2 4.1c0 .5-.2.2-.4-.2s-.3-.9-.4-.8c.6 2.9-.2 1.3 0 3.3.3-.5.9.8 1.2 2.5l-.1-2.4c.9 1.9.9 2.8.9 3.7s.1 1.9 1.1 3.7l-.8-1.1c.9 2 2.8 7.4 4.6 8.8 0 .4-.1 1-.5.2 2 4.7 6.1 9.6 7.8 13.1l-.5-.2c.6.7 1.3 1.1 1.8 2.2-.1 0-.5-.1-.2.2.4.4 1.9 1.7 2.5 2.9l-.9-.7c.6 1.1 1.3 1.9 2 2.7s1.3 1.4 2 2c1.4 1.2 2.7 2.2 4.2 3.7-.6.6 1.8 3.6 3.1 5.1h-.1c1 1 2 1.9 3 2.7s2 1.5 3 2.2 2 1.3 3 2c1 .6 2.1 1.4 3.2 2 .5.7 1.4 1.4 2.4 2.3 1 .8 2.2 1.6 3.5 2.5s2.7 1.6 4 2.4c1.3.8 2.6 1.5 3.7 2.3-.7-.5.4-.5 1.3-.2 1 .8 3.4.9 2.8 1.6l-.4-.2c.5 1.1 3 2 4.8 2.7l.7-.9c1.1.8 2.4 1.6 3.9 2.1s3 1 4.6 1.4c1.5.3 3 .7 4.2 1s2.2.7 2.9 1.2c1.3.1 2.8.3 4.1.3l-.2.5c1.7.4 3 .7 4.4.8.7.1 1.4.2 2.3.3.4 0 .8.1 1.3.1s1 0 1.5.1l-.9.3c2.5.2 3.2-1.4 5.4-1.3l.6.9c2.1 0 4.3.3 6.4.3 1.1 0 2.1 0 3.2-.1s2.1-.3 3.1-.6c-.1.1-.2.4-.9.5 2 0 7.8-.3 6.9-1.3.2.8 4.4-.6 6.5-1.4l-.2.6c1.7-1.1 1.8-1.3 4.3-2.1.6-.1.7.3-.2.4 2.1-.2 1.5-.9 4-1.3l-.8.6c2.1-.6 1.9-.7 2.9-1.5 1.2-.7 4-1.2 4.4-.8.2-.4 1.1-1.2 2.4-1.6.2.1-.2.4-.4.5.9-.2 1.6-.5 2.3-.8s1.2-.7 1.7-1c1-.6 2-1.2 3.2-1.5.1.1.3.2.5.1-2.6 1.3-4.8 2.1-4.6 2 .2.5 2.4-.4 1 1 .8-.6 1.8-1.4 3-2.1 1.1-.8 2.3-1.6 3.3-2h.4l-.2.2c.5-.2.9-.5 1.3-.7.7-.3 1.1-.5 1.7-.8.4.2 2.5-1.1 3.5-1.8-.4-.4 1-1.2-.5-.8.2-.1-.1.2-.8.6-.1.1-.3.2-.4.3v-.1c-.7.4-1.5.9-2.5 1.5.7-.7 1.4-1.4 2.7-1.8.3-.6.7-1.3.9-1.6.9-.1 2-.5 3-.8s1.8-.7 2.2-.6c1.4-1.2 3.1-2.4 4.5-3.8.7-.7 1.4-1.3 2-1.9.5-.7 1-1.3 1.2-1.8.7-.8 1.1-.5 1.5-.7-.4.5-.9.9-1.1 1.2 1.4-1.5 4.4-4.1 4.2-5 2.1-1.5-.5 1.5 1.9-1.1l-.2.5c1.4-1 2.5-2.2 3.5-3.3.9-1.2 1.7-2.4 2.5-3.7s1.5-2.6 2.4-3.8c.9-1.3 1.9-2.6 3.4-4-.4.4-.6.6-.7.6.3-.4.7-.8 1-1.3l.9-1.4c.6-.9 1.2-1.8 1.8-2.8 1.1-2 2.2-3.9 3.2-5.9 2-4 3.6-8.1 5.7-12 1-2.3.6-2.7.8-4.2l.7-.3v-2.7c.1-.9.4-1.7.7-2.5.3-.8.6-1.5 1-2.3.3-.8.7-1.6.9-2.5.2-.9.3-2 .3-3.1l-.5.5c.2-.8.4-2.1.5-3.1.1-1.1.3-1.9.5-1.7-.1-.2-.4-.6-.1-1.2h.3v-2l-.1-2c.4-3.1 1.3.6 1.6-4-.1-1.7-.8-4.9-1-4.2 0 .7-.2 1.7-.6 1.8l-.1-1.5c-.9-.3-1.8-1.4-2.6 2.3l.5 2.6-.5.8c.1-.7.1-1.4.1-2.2-.4 1.2-.1 2 .1 2.9-.3.2-.5.5-.6 1l.7 2.6c-.4.3-.6-1.2-1 .5.3 1.2 1-1 1 .9-.6 1.2-.9.8-.7 2.3-.3.2-.4-.2-.4-.7.1.7 0 1.5-.1 2.3s-.1 1.5.1 1.8c-.4.6-.5 1.7-.7 2.6-.2.9-.4 1.6-.8 1.4.1.4.2 2.4-.1 3.5-.3-1.2-.5-.1-.9 1.1-.4 1.2-.8 2.7-1.3 2.2.3.9-.1 2.3-.6 3.8-.2.8-.5 1.6-.7 2.3-.3.8-.5 1.5-.6 2.2 0-.2 0-.5.1-.7-.7 1.5-1.1 1.8-1.6 2.7.6.5-.2 2.8-.3 4.3-1.5 1.5-.3-1.5-1.3-1.2.3.1.1.9-.1 1.7s-.4 1.4 0 1.3c-1.1 1.1-.8 1-1.7 1.4.7.7-.5 1.3-.6 2.7-1.5 1.6-1.1 0-2 2.2-.4.5.3-1.5.3-1.5zm-39.2 39.5c.4-.2.8-.4 1-.6-.1.1-.4.3-1 .6zm-4.2 2.1c.5-.2 1.2-.5 1.9-.8.2.1.2.4-.3.6.1-.3-.9 0-1.6.2zm10.9-1.3c-.6.5-.9.5-1.1.4.3-.2.7-.4 1.2-.7v-.1c0 .1 0 .2-.1.4z"/>
    <path class="sun--outline" d="M158.6 193.7c.1-.1.1-.1.3-.2-.2 0-.3.1-.5.1-.1.1-.1.2-.1.3.1 0 .2-.1.3-.2zM165.2 21.6s0 .1.1.1c-.1 0-.1 0-.1-.1zM82.6 201.9v.1h.4zM183.2 41.3c0 .1 0 .2.1.4 0-.1 0-.3-.1-.4zM189.8 50.6l.7 1.5c-.3-.7-.5-1.2-.7-1.5zM194 58.3c.1.1.2 0 .3 0h-.3zM75.9 9.5c-.1 0-.2.1-.3.1-.7.3-.2.1.3-.1zM116.7 4.5c-.4 0-.9.1-1.4.1.8.2 1.3.3 1.4-.1zM37 32.8l-.2.2.2-.2zM113.4 4.5c.7.2 1.3.2 1.9.2-.6-.2-1.3-.3-1.9-.2zM204.7 94.3v.4h.1l-.1-.4zM204.8 94.8l.1.5c0-.3 0-.5-.1-.5zM205.1 96.2l-.2-1c0 .4 0 .8.2 1zM203 82.9l-.2-.1c.1.1.1.1.2.1z"/>
    <path class="sun--outline" d="M202.2 79.5c.2.8.1 2.1.5 3.3l.2.1c-.5-.6-.2-2.7-.7-3.4zM199.7 64.6c.3.9.6 1.9 1 2.9 0-.6 0-1.3.6-.1-.8-3.8-.2.9-1.6-2.8zM196 56c.8 1.4.3-.2.4-.1-.7-.8-.9-1-.4.1zM147.1 10.7l.4-.4c-1.2-.5-.1.2-.4.4zM134.2 8.7c.4.2.7.4 1 .6l.7-.3c-.5-.1-1.1-.2-1.7-.3zM127.8 3.2l.5.1-2.1-.3zM24.6 38.9l.7.1c.5-.7 0-1.3-.7-.1zM3.8 83.3c-.5.5-.9 1.8-.7 2.7.2-1.1.7-2.1.7-2.7zM68.8 203l-1-.2c.6.2 1.2.4 1.8.5-.2 0-.5-.1-.8-.3z"/>
  </g>
</svg>
